{"asset":{"version":"2.0","generator":"Rinan Botanical Closeup 2.0"},"extensionsUsed":["KHR_materials_ior","KHR_materials_specular"],"scene":0,"scenes":[{"nodes":[0,1,2,3,4]}],"nodes":[{"name":"bark","mesh":0},{"name":"stem","mesh":1},{"name":"leaf","mesh":2},{"name":"leaf-back","mesh":3},{"name":"leaf-edge","mesh":4}],"meshes":[{"name":"bark","primitives":[{"attributes":{"POSITION":0,"NORMAL":1,"COLOR_0":2,"TEXCOORD_0":3},"indices":4,"material":0}]},{"name":"stem","primitives":[{"attributes":{"POSITION":5,"NORMAL":6,"COLOR_0":7,"TEXCOORD_0":8},"indices":9,"material":1}]},{"name":"leaf","primitives":[{"attributes":{"POSITION":10,"NORMAL":11,"COLOR_0":12,"TEXCOORD_0":13},"indices":14,"material":2}]},{"name":"leaf-back","primitives":[{"attributes":{"POSITION":15,"NORMAL":16,"COLOR_0":17,"TEXCOORD_0":18},"indices":19,"material":3}]},{"name":"leaf-edge","primitives":[{"attributes":{"POSITION":20,"NORMAL":21,"COLOR_0":22,"TEXCOORD_0":23},"indices":24,"material":4}]}],"materials":[{"name":"bark","doubleSided":true,"pbrMetallicRoughness":{"baseColorFactor":[1,1,1,1],"metallicFactor":0,"roughnessFactor":1,"baseColorTexture":{"index":0},"metallicRoughnessTexture":{"index":1}},"extensions":{"KHR_materials_ior":{"ior":1.43},"KHR_materials_specular":{"specularFactor":0.3}},"normalTexture":{"index":2,"scale":0.45}},{"name":"stem","doubleSided":true,"pbrMetallicRoughness":{"baseColorFactor":[1,1,1,1],"metallicFactor":0,"roughnessFactor":1,"baseColorTexture":{"index":3},"metallicRoughnessTexture":{"index":4}},"extensions":{"KHR_materials_ior":{"ior":1.43},"KHR_materials_specular":{"specularFactor":0.3}},"normalTexture":{"index":5,"scale":0.3}},{"name":"leaf","doubleSided":false,"pbrMetallicRoughness":{"baseColorFactor":[1,1,1,1],"metallicFactor":0,"roughnessFactor":1,"baseColorTexture":{"index":6},"metallicRoughnessTexture":{"index":7}},"extensions":{"KHR_materials_ior":{"ior":1.43},"KHR_materials_specular":{"specularFactor":0.3}},"normalTexture":{"index":8,"scale":0.3},"extras":{"thin_leaf_diffuse_translucency":0.28,"render_note":"Blender scene uses thin-sheet diffuse transmission; portable GLB has front/back PBR materials."}},{"name":"leaf-back","doubleSided":false,"pbrMetallicRoughness":{"baseColorFactor":[1,1,1,1],"metallicFactor":0,"roughnessFactor":1,"baseColorTexture":{"index":9},"metallicRoughnessTexture":{"index":7}},"extensions":{"KHR_materials_ior":{"ior":1.43},"KHR_materials_specular":{"specularFactor":0.3}},"normalTexture":{"index":8,"scale":0.3},"extras":{"thin_leaf_diffuse_translucency":0.28,"render_note":"Blender scene uses thin-sheet diffuse transmission; portable GLB has front/back PBR materials."}},{"name":"leaf-edge","doubleSided":true,"pbrMetallicRoughness":{"baseColorFactor":[1,1,1,1],"metallicFactor":0,"roughnessFactor":0.58},"extensions":{"KHR_materials_ior":{"ior":1.43},"KHR_materials_specular":{"specularFactor":0.3}}}],"accessors":[{"bufferView":0,"componentType":5126,"count":1816,"type":"VEC3","min":[-0.8404563665390015,-0.0033743921667337418,-0.7577707767486572],"max":[0.8951722383499146,1.5155969858169556,0.824834942817688]},{"bufferView":1,"componentType":5126,"count":1816,"type":"VEC3"},{"bufferView":2,"componentType":5121,"count":1816,"type":"VEC3","normalized":true},{"bufferView":3,"componentType":5126,"count":1816,"type":"VEC2"},{"componentType":5125,"type":"SCALAR","bufferView":4,"count":10044},{"bufferView":5,"componentType":5126,"count":4967,"type":"VEC3","min":[-0.8662423491477966,0.6280222535133362,-0.7976741194725037],"max":[0.9278687238693237,1.5261694192886353,0.8545140624046326]},{"bufferView":6,"componentType":5126,"count":4967,"type":"VEC3"},{"bufferView":7,"componentType":5121,"count":4967,"type":"VEC3","normalized":true},{"bufferView":8,"componentType":5126,"count":4967,"type":"VEC2"},{"componentType":5125,"type":"SCALAR","bufferView":9,"count":25758},{"bufferView":10,"componentType":5126,"count":97264,"type":"VEC3","min":[-1.0305299758911133,0.5710476636886597,-0.9636746644973755],"max":[1.0922181606292725,1.5561778545379639,1.0153979063034058]},{"bufferView":11,"componentType":5126,"count":97264,"type":"VEC3"},{"bufferView":12,"componentType":5121,"count":97264,"type":"VEC3","normalized":true},{"bufferView":13,"componentType":5126,"count":97264,"type":"VEC2"},{"componentType":5125,"type":"SCALAR","bufferView":14,"count":533184},{"bufferView":15,"componentType":5126,"count":97263,"type":"VEC3","min":[-1.030533790588379,0.5709589719772339,-0.9636629223823547],"max":[1.0922131538391113,1.5560901165008545,1.0154144763946533]},{"bufferView":16,"componentType":5126,"count":97263,"type":"VEC3"},{"bufferView":17,"componentType":5121,"count":97263,"type":"VEC3","normalized":true},{"bufferView":18,"componentType":5126,"count":97263,"type":"VEC2"},{"componentType":5125,"type":"SCALAR","bufferView":19,"count":533178},{"bufferView":20,"componentType":5126,"count":10726,"type":"VEC3","min":[-1.030533790588379,0.5709589719772339,-0.9636746644973755],"max":[1.0922181606292725,1.5561778545379639,1.0154144763946533]},{"bufferView":21,"componentType":5126,"count":10726,"type":"VEC3"},{"bufferView":22,"componentType":5121,"count":10726,"type":"VEC3","normalized":true},{"bufferView":23,"componentType":5126,"count":10726,"type":"VEC2"},{"componentType":5125,"type":"SCALAR","bufferView":24,"count":32178}],"images":[{"mimeType":"image/jpeg","name":"bark_albedo.jpg","uri":"../textures/bark_albedo.jpg"},{"mimeType":"image/png","name":"bark_orm.png","uri":"../textures/bark_orm.png"},{"mimeType":"image/png","name":"bark_normal.png","uri":"../textures/bark_normal.png"},{"mimeType":"image/png","name":"petiole_albedo.png","uri":"../textures/petiole_albedo.png"},{"mimeType":"image/png","name":"petiole_orm.png","uri":"../textures/petiole_orm.png"},{"mimeType":"image/png","name":"petiole_normal.png","uri":"../textures/petiole_normal.png"},{"mimeType":"image/jpeg","name":"broussonetia_albedo.jpg","uri":"../textures/broussonetia_albedo.jpg"},{"mimeType":"image/png","name":"broussonetia_orm.png","uri":"../textures/broussonetia_orm.png"},{"mimeType":"image/png","name":"broussonetia_normal.png","uri":"../textures/broussonetia_normal.png"},{"mimeType":"image/jpeg","name":"broussonetia_back.jpg","uri":"../textures/broussonetia_back.jpg"}],"textures":[{"source":0,"sampler":0},{"source":1,"sampler":0},{"source":2,"sampler":0},{"source":3,"sampler":0},{"source":4,"sampler":0},{"source":5,"sampler":0},{"source":6,"sampler":0},{"source":7,"sampler":0},{"source":8,"sampler":0},{"source":9,"sampler":0}],"samplers":[{"magFilter":9729,"minFilter":9987,"wrapS":10497,"wrapT":10497}],"bufferViews":[{"buffer":0,"byteOffset":0,"byteLength":21792},{"buffer":0,"byteOffset":21792,"byteLength":21792},{"buffer":0,"byteOffset":43584,"byteLength":5448},{"buffer":0,"byteOffset":49032,"byteLength":14528},{"buffer":0,"byteOffset":63560,"byteLength":40176},{"buffer":0,"byteOffset":103736,"byteLength":59604},{"buffer":0,"byteOffset":163340,"byteLength":59604},{"buffer":0,"byteOffset":222944,"byteLength":14901},{"buffer":0,"byteOffset":237848,"byteLength":39736},{"buffer":0,"byteOffset":277584,"byteLength":103032},{"buffer":0,"byteOffset":380616,"byteLength":1167168},{"buffer":0,"byteOffset":1547784,"byteLength":1167168},{"buffer":0,"byteOffset":2714952,"byteLength":291792},{"buffer":0,"byteOffset":3006744,"byteLength":778112},{"buffer":0,"byteOffset":3784856,"byteLength":2132736},{"buffer":0,"byteOffset":5917592,"byteLength":1167156},{"buffer":0,"byteOffset":7084748,"byteLength":1167156},{"buffer":0,"byteOffset":8251904,"byteLength":291789},{"buffer":0,"byteOffset":8543696,"byteLength":778104},{"buffer":0,"byteOffset":9321800,"byteLength":2132712},{"buffer":0,"byteOffset":11454512,"byteLength":128712},{"buffer":0,"byteOffset":11583224,"byteLength":128712},{"buffer":0,"byteOffset":11711936,"byteLength":32178},{"buffer":0,"byteOffset":11744116,"byteLength":85808},{"buffer":0,"byteOffset":11829924,"byteLength":128712}],"buffers":[{"byteLength":11958636,"uri":"broussonetia_02.bin"}],"extras":{"species":"Broussonetia papyrifera","stage":"幼樹","units":"metre","axis":"Y-up; right-handed","origin":"ground at (0,0,0)","version":"2.0","provenance":"Artist-authored geometry with AI-generated albedo and estimated PBR maps, not a botanical scan","closeup":false,"quality":"web","master":"models/broussonetia_02.glb","optimizer":"meshoptimizer 0.24, topology simplification; thin surface boundaries locked"}}