{"asset":{"version":"2.0","generator":"Rinan Botanical Closeup 2.0"},"extensionsUsed":["KHR_materials_ior","KHR_materials_specular"],"scene":0,"scenes":[{"nodes":[0,1,2,3,4]}],"nodes":[{"name":"bark","mesh":0},{"name":"stem","mesh":1},{"name":"leaf","mesh":2},{"name":"leaf-back","mesh":3},{"name":"leaf-edge","mesh":4}],"meshes":[{"name":"bark","primitives":[{"attributes":{"POSITION":0,"NORMAL":1,"COLOR_0":2,"TEXCOORD_0":3},"indices":4,"material":0}]},{"name":"stem","primitives":[{"attributes":{"POSITION":5,"NORMAL":6,"COLOR_0":7,"TEXCOORD_0":8},"indices":9,"material":1}]},{"name":"leaf","primitives":[{"attributes":{"POSITION":10,"NORMAL":11,"COLOR_0":12,"TEXCOORD_0":13},"indices":14,"material":2}]},{"name":"leaf-back","primitives":[{"attributes":{"POSITION":15,"NORMAL":16,"COLOR_0":17,"TEXCOORD_0":18},"indices":19,"material":3}]},{"name":"leaf-edge","primitives":[{"attributes":{"POSITION":20,"NORMAL":21,"COLOR_0":22,"TEXCOORD_0":23},"indices":24,"material":4}]}],"materials":[{"name":"bark","doubleSided":true,"pbrMetallicRoughness":{"baseColorFactor":[1,1,1,1],"metallicFactor":0,"roughnessFactor":1,"baseColorTexture":{"index":0},"metallicRoughnessTexture":{"index":1}},"extensions":{"KHR_materials_ior":{"ior":1.43},"KHR_materials_specular":{"specularFactor":0.3}},"normalTexture":{"index":2,"scale":0.45}},{"name":"stem","doubleSided":true,"pbrMetallicRoughness":{"baseColorFactor":[1,1,1,1],"metallicFactor":0,"roughnessFactor":1,"baseColorTexture":{"index":3},"metallicRoughnessTexture":{"index":4}},"extensions":{"KHR_materials_ior":{"ior":1.43},"KHR_materials_specular":{"specularFactor":0.3}},"normalTexture":{"index":5,"scale":0.3}},{"name":"leaf","doubleSided":false,"pbrMetallicRoughness":{"baseColorFactor":[1,1,1,1],"metallicFactor":0,"roughnessFactor":1,"baseColorTexture":{"index":6},"metallicRoughnessTexture":{"index":7}},"extensions":{"KHR_materials_ior":{"ior":1.43},"KHR_materials_specular":{"specularFactor":0.3}},"normalTexture":{"index":8,"scale":0.3},"extras":{"thin_leaf_diffuse_translucency":0.28,"render_note":"Blender scene uses thin-sheet diffuse transmission; portable GLB has front/back PBR materials."}},{"name":"leaf-back","doubleSided":false,"pbrMetallicRoughness":{"baseColorFactor":[1,1,1,1],"metallicFactor":0,"roughnessFactor":1,"baseColorTexture":{"index":9},"metallicRoughnessTexture":{"index":7}},"extensions":{"KHR_materials_ior":{"ior":1.43},"KHR_materials_specular":{"specularFactor":0.3}},"normalTexture":{"index":8,"scale":0.3},"extras":{"thin_leaf_diffuse_translucency":0.28,"render_note":"Blender scene uses thin-sheet diffuse transmission; portable GLB has front/back PBR materials."}},{"name":"leaf-edge","doubleSided":true,"pbrMetallicRoughness":{"baseColorFactor":[1,1,1,1],"metallicFactor":0,"roughnessFactor":0.58},"extensions":{"KHR_materials_ior":{"ior":1.43},"KHR_materials_specular":{"specularFactor":0.3}}}],"accessors":[{"bufferView":0,"componentType":5126,"count":2548,"type":"VEC3","min":[-1.440290093421936,-0.005588836967945099,-1.2021152973175049],"max":[1.4732792377471924,2.4374821186065674,1.3891264200210571]},{"bufferView":1,"componentType":5126,"count":2548,"type":"VEC3"},{"bufferView":2,"componentType":5121,"count":2548,"type":"VEC3","normalized":true},{"bufferView":3,"componentType":5126,"count":2548,"type":"VEC2"},{"componentType":5125,"type":"SCALAR","bufferView":4,"count":14076},{"bufferView":5,"componentType":5126,"count":591,"type":"VEC3","min":[-1.4626562595367432,1.1301844120025635,-1.2322736978530884],"max":[1.431939959526062,2.3582000732421875,1.4176158905029297]},{"bufferView":6,"componentType":5126,"count":591,"type":"VEC3"},{"bufferView":7,"componentType":5121,"count":591,"type":"VEC3","normalized":true},{"bufferView":8,"componentType":5126,"count":591,"type":"VEC2"},{"componentType":5125,"type":"SCALAR","bufferView":9,"count":3060},{"bufferView":10,"componentType":5126,"count":11579,"type":"VEC3","min":[-1.6009572744369507,1.0836927890777588,-1.3429160118103027],"max":[1.6104656457901,2.365738868713379,1.5258456468582153]},{"bufferView":11,"componentType":5126,"count":11579,"type":"VEC3"},{"bufferView":12,"componentType":5121,"count":11579,"type":"VEC3","normalized":true},{"bufferView":13,"componentType":5126,"count":11579,"type":"VEC2"},{"componentType":5125,"type":"SCALAR","bufferView":14,"count":63474},{"bufferView":15,"componentType":5126,"count":11579,"type":"VEC3","min":[-1.6009570360183716,1.0836033821105957,-1.3429139852523804],"max":[1.6104565858840942,2.3656487464904785,1.52584707736969]},{"bufferView":16,"componentType":5126,"count":11579,"type":"VEC3"},{"bufferView":17,"componentType":5121,"count":11579,"type":"VEC3","normalized":true},{"bufferView":18,"componentType":5126,"count":11579,"type":"VEC2"},{"componentType":5125,"type":"SCALAR","bufferView":19,"count":63474},{"bufferView":20,"componentType":5126,"count":1228,"type":"VEC3","min":[-1.6009572744369507,1.0836033821105957,-1.3429160118103027],"max":[1.6104656457901,2.365333318710327,1.5228896141052246]},{"bufferView":21,"componentType":5126,"count":1228,"type":"VEC3"},{"bufferView":22,"componentType":5121,"count":1228,"type":"VEC3","normalized":true},{"bufferView":23,"componentType":5126,"count":1228,"type":"VEC2"},{"componentType":5125,"type":"SCALAR","bufferView":24,"count":3684}],"images":[{"mimeType":"image/jpeg","name":"bark_albedo.jpg","uri":"../textures/bark_albedo.jpg"},{"mimeType":"image/png","name":"bark_orm.png","uri":"../textures/bark_orm.png"},{"mimeType":"image/png","name":"bark_normal.png","uri":"../textures/bark_normal.png"},{"mimeType":"image/png","name":"petiole_albedo.png","uri":"../textures/petiole_albedo.png"},{"mimeType":"image/png","name":"petiole_orm.png","uri":"../textures/petiole_orm.png"},{"mimeType":"image/png","name":"petiole_normal.png","uri":"../textures/petiole_normal.png"},{"mimeType":"image/jpeg","name":"broussonetia_albedo.jpg","uri":"../textures/broussonetia_albedo.jpg"},{"mimeType":"image/png","name":"broussonetia_orm.png","uri":"../textures/broussonetia_orm.png"},{"mimeType":"image/png","name":"broussonetia_normal.png","uri":"../textures/broussonetia_normal.png"},{"mimeType":"image/jpeg","name":"broussonetia_back.jpg","uri":"../textures/broussonetia_back.jpg"}],"textures":[{"source":0,"sampler":0},{"source":1,"sampler":0},{"source":2,"sampler":0},{"source":3,"sampler":0},{"source":4,"sampler":0},{"source":5,"sampler":0},{"source":6,"sampler":0},{"source":7,"sampler":0},{"source":8,"sampler":0},{"source":9,"sampler":0}],"samplers":[{"magFilter":9729,"minFilter":9987,"wrapS":10497,"wrapT":10497}],"bufferViews":[{"buffer":0,"byteOffset":0,"byteLength":30576},{"buffer":0,"byteOffset":30576,"byteLength":30576},{"buffer":0,"byteOffset":61152,"byteLength":7644},{"buffer":0,"byteOffset":68796,"byteLength":20384},{"buffer":0,"byteOffset":89180,"byteLength":56304},{"buffer":0,"byteOffset":145484,"byteLength":7092},{"buffer":0,"byteOffset":152576,"byteLength":7092},{"buffer":0,"byteOffset":159668,"byteLength":1773},{"buffer":0,"byteOffset":161444,"byteLength":4728},{"buffer":0,"byteOffset":166172,"byteLength":12240},{"buffer":0,"byteOffset":178412,"byteLength":138948},{"buffer":0,"byteOffset":317360,"byteLength":138948},{"buffer":0,"byteOffset":456308,"byteLength":34737},{"buffer":0,"byteOffset":491048,"byteLength":92632},{"buffer":0,"byteOffset":583680,"byteLength":253896},{"buffer":0,"byteOffset":837576,"byteLength":138948},{"buffer":0,"byteOffset":976524,"byteLength":138948},{"buffer":0,"byteOffset":1115472,"byteLength":34737},{"buffer":0,"byteOffset":1150212,"byteLength":92632},{"buffer":0,"byteOffset":1242844,"byteLength":253896},{"buffer":0,"byteOffset":1496740,"byteLength":14736},{"buffer":0,"byteOffset":1511476,"byteLength":14736},{"buffer":0,"byteOffset":1526212,"byteLength":3684},{"buffer":0,"byteOffset":1529896,"byteLength":9824},{"buffer":0,"byteOffset":1539720,"byteLength":14736}],"buffers":[{"byteLength":1554456,"uri":"broussonetia_05.bin"}],"extras":{"species":"Broussonetia papyrifera","stage":"落葉期","units":"metre","axis":"Y-up; right-handed","origin":"ground at (0,0,0)","version":"2.0","provenance":"Artist-authored geometry with AI-generated albedo and estimated PBR maps, not a botanical scan","closeup":false,"quality":"web","master":"models/broussonetia_05.glb","optimizer":"meshoptimizer 0.24, topology simplification; thin surface boundaries locked"}}