{"asset":{"version":"2.0","generator":"Rinan Botanical Closeup 2.0"},"extensionsUsed":["KHR_materials_ior","KHR_materials_specular"],"scene":0,"scenes":[{"nodes":[0,1,2,3,4,5,6]}],"nodes":[{"name":"bark","mesh":0},{"name":"stem","mesh":1},{"name":"leaf","mesh":2},{"name":"leaf-back","mesh":3},{"name":"leaf-edge","mesh":4},{"name":"fruit","mesh":5},{"name":"fruit-detail","mesh":6}],"meshes":[{"name":"bark","primitives":[{"attributes":{"POSITION":0,"NORMAL":1,"COLOR_0":2,"TEXCOORD_0":3},"indices":4,"material":0}]},{"name":"stem","primitives":[{"attributes":{"POSITION":5,"NORMAL":6,"COLOR_0":7,"TEXCOORD_0":8},"indices":9,"material":1}]},{"name":"leaf","primitives":[{"attributes":{"POSITION":10,"NORMAL":11,"COLOR_0":12,"TEXCOORD_0":13},"indices":14,"material":2}]},{"name":"leaf-back","primitives":[{"attributes":{"POSITION":15,"NORMAL":16,"COLOR_0":17,"TEXCOORD_0":18},"indices":19,"material":3}]},{"name":"leaf-edge","primitives":[{"attributes":{"POSITION":20,"NORMAL":21,"COLOR_0":22,"TEXCOORD_0":23},"indices":24,"material":4}]},{"name":"fruit","primitives":[{"attributes":{"POSITION":25,"NORMAL":26,"COLOR_0":27,"TEXCOORD_0":28},"indices":29,"material":5}]},{"name":"fruit-detail","primitives":[{"attributes":{"POSITION":30,"NORMAL":31,"COLOR_0":32,"TEXCOORD_0":33},"indices":34,"material":6}]}],"materials":[{"name":"bark","doubleSided":true,"pbrMetallicRoughness":{"baseColorFactor":[1,1,1,1],"metallicFactor":0,"roughnessFactor":1,"baseColorTexture":{"index":0},"metallicRoughnessTexture":{"index":1}},"extensions":{"KHR_materials_ior":{"ior":1.43},"KHR_materials_specular":{"specularFactor":0.3}},"normalTexture":{"index":2,"scale":0.45}},{"name":"stem","doubleSided":true,"pbrMetallicRoughness":{"baseColorFactor":[1,1,1,1],"metallicFactor":0,"roughnessFactor":1,"baseColorTexture":{"index":3},"metallicRoughnessTexture":{"index":4}},"extensions":{"KHR_materials_ior":{"ior":1.43},"KHR_materials_specular":{"specularFactor":0.3}},"normalTexture":{"index":5,"scale":0.3}},{"name":"leaf","doubleSided":false,"pbrMetallicRoughness":{"baseColorFactor":[1,1,1,1],"metallicFactor":0,"roughnessFactor":1,"baseColorTexture":{"index":6},"metallicRoughnessTexture":{"index":7}},"extensions":{"KHR_materials_ior":{"ior":1.43},"KHR_materials_specular":{"specularFactor":0.3}},"normalTexture":{"index":8,"scale":0.3},"extras":{"thin_leaf_diffuse_translucency":0.28,"render_note":"Blender scene uses thin-sheet diffuse transmission; portable GLB has front/back PBR materials."}},{"name":"leaf-back","doubleSided":false,"pbrMetallicRoughness":{"baseColorFactor":[1,1,1,1],"metallicFactor":0,"roughnessFactor":1,"baseColorTexture":{"index":9},"metallicRoughnessTexture":{"index":7}},"extensions":{"KHR_materials_ior":{"ior":1.43},"KHR_materials_specular":{"specularFactor":0.3}},"normalTexture":{"index":8,"scale":0.3},"extras":{"thin_leaf_diffuse_translucency":0.28,"render_note":"Blender scene uses thin-sheet diffuse transmission; portable GLB has front/back PBR materials."}},{"name":"leaf-edge","doubleSided":true,"pbrMetallicRoughness":{"baseColorFactor":[1,1,1,1],"metallicFactor":0,"roughnessFactor":0.58},"extensions":{"KHR_materials_ior":{"ior":1.43},"KHR_materials_specular":{"specularFactor":0.3}}},{"name":"fruit","doubleSided":true,"pbrMetallicRoughness":{"baseColorFactor":[1,1,1,1],"metallicFactor":0,"roughnessFactor":0.58},"extensions":{"KHR_materials_ior":{"ior":1.43},"KHR_materials_specular":{"specularFactor":0.3}}},{"name":"fruit-detail","doubleSided":true,"pbrMetallicRoughness":{"baseColorFactor":[1,1,1,1],"metallicFactor":0,"roughnessFactor":0.58},"extensions":{"KHR_materials_ior":{"ior":1.43},"KHR_materials_specular":{"specularFactor":0.3}}}],"accessors":[{"bufferView":0,"componentType":5126,"count":2552,"type":"VEC3","min":[-1.4595043659210205,-0.005588836967945099,-1.492152452468872],"max":[1.3025479316711426,2.297679901123047,1.3710112571716309]},{"bufferView":1,"componentType":5126,"count":2552,"type":"VEC3"},{"bufferView":2,"componentType":5121,"count":2552,"type":"VEC3","normalized":true},{"bufferView":3,"componentType":5126,"count":2552,"type":"VEC2"},{"componentType":5125,"type":"SCALAR","bufferView":4,"count":14100},{"bufferView":5,"componentType":5126,"count":7968,"type":"VEC3","min":[-1.4929639101028442,1.062635898590088,-1.5209228992462158],"max":[1.3355937004089355,2.3083646297454834,1.4068152904510498]},{"bufferView":6,"componentType":5126,"count":7968,"type":"VEC3"},{"bufferView":7,"componentType":5121,"count":7968,"type":"VEC3","normalized":true},{"bufferView":8,"componentType":5126,"count":7968,"type":"VEC2"},{"componentType":5125,"type":"SCALAR","bufferView":9,"count":41226},{"bufferView":10,"componentType":5126,"count":138947,"type":"VEC3","min":[-1.6997171640396118,1.0420680046081543,-1.6636476516723633],"max":[1.4829330444335938,2.3423757553100586,1.545757532119751]},{"bufferView":11,"componentType":5126,"count":138947,"type":"VEC3"},{"bufferView":12,"componentType":5121,"count":138947,"type":"VEC3","normalized":true},{"bufferView":13,"componentType":5126,"count":138947,"type":"VEC2"},{"componentType":5125,"type":"SCALAR","bufferView":14,"count":761682},{"bufferView":15,"componentType":5126,"count":138947,"type":"VEC3","min":[-1.699722170829773,1.0419799089431763,-1.663662075996399],"max":[1.4829431772232056,2.342288017272949,1.545764684677124]},{"bufferView":16,"componentType":5126,"count":138947,"type":"VEC3"},{"bufferView":17,"componentType":5121,"count":138947,"type":"VEC3","normalized":true},{"bufferView":18,"componentType":5126,"count":138947,"type":"VEC2"},{"componentType":5125,"type":"SCALAR","bufferView":19,"count":761682},{"bufferView":20,"componentType":5126,"count":14745,"type":"VEC3","min":[-1.699722170829773,1.0419799089431763,-1.663662075996399],"max":[1.4829431772232056,2.342294931411743,1.54159677028656]},{"bufferView":21,"componentType":5126,"count":14745,"type":"VEC3"},{"bufferView":22,"componentType":5121,"count":14745,"type":"VEC3","normalized":true},{"bufferView":23,"componentType":5126,"count":14745,"type":"VEC2"},{"componentType":5125,"type":"SCALAR","bufferView":24,"count":44235},{"bufferView":25,"componentType":5126,"count":1949,"type":"VEC3","min":[-1.4140264987945557,1.052635908126831,-1.4040766954421997],"max":[1.2373536825180054,2.161882162094116,1.2739516496658325]},{"bufferView":26,"componentType":5126,"count":1949,"type":"VEC3"},{"bufferView":27,"componentType":5121,"count":1949,"type":"VEC3","normalized":true},{"bufferView":28,"componentType":5126,"count":1949,"type":"VEC2"},{"componentType":5125,"type":"SCALAR","bufferView":29,"count":8064},{"bufferView":30,"componentType":5126,"count":19200,"type":"VEC3","min":[-1.418431043624878,1.049073338508606,-1.4086875915527344],"max":[1.241310477256775,2.165444850921631,1.2776072025299072]},{"bufferView":31,"componentType":5126,"count":19200,"type":"VEC3"},{"bufferView":32,"componentType":5121,"count":19200,"type":"VEC3","normalized":true},{"bufferView":33,"componentType":5126,"count":19200,"type":"VEC2"},{"componentType":5125,"type":"SCALAR","bufferView":34,"count":57588}],"images":[{"mimeType":"image/jpeg","name":"bark_albedo.jpg","uri":"../textures/bark_albedo.jpg"},{"mimeType":"image/png","name":"bark_orm.png","uri":"../textures/bark_orm.png"},{"mimeType":"image/png","name":"bark_normal.png","uri":"../textures/bark_normal.png"},{"mimeType":"image/png","name":"petiole_albedo.png","uri":"../textures/petiole_albedo.png"},{"mimeType":"image/png","name":"petiole_orm.png","uri":"../textures/petiole_orm.png"},{"mimeType":"image/png","name":"petiole_normal.png","uri":"../textures/petiole_normal.png"},{"mimeType":"image/jpeg","name":"broussonetia_albedo.jpg","uri":"../textures/broussonetia_albedo.jpg"},{"mimeType":"image/png","name":"broussonetia_orm.png","uri":"../textures/broussonetia_orm.png"},{"mimeType":"image/png","name":"broussonetia_normal.png","uri":"../textures/broussonetia_normal.png"},{"mimeType":"image/jpeg","name":"broussonetia_back.jpg","uri":"../textures/broussonetia_back.jpg"}],"textures":[{"source":0,"sampler":0},{"source":1,"sampler":0},{"source":2,"sampler":0},{"source":3,"sampler":0},{"source":4,"sampler":0},{"source":5,"sampler":0},{"source":6,"sampler":0},{"source":7,"sampler":0},{"source":8,"sampler":0},{"source":9,"sampler":0}],"samplers":[{"magFilter":9729,"minFilter":9987,"wrapS":10497,"wrapT":10497}],"bufferViews":[{"buffer":0,"byteOffset":0,"byteLength":30624},{"buffer":0,"byteOffset":30624,"byteLength":30624},{"buffer":0,"byteOffset":61248,"byteLength":7656},{"buffer":0,"byteOffset":68904,"byteLength":20416},{"buffer":0,"byteOffset":89320,"byteLength":56400},{"buffer":0,"byteOffset":145720,"byteLength":95616},{"buffer":0,"byteOffset":241336,"byteLength":95616},{"buffer":0,"byteOffset":336952,"byteLength":23904},{"buffer":0,"byteOffset":360856,"byteLength":63744},{"buffer":0,"byteOffset":424600,"byteLength":164904},{"buffer":0,"byteOffset":589504,"byteLength":1667364},{"buffer":0,"byteOffset":2256868,"byteLength":1667364},{"buffer":0,"byteOffset":3924232,"byteLength":416841},{"buffer":0,"byteOffset":4341076,"byteLength":1111576},{"buffer":0,"byteOffset":5452652,"byteLength":3046728},{"buffer":0,"byteOffset":8499380,"byteLength":1667364},{"buffer":0,"byteOffset":10166744,"byteLength":1667364},{"buffer":0,"byteOffset":11834108,"byteLength":416841},{"buffer":0,"byteOffset":12250952,"byteLength":1111576},{"buffer":0,"byteOffset":13362528,"byteLength":3046728},{"buffer":0,"byteOffset":16409256,"byteLength":176940},{"buffer":0,"byteOffset":16586196,"byteLength":176940},{"buffer":0,"byteOffset":16763136,"byteLength":44235},{"buffer":0,"byteOffset":16807372,"byteLength":117960},{"buffer":0,"byteOffset":16925332,"byteLength":176940},{"buffer":0,"byteOffset":17102272,"byteLength":23388},{"buffer":0,"byteOffset":17125660,"byteLength":23388},{"buffer":0,"byteOffset":17149048,"byteLength":5847},{"buffer":0,"byteOffset":17154896,"byteLength":15592},{"buffer":0,"byteOffset":17170488,"byteLength":32256},{"buffer":0,"byteOffset":17202744,"byteLength":230400},{"buffer":0,"byteOffset":17433144,"byteLength":230400},{"buffer":0,"byteOffset":17663544,"byteLength":57600},{"buffer":0,"byteOffset":17721144,"byteLength":153600},{"buffer":0,"byteOffset":17874744,"byteLength":230352}],"buffers":[{"byteLength":18105096,"uri":"broussonetia_04.bin"}],"extras":{"species":"Broussonetia papyrifera","stage":"熟果期","units":"metre","axis":"Y-up; right-handed","origin":"ground at (0,0,0)","version":"2.0","provenance":"Artist-authored geometry with AI-generated albedo and estimated PBR maps, not a botanical scan","closeup":false,"quality":"web","master":"models/broussonetia_04.glb","optimizer":"meshoptimizer 0.24, topology simplification; thin surface boundaries locked"}}