{"asset":{"version":"2.0","generator":"Rinan Botanical Closeup 2.0"},"extensionsUsed":["KHR_materials_ior","KHR_materials_specular"],"scene":0,"scenes":[{"nodes":[0,1,2,3,4]}],"nodes":[{"name":"bark","mesh":0},{"name":"stem","mesh":1},{"name":"leaf","mesh":2},{"name":"leaf-back","mesh":3},{"name":"leaf-edge","mesh":4}],"meshes":[{"name":"bark","primitives":[{"attributes":{"POSITION":0,"NORMAL":1,"COLOR_0":2,"TEXCOORD_0":3},"indices":4,"material":0}]},{"name":"stem","primitives":[{"attributes":{"POSITION":5,"NORMAL":6,"COLOR_0":7,"TEXCOORD_0":8},"indices":9,"material":1}]},{"name":"leaf","primitives":[{"attributes":{"POSITION":10,"NORMAL":11,"COLOR_0":12,"TEXCOORD_0":13},"indices":14,"material":2}]},{"name":"leaf-back","primitives":[{"attributes":{"POSITION":15,"NORMAL":16,"COLOR_0":17,"TEXCOORD_0":18},"indices":19,"material":3}]},{"name":"leaf-edge","primitives":[{"attributes":{"POSITION":20,"NORMAL":21,"COLOR_0":22,"TEXCOORD_0":23},"indices":24,"material":4}]}],"materials":[{"name":"bark","doubleSided":true,"pbrMetallicRoughness":{"baseColorFactor":[1,1,1,1],"metallicFactor":0,"roughnessFactor":1,"baseColorTexture":{"index":0},"metallicRoughnessTexture":{"index":1}},"extensions":{"KHR_materials_ior":{"ior":1.43},"KHR_materials_specular":{"specularFactor":0.3}},"normalTexture":{"index":2,"scale":0.45}},{"name":"stem","doubleSided":true,"pbrMetallicRoughness":{"baseColorFactor":[1,1,1,1],"metallicFactor":0,"roughnessFactor":1,"baseColorTexture":{"index":3},"metallicRoughnessTexture":{"index":4}},"extensions":{"KHR_materials_ior":{"ior":1.43},"KHR_materials_specular":{"specularFactor":0.3}},"normalTexture":{"index":5,"scale":0.3}},{"name":"leaf","doubleSided":false,"pbrMetallicRoughness":{"baseColorFactor":[1,1,1,1],"metallicFactor":0,"roughnessFactor":1,"baseColorTexture":{"index":6},"metallicRoughnessTexture":{"index":7}},"extensions":{"KHR_materials_ior":{"ior":1.43},"KHR_materials_specular":{"specularFactor":0.3}},"normalTexture":{"index":8,"scale":0.3},"extras":{"thin_leaf_diffuse_translucency":0.28,"render_note":"Blender scene uses thin-sheet diffuse transmission; portable GLB has front/back PBR materials."}},{"name":"leaf-back","doubleSided":false,"pbrMetallicRoughness":{"baseColorFactor":[1,1,1,1],"metallicFactor":0,"roughnessFactor":1,"baseColorTexture":{"index":9},"metallicRoughnessTexture":{"index":7}},"extensions":{"KHR_materials_ior":{"ior":1.43},"KHR_materials_specular":{"specularFactor":0.3}},"normalTexture":{"index":8,"scale":0.3},"extras":{"thin_leaf_diffuse_translucency":0.28,"render_note":"Blender scene uses thin-sheet diffuse transmission; portable GLB has front/back PBR materials."}},{"name":"leaf-edge","doubleSided":true,"pbrMetallicRoughness":{"baseColorFactor":[1,1,1,1],"metallicFactor":0,"roughnessFactor":0.58},"extensions":{"KHR_materials_ior":{"ior":1.43},"KHR_materials_specular":{"specularFactor":0.3}}}],"accessors":[{"bufferView":0,"componentType":5126,"count":194,"type":"VEC3","min":[-0.07346821576356888,-0.0007592382025904953,-0.10244865715503693],"max":[0.1297851800918579,0.2776290774345398,0.09315323084592819]},{"bufferView":1,"componentType":5126,"count":194,"type":"VEC3"},{"bufferView":2,"componentType":5121,"count":194,"type":"VEC3","normalized":true},{"bufferView":3,"componentType":5126,"count":194,"type":"VEC2"},{"componentType":5125,"type":"SCALAR","bufferView":4,"count":1104},{"bufferView":5,"componentType":5126,"count":296,"type":"VEC3","min":[-0.09000557661056519,0.17868207395076752,-0.12833896279335022],"max":[0.16587650775909424,0.2863077223300934,0.12371858954429626]},{"bufferView":6,"componentType":5126,"count":296,"type":"VEC3"},{"bufferView":7,"componentType":5121,"count":296,"type":"VEC3","normalized":true},{"bufferView":8,"componentType":5126,"count":296,"type":"VEC2"},{"componentType":5125,"type":"SCALAR","bufferView":9,"count":1536},{"bufferView":10,"componentType":5126,"count":5789,"type":"VEC3","min":[-0.15574686229228973,0.14405836164951324,-0.22147536277770996],"max":[0.30051353573799133,0.3111422061920166,0.23474521934986115]},{"bufferView":11,"componentType":5126,"count":5789,"type":"VEC3"},{"bufferView":12,"componentType":5121,"count":5789,"type":"VEC3","normalized":true},{"bufferView":13,"componentType":5126,"count":5789,"type":"VEC2"},{"componentType":5125,"type":"SCALAR","bufferView":14,"count":31734},{"bufferView":15,"componentType":5126,"count":5789,"type":"VEC3","min":[-0.15575450658798218,0.14396873116493225,-0.221464142203331],"max":[0.3005216121673584,0.31105589866638184,0.23473338782787323]},{"bufferView":16,"componentType":5126,"count":5789,"type":"VEC3"},{"bufferView":17,"componentType":5121,"count":5789,"type":"VEC3","normalized":true},{"bufferView":18,"componentType":5126,"count":5789,"type":"VEC2"},{"componentType":5125,"type":"SCALAR","bufferView":19,"count":31734},{"bufferView":20,"componentType":5126,"count":899,"type":"VEC3","min":[-0.15575450658798218,0.14396873116493225,-0.22147536277770996],"max":[0.3005216121673584,0.3111422061920166,0.23474521934986115]},{"bufferView":21,"componentType":5126,"count":899,"type":"VEC3"},{"bufferView":22,"componentType":5121,"count":899,"type":"VEC3","normalized":true},{"bufferView":23,"componentType":5126,"count":899,"type":"VEC2"},{"componentType":5125,"type":"SCALAR","bufferView":24,"count":2697}],"images":[{"mimeType":"image/jpeg","name":"bark_albedo.jpg","uri":"../textures/bark_albedo.jpg"},{"mimeType":"image/png","name":"bark_orm.png","uri":"../textures/bark_orm.png"},{"mimeType":"image/png","name":"bark_normal.png","uri":"../textures/bark_normal.png"},{"mimeType":"image/png","name":"petiole_albedo.png","uri":"../textures/petiole_albedo.png"},{"mimeType":"image/png","name":"petiole_orm.png","uri":"../textures/petiole_orm.png"},{"mimeType":"image/png","name":"petiole_normal.png","uri":"../textures/petiole_normal.png"},{"mimeType":"image/jpeg","name":"broussonetia_albedo.jpg","uri":"../textures/broussonetia_albedo.jpg"},{"mimeType":"image/png","name":"broussonetia_orm.png","uri":"../textures/broussonetia_orm.png"},{"mimeType":"image/png","name":"broussonetia_normal.png","uri":"../textures/broussonetia_normal.png"},{"mimeType":"image/jpeg","name":"broussonetia_back.jpg","uri":"../textures/broussonetia_back.jpg"}],"textures":[{"source":0,"sampler":0},{"source":1,"sampler":0},{"source":2,"sampler":0},{"source":3,"sampler":0},{"source":4,"sampler":0},{"source":5,"sampler":0},{"source":6,"sampler":0},{"source":7,"sampler":0},{"source":8,"sampler":0},{"source":9,"sampler":0}],"samplers":[{"magFilter":9729,"minFilter":9987,"wrapS":10497,"wrapT":10497}],"bufferViews":[{"buffer":0,"byteOffset":0,"byteLength":2328},{"buffer":0,"byteOffset":2328,"byteLength":2328},{"buffer":0,"byteOffset":4656,"byteLength":582},{"buffer":0,"byteOffset":5240,"byteLength":1552},{"buffer":0,"byteOffset":6792,"byteLength":4416},{"buffer":0,"byteOffset":11208,"byteLength":3552},{"buffer":0,"byteOffset":14760,"byteLength":3552},{"buffer":0,"byteOffset":18312,"byteLength":888},{"buffer":0,"byteOffset":19200,"byteLength":2368},{"buffer":0,"byteOffset":21568,"byteLength":6144},{"buffer":0,"byteOffset":27712,"byteLength":69468},{"buffer":0,"byteOffset":97180,"byteLength":69468},{"buffer":0,"byteOffset":166648,"byteLength":17367},{"buffer":0,"byteOffset":184016,"byteLength":46312},{"buffer":0,"byteOffset":230328,"byteLength":126936},{"buffer":0,"byteOffset":357264,"byteLength":69468},{"buffer":0,"byteOffset":426732,"byteLength":69468},{"buffer":0,"byteOffset":496200,"byteLength":17367},{"buffer":0,"byteOffset":513568,"byteLength":46312},{"buffer":0,"byteOffset":559880,"byteLength":126936},{"buffer":0,"byteOffset":686816,"byteLength":10788},{"buffer":0,"byteOffset":697604,"byteLength":10788},{"buffer":0,"byteOffset":708392,"byteLength":2697},{"buffer":0,"byteOffset":711092,"byteLength":7192},{"buffer":0,"byteOffset":718284,"byteLength":10788}],"buffers":[{"byteLength":729072,"uri":"broussonetia_01.bin"}],"extras":{"species":"Broussonetia papyrifera","stage":"幼苗","units":"metre","axis":"Y-up; right-handed","origin":"ground at (0,0,0)","version":"2.0","provenance":"Artist-authored geometry with AI-generated albedo and estimated PBR maps, not a botanical scan","closeup":false,"quality":"web","master":"models/broussonetia_01.glb","optimizer":"meshoptimizer 0.24, topology simplification; thin surface boundaries locked"}}