{"asset":{"version":"2.0","generator":"Rinan Botanical Closeup 2.0"},"extensionsUsed":["KHR_materials_ior","KHR_materials_specular"],"scene":0,"scenes":[{"nodes":[0,1]}],"nodes":[{"name":"bark","mesh":0},{"name":"branchlets","mesh":1}],"meshes":[{"name":"bark","primitives":[{"attributes":{"POSITION":0,"NORMAL":1,"COLOR_0":2,"TEXCOORD_0":3},"indices":4,"material":0}]},{"name":"branchlets","primitives":[{"attributes":{"POSITION":5,"NORMAL":6,"COLOR_0":7,"TEXCOORD_0":8},"indices":9,"material":1}]}],"materials":[{"name":"bark","doubleSided":true,"pbrMetallicRoughness":{"baseColorFactor":[1,1,1,1],"metallicFactor":0,"roughnessFactor":1,"baseColorTexture":{"index":0},"metallicRoughnessTexture":{"index":1}},"extensions":{"KHR_materials_ior":{"ior":1.43},"KHR_materials_specular":{"specularFactor":0.3}},"normalTexture":{"index":2,"scale":0.45}},{"name":"branchlets","doubleSided":true,"pbrMetallicRoughness":{"baseColorFactor":[1,1,1,1],"metallicFactor":0,"roughnessFactor":1,"baseColorTexture":{"index":3},"metallicRoughnessTexture":{"index":4}},"extensions":{"KHR_materials_ior":{"ior":1.43},"KHR_materials_specular":{"specularFactor":0.3}},"normalTexture":{"index":5,"scale":0.3}}],"accessors":[{"bufferView":0,"componentType":5126,"count":8958,"type":"VEC3","min":[-2.609689712524414,-0.03214263916015625,-2.764683485031128],"max":[2.8206841945648193,8.10108470916748,2.8455138206481934]},{"bufferView":1,"componentType":5126,"count":8958,"type":"VEC3"},{"bufferView":2,"componentType":5121,"count":8958,"type":"VEC3","normalized":true},{"bufferView":3,"componentType":5126,"count":8958,"type":"VEC2"},{"componentType":5125,"type":"SCALAR","bufferView":4,"count":49500},{"bufferView":5,"componentType":5126,"count":78576,"type":"VEC3","min":[-2.7562003135681152,1.8953683376312256,-2.912968397140503],"max":[2.9150233268737793,7.158088684082031,3.004688262939453]},{"bufferView":6,"componentType":5126,"count":78576,"type":"VEC3"},{"bufferView":7,"componentType":5121,"count":78576,"type":"VEC3","normalized":true},{"bufferView":8,"componentType":5126,"count":78576,"type":"VEC2"},{"componentType":5125,"type":"SCALAR","bufferView":9,"count":321702}],"images":[{"mimeType":"image/jpeg","name":"bark_albedo.jpg","uri":"../textures/bark_albedo.jpg"},{"mimeType":"image/png","name":"bark_orm.png","uri":"../textures/bark_orm.png"},{"mimeType":"image/png","name":"bark_normal.png","uri":"../textures/bark_normal.png"},{"mimeType":"image/png","name":"petiole_albedo.png","uri":"../textures/petiole_albedo.png"},{"mimeType":"image/png","name":"petiole_orm.png","uri":"../textures/petiole_orm.png"},{"mimeType":"image/png","name":"petiole_normal.png","uri":"../textures/petiole_normal.png"}],"textures":[{"source":0,"sampler":0},{"source":1,"sampler":0},{"source":2,"sampler":0},{"source":3,"sampler":0},{"source":4,"sampler":0},{"source":5,"sampler":0}],"samplers":[{"magFilter":9729,"minFilter":9987,"wrapS":10497,"wrapT":10497}],"bufferViews":[{"buffer":0,"byteOffset":0,"byteLength":107496},{"buffer":0,"byteOffset":107496,"byteLength":107496},{"buffer":0,"byteOffset":214992,"byteLength":26874},{"buffer":0,"byteOffset":241868,"byteLength":71664},{"buffer":0,"byteOffset":313532,"byteLength":198000},{"buffer":0,"byteOffset":511532,"byteLength":942912},{"buffer":0,"byteOffset":1454444,"byteLength":942912},{"buffer":0,"byteOffset":2397356,"byteLength":235728},{"buffer":0,"byteOffset":2633084,"byteLength":628608},{"buffer":0,"byteOffset":3261692,"byteLength":1286808}],"buffers":[{"byteLength":4548500,"uri":"casuarina_05.bin"}],"extras":{"species":"Casuarina equisetifolia","stage":"老枝更新","units":"metre","axis":"Y-up; right-handed","origin":"ground at (0,0,0)","version":"2.0","provenance":"Artist-authored geometry with AI-generated albedo and estimated PBR maps, not a botanical scan","closeup":false,"quality":"web","master":"models/casuarina_05.glb","optimizer":"meshoptimizer 0.24, topology simplification; thin surface boundaries locked"}}