{"asset":{"version":"2.0","generator":"Rinan Botanical Closeup 2.0"},"extensionsUsed":["KHR_materials_ior","KHR_materials_specular"],"scene":0,"scenes":[{"nodes":[0,1]}],"nodes":[{"name":"bark","mesh":0},{"name":"branchlets","mesh":1}],"meshes":[{"name":"bark","primitives":[{"attributes":{"POSITION":0,"NORMAL":1,"COLOR_0":2,"TEXCOORD_0":3},"indices":4,"material":0}]},{"name":"branchlets","primitives":[{"attributes":{"POSITION":5,"NORMAL":6,"COLOR_0":7,"TEXCOORD_0":8},"indices":9,"material":1}]}],"materials":[{"name":"bark","doubleSided":true,"pbrMetallicRoughness":{"baseColorFactor":[1,1,1,1],"metallicFactor":0,"roughnessFactor":1,"baseColorTexture":{"index":0},"metallicRoughnessTexture":{"index":1}},"extensions":{"KHR_materials_ior":{"ior":1.43},"KHR_materials_specular":{"specularFactor":0.3}},"normalTexture":{"index":2,"scale":0.45}},{"name":"branchlets","doubleSided":true,"pbrMetallicRoughness":{"baseColorFactor":[1,1,1,1],"metallicFactor":0,"roughnessFactor":1,"baseColorTexture":{"index":3},"metallicRoughnessTexture":{"index":4}},"extensions":{"KHR_materials_ior":{"ior":1.43},"KHR_materials_specular":{"specularFactor":0.3}},"normalTexture":{"index":5,"scale":0.3}}],"accessors":[{"bufferView":0,"componentType":5126,"count":1270,"type":"VEC3","min":[-0.07996391505002975,-0.0009595894371159375,-0.09624259173870087],"max":[0.13188262283802032,0.38003239035606384,0.08266408741474152]},{"bufferView":1,"componentType":5126,"count":1270,"type":"VEC3"},{"bufferView":2,"componentType":5121,"count":1270,"type":"VEC3","normalized":true},{"bufferView":3,"componentType":5126,"count":1270,"type":"VEC2"},{"componentType":5125,"type":"SCALAR","bufferView":4,"count":7002},{"bufferView":5,"componentType":5126,"count":2062,"type":"VEC3","min":[-0.07915016263723373,0.048311568796634674,-0.10764198005199432],"max":[0.13030000030994415,0.34254708886146545,0.08319049328565598]},{"bufferView":6,"componentType":5126,"count":2062,"type":"VEC3"},{"bufferView":7,"componentType":5121,"count":2062,"type":"VEC3","normalized":true},{"bufferView":8,"componentType":5126,"count":2062,"type":"VEC2"},{"componentType":5125,"type":"SCALAR","bufferView":9,"count":8604}],"images":[{"mimeType":"image/jpeg","name":"bark_albedo.jpg","uri":"../textures/bark_albedo.jpg"},{"mimeType":"image/png","name":"bark_orm.png","uri":"../textures/bark_orm.png"},{"mimeType":"image/png","name":"bark_normal.png","uri":"../textures/bark_normal.png"},{"mimeType":"image/png","name":"petiole_albedo.png","uri":"../textures/petiole_albedo.png"},{"mimeType":"image/png","name":"petiole_orm.png","uri":"../textures/petiole_orm.png"},{"mimeType":"image/png","name":"petiole_normal.png","uri":"../textures/petiole_normal.png"}],"textures":[{"source":0,"sampler":0},{"source":1,"sampler":0},{"source":2,"sampler":0},{"source":3,"sampler":0},{"source":4,"sampler":0},{"source":5,"sampler":0}],"samplers":[{"magFilter":9729,"minFilter":9987,"wrapS":10497,"wrapT":10497}],"bufferViews":[{"buffer":0,"byteOffset":0,"byteLength":15240},{"buffer":0,"byteOffset":15240,"byteLength":15240},{"buffer":0,"byteOffset":30480,"byteLength":3810},{"buffer":0,"byteOffset":34292,"byteLength":10160},{"buffer":0,"byteOffset":44452,"byteLength":28008},{"buffer":0,"byteOffset":72460,"byteLength":24744},{"buffer":0,"byteOffset":97204,"byteLength":24744},{"buffer":0,"byteOffset":121948,"byteLength":6186},{"buffer":0,"byteOffset":128136,"byteLength":16496},{"buffer":0,"byteOffset":144632,"byteLength":34416}],"buffers":[{"byteLength":179048,"uri":"casuarina_01.bin"}],"extras":{"species":"Casuarina equisetifolia","stage":"育苗","units":"metre","axis":"Y-up; right-handed","origin":"ground at (0,0,0)","version":"2.0","provenance":"Artist-authored geometry with AI-generated albedo and estimated PBR maps, not a botanical scan","closeup":false,"quality":"web","master":"models/casuarina_01.glb","optimizer":"meshoptimizer 0.24, topology simplification; thin surface boundaries locked"}}