{"asset":{"version":"2.0","generator":"Rinan Botanical Closeup 2.0"},"extensionsUsed":["KHR_materials_ior","KHR_materials_specular"],"scene":0,"scenes":[{"nodes":[0,1]}],"nodes":[{"name":"bark","mesh":0},{"name":"branchlets","mesh":1}],"meshes":[{"name":"bark","primitives":[{"attributes":{"POSITION":0,"NORMAL":1,"COLOR_0":2,"TEXCOORD_0":3},"indices":4,"material":0}]},{"name":"branchlets","primitives":[{"attributes":{"POSITION":5,"NORMAL":6,"COLOR_0":7,"TEXCOORD_0":8},"indices":9,"material":1}]}],"materials":[{"name":"bark","doubleSided":true,"pbrMetallicRoughness":{"baseColorFactor":[1,1,1,1],"metallicFactor":0,"roughnessFactor":1,"baseColorTexture":{"index":0},"metallicRoughnessTexture":{"index":1}},"extensions":{"KHR_materials_ior":{"ior":1.43},"KHR_materials_specular":{"specularFactor":0.3}},"normalTexture":{"index":2,"scale":0.45}},{"name":"branchlets","doubleSided":true,"pbrMetallicRoughness":{"baseColorFactor":[1,1,1,1],"metallicFactor":0,"roughnessFactor":1,"baseColorTexture":{"index":3},"metallicRoughnessTexture":{"index":4}},"extensions":{"KHR_materials_ior":{"ior":1.43},"KHR_materials_specular":{"specularFactor":0.3}},"normalTexture":{"index":5,"scale":0.3}}],"accessors":[{"bufferView":0,"componentType":5126,"count":3503,"type":"VEC3","min":[-0.5077253580093384,-0.008333276957273483,-0.59139484167099],"max":[0.7588905692100525,2.1003379821777344,0.5494541525840759]},{"bufferView":1,"componentType":5126,"count":3503,"type":"VEC3"},{"bufferView":2,"componentType":5121,"count":3503,"type":"VEC3","normalized":true},{"bufferView":3,"componentType":5126,"count":3503,"type":"VEC2"},{"componentType":5125,"type":"SCALAR","bufferView":4,"count":19194},{"bufferView":5,"componentType":5126,"count":30227,"type":"VEC3","min":[-0.523701012134552,0.2169717699289322,-0.6215498447418213],"max":[0.7933803796768188,1.909055233001709,0.6036604642868042]},{"bufferView":6,"componentType":5126,"count":30227,"type":"VEC3"},{"bufferView":7,"componentType":5121,"count":30227,"type":"VEC3","normalized":true},{"bufferView":8,"componentType":5126,"count":30227,"type":"VEC2"},{"componentType":5125,"type":"SCALAR","bufferView":9,"count":125556}],"images":[{"mimeType":"image/jpeg","name":"bark_albedo.jpg","uri":"../textures/bark_albedo.jpg"},{"mimeType":"image/png","name":"bark_orm.png","uri":"../textures/bark_orm.png"},{"mimeType":"image/png","name":"bark_normal.png","uri":"../textures/bark_normal.png"},{"mimeType":"image/png","name":"petiole_albedo.png","uri":"../textures/petiole_albedo.png"},{"mimeType":"image/png","name":"petiole_orm.png","uri":"../textures/petiole_orm.png"},{"mimeType":"image/png","name":"petiole_normal.png","uri":"../textures/petiole_normal.png"}],"textures":[{"source":0,"sampler":0},{"source":1,"sampler":0},{"source":2,"sampler":0},{"source":3,"sampler":0},{"source":4,"sampler":0},{"source":5,"sampler":0}],"samplers":[{"magFilter":9729,"minFilter":9987,"wrapS":10497,"wrapT":10497}],"bufferViews":[{"buffer":0,"byteOffset":0,"byteLength":42036},{"buffer":0,"byteOffset":42036,"byteLength":42036},{"buffer":0,"byteOffset":84072,"byteLength":10509},{"buffer":0,"byteOffset":94584,"byteLength":28024},{"buffer":0,"byteOffset":122608,"byteLength":76776},{"buffer":0,"byteOffset":199384,"byteLength":362724},{"buffer":0,"byteOffset":562108,"byteLength":362724},{"buffer":0,"byteOffset":924832,"byteLength":90681},{"buffer":0,"byteOffset":1015516,"byteLength":241816},{"buffer":0,"byteOffset":1257332,"byteLength":502224}],"buffers":[{"byteLength":1759556,"uri":"casuarina_02.bin"}],"extras":{"species":"Casuarina equisetifolia","stage":"幼樹","units":"metre","axis":"Y-up; right-handed","origin":"ground at (0,0,0)","version":"2.0","provenance":"Artist-authored geometry with AI-generated albedo and estimated PBR maps, not a botanical scan","closeup":false,"quality":"web","master":"models/casuarina_02.glb","optimizer":"meshoptimizer 0.24, topology simplification; thin surface boundaries locked"}}