{"asset":{"version":"2.0","generator":"Rinan Botanical Closeup 2.0"},"extensionsUsed":["KHR_materials_ior","KHR_materials_specular"],"scene":0,"scenes":[{"nodes":[0,1,2,3]}],"nodes":[{"name":"bark","mesh":0},{"name":"branchlets","mesh":1},{"name":"woody-cones","mesh":2},{"name":"cone-scales","mesh":3}],"meshes":[{"name":"bark","primitives":[{"attributes":{"POSITION":0,"NORMAL":1,"COLOR_0":2,"TEXCOORD_0":3},"indices":4,"material":0}]},{"name":"branchlets","primitives":[{"attributes":{"POSITION":5,"NORMAL":6,"COLOR_0":7,"TEXCOORD_0":8},"indices":9,"material":1}]},{"name":"woody-cones","primitives":[{"attributes":{"POSITION":10,"NORMAL":11,"COLOR_0":12,"TEXCOORD_0":13},"indices":14,"material":2}]},{"name":"cone-scales","primitives":[{"attributes":{"POSITION":15,"NORMAL":16,"COLOR_0":17,"TEXCOORD_0":18},"indices":19,"material":3}]}],"materials":[{"name":"bark","doubleSided":true,"pbrMetallicRoughness":{"baseColorFactor":[1,1,1,1],"metallicFactor":0,"roughnessFactor":1,"baseColorTexture":{"index":0},"metallicRoughnessTexture":{"index":1}},"extensions":{"KHR_materials_ior":{"ior":1.43},"KHR_materials_specular":{"specularFactor":0.3}},"normalTexture":{"index":2,"scale":0.45}},{"name":"branchlets","doubleSided":true,"pbrMetallicRoughness":{"baseColorFactor":[1,1,1,1],"metallicFactor":0,"roughnessFactor":1,"baseColorTexture":{"index":3},"metallicRoughnessTexture":{"index":4}},"extensions":{"KHR_materials_ior":{"ior":1.43},"KHR_materials_specular":{"specularFactor":0.3}},"normalTexture":{"index":5,"scale":0.3}},{"name":"woody-cones","doubleSided":true,"pbrMetallicRoughness":{"baseColorFactor":[1,1,1,1],"metallicFactor":0,"roughnessFactor":0.58},"extensions":{"KHR_materials_ior":{"ior":1.43},"KHR_materials_specular":{"specularFactor":0.3}}},{"name":"cone-scales","doubleSided":true,"pbrMetallicRoughness":{"baseColorFactor":[1,1,1,1],"metallicFactor":0,"roughnessFactor":0.58},"extensions":{"KHR_materials_ior":{"ior":1.43},"KHR_materials_specular":{"specularFactor":0.3}}}],"accessors":[{"bufferView":0,"componentType":5126,"count":9830,"type":"VEC3","min":[-2.860399007797241,-0.030952170491218567,-2.694985866546631],"max":[2.9208321571350098,7.801255226135254,2.5335497856140137]},{"bufferView":1,"componentType":5126,"count":9830,"type":"VEC3"},{"bufferView":2,"componentType":5121,"count":9830,"type":"VEC3","normalized":true},{"bufferView":3,"componentType":5126,"count":9830,"type":"VEC2"},{"componentType":5125,"type":"SCALAR","bufferView":4,"count":54258},{"bufferView":5,"componentType":5126,"count":89924,"type":"VEC3","min":[-2.9613616466522217,1.7077707052230835,-2.7279751300811768],"max":[3.1024177074432373,7.474362850189209,2.6576812267303467]},{"bufferView":6,"componentType":5126,"count":89924,"type":"VEC3"},{"bufferView":7,"componentType":5121,"count":89924,"type":"VEC3","normalized":true},{"bufferView":8,"componentType":5126,"count":89924,"type":"VEC2"},{"componentType":5125,"type":"SCALAR","bufferView":9,"count":365388},{"bufferView":10,"componentType":5126,"count":4408,"type":"VEC3","min":[-2.4988858699798584,2.216615915298462,-2.083784341812134],"max":[2.578448534011841,7.37379789352417,2.2386293411254883]},{"bufferView":11,"componentType":5126,"count":4408,"type":"VEC3"},{"bufferView":12,"componentType":5121,"count":4408,"type":"VEC3","normalized":true},{"bufferView":13,"componentType":5126,"count":4408,"type":"VEC2"},{"componentType":5125,"type":"SCALAR","bufferView":14,"count":16932},{"bufferView":15,"componentType":5126,"count":20580,"type":"VEC3","min":[-2.5130741596221924,2.215947389602661,-2.095761775970459],"max":[2.5883281230926514,7.374466419219971,2.2489254474639893]},{"bufferView":16,"componentType":5126,"count":20580,"type":"VEC3"},{"bufferView":17,"componentType":5121,"count":20580,"type":"VEC3","normalized":true},{"bufferView":18,"componentType":5126,"count":20580,"type":"VEC2"},{"componentType":5125,"type":"SCALAR","bufferView":19,"count":61740}],"images":[{"mimeType":"image/jpeg","name":"bark_albedo.jpg","uri":"../textures/bark_albedo.jpg"},{"mimeType":"image/png","name":"bark_orm.png","uri":"../textures/bark_orm.png"},{"mimeType":"image/png","name":"bark_normal.png","uri":"../textures/bark_normal.png"},{"mimeType":"image/png","name":"petiole_albedo.png","uri":"../textures/petiole_albedo.png"},{"mimeType":"image/png","name":"petiole_orm.png","uri":"../textures/petiole_orm.png"},{"mimeType":"image/png","name":"petiole_normal.png","uri":"../textures/petiole_normal.png"}],"textures":[{"source":0,"sampler":0},{"source":1,"sampler":0},{"source":2,"sampler":0},{"source":3,"sampler":0},{"source":4,"sampler":0},{"source":5,"sampler":0}],"samplers":[{"magFilter":9729,"minFilter":9987,"wrapS":10497,"wrapT":10497}],"bufferViews":[{"buffer":0,"byteOffset":0,"byteLength":117960},{"buffer":0,"byteOffset":117960,"byteLength":117960},{"buffer":0,"byteOffset":235920,"byteLength":29490},{"buffer":0,"byteOffset":265412,"byteLength":78640},{"buffer":0,"byteOffset":344052,"byteLength":217032},{"buffer":0,"byteOffset":561084,"byteLength":1079088},{"buffer":0,"byteOffset":1640172,"byteLength":1079088},{"buffer":0,"byteOffset":2719260,"byteLength":269772},{"buffer":0,"byteOffset":2989032,"byteLength":719392},{"buffer":0,"byteOffset":3708424,"byteLength":1461552},{"buffer":0,"byteOffset":5169976,"byteLength":52896},{"buffer":0,"byteOffset":5222872,"byteLength":52896},{"buffer":0,"byteOffset":5275768,"byteLength":13224},{"buffer":0,"byteOffset":5288992,"byteLength":35264},{"buffer":0,"byteOffset":5324256,"byteLength":67728},{"buffer":0,"byteOffset":5391984,"byteLength":246960},{"buffer":0,"byteOffset":5638944,"byteLength":246960},{"buffer":0,"byteOffset":5885904,"byteLength":61740},{"buffer":0,"byteOffset":5947644,"byteLength":164640},{"buffer":0,"byteOffset":6112284,"byteLength":246960}],"buffers":[{"byteLength":6359244,"uri":"casuarina_04.bin"}],"extras":{"species":"Casuarina equisetifolia","stage":"結實","units":"metre","axis":"Y-up; right-handed","origin":"ground at (0,0,0)","version":"2.0","provenance":"Artist-authored geometry with AI-generated albedo and estimated PBR maps, not a botanical scan","closeup":false,"quality":"web","master":"models/casuarina_04.glb","optimizer":"meshoptimizer 0.24, topology simplification; thin surface boundaries locked"}}