{"asset":{"version":"2.0","generator":"Rinan Botanical Closeup 2.0"},"extensionsUsed":["KHR_materials_ior","KHR_materials_specular"],"scene":0,"scenes":[{"nodes":[0,1,2,3,4,5,6]}],"nodes":[{"name":"bark","mesh":0},{"name":"rachis","mesh":1},{"name":"leaf","mesh":2},{"name":"leaf-back","mesh":3},{"name":"leaf-edge","mesh":4},{"name":"stem","mesh":5},{"name":"capsules","mesh":6}],"meshes":[{"name":"bark","primitives":[{"attributes":{"POSITION":0,"NORMAL":1,"COLOR_0":2,"TEXCOORD_0":3},"indices":4,"material":0}]},{"name":"rachis","primitives":[{"attributes":{"POSITION":5,"NORMAL":6,"COLOR_0":7,"TEXCOORD_0":8},"indices":9,"material":1}]},{"name":"leaf","primitives":[{"attributes":{"POSITION":10,"NORMAL":11,"COLOR_0":12,"TEXCOORD_0":13},"indices":14,"material":2}]},{"name":"leaf-back","primitives":[{"attributes":{"POSITION":15,"NORMAL":16,"COLOR_0":17,"TEXCOORD_0":18},"indices":19,"material":3}]},{"name":"leaf-edge","primitives":[{"attributes":{"POSITION":20,"NORMAL":21,"COLOR_0":22,"TEXCOORD_0":23},"indices":24,"material":4}]},{"name":"stem","primitives":[{"attributes":{"POSITION":25,"NORMAL":26,"COLOR_0":27,"TEXCOORD_0":28},"indices":29,"material":5}]},{"name":"capsules","primitives":[{"attributes":{"POSITION":30,"NORMAL":31,"COLOR_0":32,"TEXCOORD_0":33},"indices":34,"material":6}]}],"materials":[{"name":"bark","doubleSided":true,"pbrMetallicRoughness":{"baseColorFactor":[1,1,1,1],"metallicFactor":0,"roughnessFactor":1,"baseColorTexture":{"index":0},"metallicRoughnessTexture":{"index":1}},"extensions":{"KHR_materials_ior":{"ior":1.43},"KHR_materials_specular":{"specularFactor":0.3}},"normalTexture":{"index":2,"scale":0.45}},{"name":"rachis","doubleSided":true,"pbrMetallicRoughness":{"baseColorFactor":[1,1,1,1],"metallicFactor":0,"roughnessFactor":0.58},"extensions":{"KHR_materials_ior":{"ior":1.43},"KHR_materials_specular":{"specularFactor":0.3}}},{"name":"leaf","doubleSided":false,"pbrMetallicRoughness":{"baseColorFactor":[1,1,1,1],"metallicFactor":0,"roughnessFactor":1,"baseColorTexture":{"index":3},"metallicRoughnessTexture":{"index":4}},"extensions":{"KHR_materials_ior":{"ior":1.43},"KHR_materials_specular":{"specularFactor":0.3}},"normalTexture":{"index":5,"scale":0.3},"extras":{"thin_leaf_diffuse_translucency":0.28,"render_note":"Blender scene uses thin-sheet diffuse transmission; portable GLB has front/back PBR materials."}},{"name":"leaf-back","doubleSided":false,"pbrMetallicRoughness":{"baseColorFactor":[1,1,1,1],"metallicFactor":0,"roughnessFactor":1,"baseColorTexture":{"index":6},"metallicRoughnessTexture":{"index":4}},"extensions":{"KHR_materials_ior":{"ior":1.43},"KHR_materials_specular":{"specularFactor":0.3}},"normalTexture":{"index":5,"scale":0.3},"extras":{"thin_leaf_diffuse_translucency":0.28,"render_note":"Blender scene uses thin-sheet diffuse transmission; portable GLB has front/back PBR materials."}},{"name":"leaf-edge","doubleSided":true,"pbrMetallicRoughness":{"baseColorFactor":[1,1,1,1],"metallicFactor":0,"roughnessFactor":0.58},"extensions":{"KHR_materials_ior":{"ior":1.43},"KHR_materials_specular":{"specularFactor":0.3}}},{"name":"stem","doubleSided":true,"pbrMetallicRoughness":{"baseColorFactor":[1,1,1,1],"metallicFactor":0,"roughnessFactor":1,"baseColorTexture":{"index":7},"metallicRoughnessTexture":{"index":8}},"extensions":{"KHR_materials_ior":{"ior":1.43},"KHR_materials_specular":{"specularFactor":0.3}},"normalTexture":{"index":9,"scale":0.3}},{"name":"capsules","doubleSided":true,"pbrMetallicRoughness":{"baseColorFactor":[1,1,1,1],"metallicFactor":0,"roughnessFactor":0.58},"extensions":{"KHR_materials_ior":{"ior":1.43},"KHR_materials_specular":{"specularFactor":0.3}}}],"accessors":[{"bufferView":0,"componentType":5126,"count":3171,"type":"VEC3","min":[-1.706763744354248,-0.007381482981145382,-1.9551550149917603],"max":[1.7880624532699585,3.0210275650024414,1.6473479270935059]},{"bufferView":1,"componentType":5126,"count":3171,"type":"VEC3"},{"bufferView":2,"componentType":5121,"count":3171,"type":"VEC3","normalized":true},{"bufferView":3,"componentType":5126,"count":3171,"type":"VEC2"},{"componentType":5125,"type":"SCALAR","bufferView":4,"count":17814},{"bufferView":5,"componentType":5126,"count":856,"type":"VEC3","min":[-2.066098213195801,1.3682173490524292,-2.4377331733703613],"max":[2.0379741191864014,2.973855972290039,2.0165607929229736]},{"bufferView":6,"componentType":5126,"count":856,"type":"VEC3"},{"bufferView":7,"componentType":5121,"count":856,"type":"VEC3","normalized":true},{"bufferView":8,"componentType":5126,"count":856,"type":"VEC2"},{"componentType":5125,"type":"SCALAR","bufferView":9,"count":3024},{"bufferView":10,"componentType":5126,"count":44800,"type":"VEC3","min":[-2.0596163272857666,1.3901976346969604,-2.425163507461548],"max":[2.1009888648986816,2.925877571105957,1.9619485139846802]},{"bufferView":11,"componentType":5126,"count":44800,"type":"VEC3"},{"bufferView":12,"componentType":5121,"count":44800,"type":"VEC3","normalized":true},{"bufferView":13,"componentType":5126,"count":44800,"type":"VEC2"},{"componentType":5125,"type":"SCALAR","bufferView":14,"count":194880},{"bufferView":15,"componentType":5126,"count":44800,"type":"VEC3","min":[-2.0596365928649902,1.3901077508926392,-2.425178050994873],"max":[2.1009838581085205,2.9257898330688477,1.9619450569152832]},{"bufferView":16,"componentType":5126,"count":44800,"type":"VEC3"},{"bufferView":17,"componentType":5121,"count":44800,"type":"VEC3","normalized":true},{"bufferView":18,"componentType":5126,"count":44800,"type":"VEC2"},{"componentType":5125,"type":"SCALAR","bufferView":19,"count":194880},{"bufferView":20,"componentType":5126,"count":14336,"type":"VEC3","min":[-2.0596365928649902,1.3901077508926392,-2.425178050994873],"max":[2.1009888648986816,2.925877571105957,1.9619485139846802]},{"bufferView":21,"componentType":5126,"count":14336,"type":"VEC3"},{"bufferView":22,"componentType":5121,"count":14336,"type":"VEC3","normalized":true},{"bufferView":23,"componentType":5126,"count":14336,"type":"VEC2"},{"componentType":5125,"type":"SCALAR","bufferView":24,"count":43008},{"bufferView":25,"componentType":5126,"count":8161,"type":"VEC3","min":[-1.8531368970870972,1.476899266242981,-2.0750021934509277],"max":[1.9156690835952759,3.36616849899292,1.7632348537445068]},{"bufferView":26,"componentType":5126,"count":8161,"type":"VEC3"},{"bufferView":27,"componentType":5121,"count":8161,"type":"VEC3","normalized":true},{"bufferView":28,"componentType":5126,"count":8161,"type":"VEC2"},{"componentType":5125,"type":"SCALAR","bufferView":29,"count":41040},{"bufferView":30,"componentType":5126,"count":74810,"type":"VEC3","min":[-1.80271315574646,1.5032252073287964,-2.0353102684020996],"max":[1.8845304250717163,3.3254995346069336,1.7350090742111206]},{"bufferView":31,"componentType":5126,"count":74810,"type":"VEC3"},{"bufferView":32,"componentType":5121,"count":74810,"type":"VEC3","normalized":true},{"bufferView":33,"componentType":5126,"count":74810,"type":"VEC2"},{"componentType":5125,"type":"SCALAR","bufferView":34,"count":265416}],"images":[{"mimeType":"image/jpeg","name":"bark_albedo.jpg","uri":"../textures/bark_albedo.jpg"},{"mimeType":"image/png","name":"bark_orm.png","uri":"../textures/bark_orm.png"},{"mimeType":"image/png","name":"bark_normal.png","uri":"../textures/bark_normal.png"},{"mimeType":"image/jpeg","name":"koelreuteria_albedo.jpg","uri":"../textures/koelreuteria_albedo.jpg"},{"mimeType":"image/png","name":"koelreuteria_orm.png","uri":"../textures/koelreuteria_orm.png"},{"mimeType":"image/png","name":"koelreuteria_normal.png","uri":"../textures/koelreuteria_normal.png"},{"mimeType":"image/jpeg","name":"koelreuteria_back.jpg","uri":"../textures/koelreuteria_back.jpg"},{"mimeType":"image/png","name":"petiole_albedo.png","uri":"../textures/petiole_albedo.png"},{"mimeType":"image/png","name":"petiole_orm.png","uri":"../textures/petiole_orm.png"},{"mimeType":"image/png","name":"petiole_normal.png","uri":"../textures/petiole_normal.png"}],"textures":[{"source":0,"sampler":0},{"source":1,"sampler":0},{"source":2,"sampler":0},{"source":3,"sampler":0},{"source":4,"sampler":0},{"source":5,"sampler":0},{"source":6,"sampler":0},{"source":7,"sampler":0},{"source":8,"sampler":0},{"source":9,"sampler":0}],"samplers":[{"magFilter":9729,"minFilter":9987,"wrapS":10497,"wrapT":10497}],"bufferViews":[{"buffer":0,"byteOffset":0,"byteLength":38052},{"buffer":0,"byteOffset":38052,"byteLength":38052},{"buffer":0,"byteOffset":76104,"byteLength":9513},{"buffer":0,"byteOffset":85620,"byteLength":25368},{"buffer":0,"byteOffset":110988,"byteLength":71256},{"buffer":0,"byteOffset":182244,"byteLength":10272},{"buffer":0,"byteOffset":192516,"byteLength":10272},{"buffer":0,"byteOffset":202788,"byteLength":2568},{"buffer":0,"byteOffset":205356,"byteLength":6848},{"buffer":0,"byteOffset":212204,"byteLength":12096},{"buffer":0,"byteOffset":224300,"byteLength":537600},{"buffer":0,"byteOffset":761900,"byteLength":537600},{"buffer":0,"byteOffset":1299500,"byteLength":134400},{"buffer":0,"byteOffset":1433900,"byteLength":358400},{"buffer":0,"byteOffset":1792300,"byteLength":779520},{"buffer":0,"byteOffset":2571820,"byteLength":537600},{"buffer":0,"byteOffset":3109420,"byteLength":537600},{"buffer":0,"byteOffset":3647020,"byteLength":134400},{"buffer":0,"byteOffset":3781420,"byteLength":358400},{"buffer":0,"byteOffset":4139820,"byteLength":779520},{"buffer":0,"byteOffset":4919340,"byteLength":172032},{"buffer":0,"byteOffset":5091372,"byteLength":172032},{"buffer":0,"byteOffset":5263404,"byteLength":43008},{"buffer":0,"byteOffset":5306412,"byteLength":114688},{"buffer":0,"byteOffset":5421100,"byteLength":172032},{"buffer":0,"byteOffset":5593132,"byteLength":97932},{"buffer":0,"byteOffset":5691064,"byteLength":97932},{"buffer":0,"byteOffset":5788996,"byteLength":24483},{"buffer":0,"byteOffset":5813480,"byteLength":65288},{"buffer":0,"byteOffset":5878768,"byteLength":164160},{"buffer":0,"byteOffset":6042928,"byteLength":897720},{"buffer":0,"byteOffset":6940648,"byteLength":897720},{"buffer":0,"byteOffset":7838368,"byteLength":224430},{"buffer":0,"byteOffset":8062800,"byteLength":598480},{"buffer":0,"byteOffset":8661280,"byteLength":1061664}],"buffers":[{"byteLength":9722944,"uri":"koelreuteria_05.bin"}],"extras":{"species":"Koelreuteria elegans subsp. formosana","stage":"落葉期","units":"metre","axis":"Y-up; right-handed","origin":"ground at (0,0,0)","version":"2.0","provenance":"Artist-authored geometry with AI-generated albedo and estimated PBR maps, not a botanical scan","closeup":false,"quality":"web","master":"models/koelreuteria_05.glb","optimizer":"meshoptimizer 0.24, topology simplification; thin surface boundaries locked"}}