{"asset":{"version":"2.0","generator":"Rinan Botanical Closeup 2.0"},"extensionsUsed":["KHR_materials_ior","KHR_materials_specular"],"scene":0,"scenes":[{"nodes":[0,1,2,3,4,5,6]}],"nodes":[{"name":"bark","mesh":0},{"name":"rachis","mesh":1},{"name":"leaf","mesh":2},{"name":"leaf-back","mesh":3},{"name":"leaf-edge","mesh":4},{"name":"stem","mesh":5},{"name":"flowers","mesh":6}],"meshes":[{"name":"bark","primitives":[{"attributes":{"POSITION":0,"NORMAL":1,"COLOR_0":2,"TEXCOORD_0":3},"indices":4,"material":0}]},{"name":"rachis","primitives":[{"attributes":{"POSITION":5,"NORMAL":6,"COLOR_0":7,"TEXCOORD_0":8},"indices":9,"material":1}]},{"name":"leaf","primitives":[{"attributes":{"POSITION":10,"NORMAL":11,"COLOR_0":12,"TEXCOORD_0":13},"indices":14,"material":2}]},{"name":"leaf-back","primitives":[{"attributes":{"POSITION":15,"NORMAL":16,"COLOR_0":17,"TEXCOORD_0":18},"indices":19,"material":3}]},{"name":"leaf-edge","primitives":[{"attributes":{"POSITION":20,"NORMAL":21,"COLOR_0":22,"TEXCOORD_0":23},"indices":24,"material":4}]},{"name":"stem","primitives":[{"attributes":{"POSITION":25,"NORMAL":26,"COLOR_0":27,"TEXCOORD_0":28},"indices":29,"material":5}]},{"name":"flowers","primitives":[{"attributes":{"POSITION":30,"NORMAL":31,"COLOR_0":32,"TEXCOORD_0":33},"indices":34,"material":6}]}],"materials":[{"name":"bark","doubleSided":true,"pbrMetallicRoughness":{"baseColorFactor":[1,1,1,1],"metallicFactor":0,"roughnessFactor":1,"baseColorTexture":{"index":0},"metallicRoughnessTexture":{"index":1}},"extensions":{"KHR_materials_ior":{"ior":1.43},"KHR_materials_specular":{"specularFactor":0.3}},"normalTexture":{"index":2,"scale":0.45}},{"name":"rachis","doubleSided":true,"pbrMetallicRoughness":{"baseColorFactor":[1,1,1,1],"metallicFactor":0,"roughnessFactor":0.58},"extensions":{"KHR_materials_ior":{"ior":1.43},"KHR_materials_specular":{"specularFactor":0.3}}},{"name":"leaf","doubleSided":false,"pbrMetallicRoughness":{"baseColorFactor":[1,1,1,1],"metallicFactor":0,"roughnessFactor":1,"baseColorTexture":{"index":3},"metallicRoughnessTexture":{"index":4}},"extensions":{"KHR_materials_ior":{"ior":1.43},"KHR_materials_specular":{"specularFactor":0.3}},"normalTexture":{"index":5,"scale":0.3},"extras":{"thin_leaf_diffuse_translucency":0.28,"render_note":"Blender scene uses thin-sheet diffuse transmission; portable GLB has front/back PBR materials."}},{"name":"leaf-back","doubleSided":false,"pbrMetallicRoughness":{"baseColorFactor":[1,1,1,1],"metallicFactor":0,"roughnessFactor":1,"baseColorTexture":{"index":6},"metallicRoughnessTexture":{"index":4}},"extensions":{"KHR_materials_ior":{"ior":1.43},"KHR_materials_specular":{"specularFactor":0.3}},"normalTexture":{"index":5,"scale":0.3},"extras":{"thin_leaf_diffuse_translucency":0.28,"render_note":"Blender scene uses thin-sheet diffuse transmission; portable GLB has front/back PBR materials."}},{"name":"leaf-edge","doubleSided":true,"pbrMetallicRoughness":{"baseColorFactor":[1,1,1,1],"metallicFactor":0,"roughnessFactor":0.58},"extensions":{"KHR_materials_ior":{"ior":1.43},"KHR_materials_specular":{"specularFactor":0.3}}},{"name":"stem","doubleSided":true,"pbrMetallicRoughness":{"baseColorFactor":[1,1,1,1],"metallicFactor":0,"roughnessFactor":1,"baseColorTexture":{"index":7},"metallicRoughnessTexture":{"index":8}},"extensions":{"KHR_materials_ior":{"ior":1.43},"KHR_materials_specular":{"specularFactor":0.3}},"normalTexture":{"index":9,"scale":0.3}},{"name":"flowers","doubleSided":true,"pbrMetallicRoughness":{"baseColorFactor":[1,1,1,1],"metallicFactor":0,"roughnessFactor":0.58},"extensions":{"KHR_materials_ior":{"ior":1.43},"KHR_materials_specular":{"specularFactor":0.3}}}],"accessors":[{"bufferView":0,"componentType":5126,"count":3170,"type":"VEC3","min":[-1.5417826175689697,-0.007381482981145382,-1.5123518705368042],"max":[2.0159542560577393,3.0280513763427734,1.836219072341919]},{"bufferView":1,"componentType":5126,"count":3170,"type":"VEC3"},{"bufferView":2,"componentType":5121,"count":3170,"type":"VEC3","normalized":true},{"bufferView":3,"componentType":5126,"count":3170,"type":"VEC2"},{"componentType":5125,"type":"SCALAR","bufferView":4,"count":17808},{"bufferView":5,"componentType":5126,"count":5147,"type":"VEC3","min":[-1.9974064826965332,1.4419654607772827,-2.0755372047424316],"max":[2.5316762924194336,3.1201634407043457,2.337744951248169]},{"bufferView":6,"componentType":5126,"count":5147,"type":"VEC3"},{"bufferView":7,"componentType":5121,"count":5147,"type":"VEC3","normalized":true},{"bufferView":8,"componentType":5126,"count":5147,"type":"VEC2"},{"componentType":5125,"type":"SCALAR","bufferView":9,"count":18192},{"bufferView":10,"componentType":5126,"count":268800,"type":"VEC3","min":[-2.0523571968078613,1.4593665599822998,-2.070963144302368],"max":[2.513028383255005,3.1215648651123047,2.406707525253296]},{"bufferView":11,"componentType":5126,"count":268800,"type":"VEC3"},{"bufferView":12,"componentType":5121,"count":268800,"type":"VEC3","normalized":true},{"bufferView":13,"componentType":5126,"count":268800,"type":"VEC2"},{"componentType":5125,"type":"SCALAR","bufferView":14,"count":1169280},{"bufferView":15,"componentType":5126,"count":268800,"type":"VEC3","min":[-2.0523569583892822,1.4592766761779785,-2.0709590911865234],"max":[2.5130248069763184,3.1214771270751953,2.4067018032073975]},{"bufferView":16,"componentType":5126,"count":268800,"type":"VEC3"},{"bufferView":17,"componentType":5121,"count":268800,"type":"VEC3","normalized":true},{"bufferView":18,"componentType":5126,"count":268800,"type":"VEC2"},{"componentType":5125,"type":"SCALAR","bufferView":19,"count":1169280},{"bufferView":20,"componentType":5126,"count":86016,"type":"VEC3","min":[-2.0523571968078613,1.4592766761779785,-2.070963144302368],"max":[2.513028383255005,3.1215648651123047,2.406707525253296]},{"bufferView":21,"componentType":5126,"count":86016,"type":"VEC3"},{"bufferView":22,"componentType":5121,"count":86016,"type":"VEC3","normalized":true},{"bufferView":23,"componentType":5126,"count":86016,"type":"VEC2"},{"componentType":5125,"type":"SCALAR","bufferView":24,"count":258048},{"bufferView":25,"componentType":5126,"count":8074,"type":"VEC3","min":[-1.6655491590499878,1.5142107009887695,-1.6300467252731323],"max":[2.1431543827056885,3.379331111907959,1.951478123664856]},{"bufferView":26,"componentType":5126,"count":8074,"type":"VEC3"},{"bufferView":27,"componentType":5121,"count":8074,"type":"VEC3","normalized":true},{"bufferView":28,"componentType":5126,"count":8074,"type":"VEC2"},{"componentType":5125,"type":"SCALAR","bufferView":29,"count":40884},{"bufferView":30,"componentType":5126,"count":148288,"type":"VEC3","min":[-1.6893460750579834,1.5860470533370972,-1.678789496421814],"max":[2.142603635787964,3.384262800216675,1.9599329233169556]},{"bufferView":31,"componentType":5126,"count":148288,"type":"VEC3"},{"bufferView":32,"componentType":5121,"count":148288,"type":"VEC3","normalized":true},{"bufferView":33,"componentType":5126,"count":148288,"type":"VEC2"},{"componentType":5125,"type":"SCALAR","bufferView":34,"count":444864}],"images":[{"mimeType":"image/jpeg","name":"bark_albedo.jpg","uri":"../textures/bark_albedo.jpg"},{"mimeType":"image/png","name":"bark_orm.png","uri":"../textures/bark_orm.png"},{"mimeType":"image/png","name":"bark_normal.png","uri":"../textures/bark_normal.png"},{"mimeType":"image/jpeg","name":"koelreuteria_albedo.jpg","uri":"../textures/koelreuteria_albedo.jpg"},{"mimeType":"image/png","name":"koelreuteria_orm.png","uri":"../textures/koelreuteria_orm.png"},{"mimeType":"image/png","name":"koelreuteria_normal.png","uri":"../textures/koelreuteria_normal.png"},{"mimeType":"image/jpeg","name":"koelreuteria_back.jpg","uri":"../textures/koelreuteria_back.jpg"},{"mimeType":"image/png","name":"petiole_albedo.png","uri":"../textures/petiole_albedo.png"},{"mimeType":"image/png","name":"petiole_orm.png","uri":"../textures/petiole_orm.png"},{"mimeType":"image/png","name":"petiole_normal.png","uri":"../textures/petiole_normal.png"}],"textures":[{"source":0,"sampler":0},{"source":1,"sampler":0},{"source":2,"sampler":0},{"source":3,"sampler":0},{"source":4,"sampler":0},{"source":5,"sampler":0},{"source":6,"sampler":0},{"source":7,"sampler":0},{"source":8,"sampler":0},{"source":9,"sampler":0}],"samplers":[{"magFilter":9729,"minFilter":9987,"wrapS":10497,"wrapT":10497}],"bufferViews":[{"buffer":0,"byteOffset":0,"byteLength":38040},{"buffer":0,"byteOffset":38040,"byteLength":38040},{"buffer":0,"byteOffset":76080,"byteLength":9510},{"buffer":0,"byteOffset":85592,"byteLength":25360},{"buffer":0,"byteOffset":110952,"byteLength":71232},{"buffer":0,"byteOffset":182184,"byteLength":61764},{"buffer":0,"byteOffset":243948,"byteLength":61764},{"buffer":0,"byteOffset":305712,"byteLength":15441},{"buffer":0,"byteOffset":321156,"byteLength":41176},{"buffer":0,"byteOffset":362332,"byteLength":72768},{"buffer":0,"byteOffset":435100,"byteLength":3225600},{"buffer":0,"byteOffset":3660700,"byteLength":3225600},{"buffer":0,"byteOffset":6886300,"byteLength":806400},{"buffer":0,"byteOffset":7692700,"byteLength":2150400},{"buffer":0,"byteOffset":9843100,"byteLength":4677120},{"buffer":0,"byteOffset":14520220,"byteLength":3225600},{"buffer":0,"byteOffset":17745820,"byteLength":3225600},{"buffer":0,"byteOffset":20971420,"byteLength":806400},{"buffer":0,"byteOffset":21777820,"byteLength":2150400},{"buffer":0,"byteOffset":23928220,"byteLength":4677120},{"buffer":0,"byteOffset":28605340,"byteLength":1032192},{"buffer":0,"byteOffset":29637532,"byteLength":1032192},{"buffer":0,"byteOffset":30669724,"byteLength":258048},{"buffer":0,"byteOffset":30927772,"byteLength":688128},{"buffer":0,"byteOffset":31615900,"byteLength":1032192},{"buffer":0,"byteOffset":32648092,"byteLength":96888},{"buffer":0,"byteOffset":32744980,"byteLength":96888},{"buffer":0,"byteOffset":32841868,"byteLength":24222},{"buffer":0,"byteOffset":32866092,"byteLength":64592},{"buffer":0,"byteOffset":32930684,"byteLength":163536},{"buffer":0,"byteOffset":33094220,"byteLength":1779456},{"buffer":0,"byteOffset":34873676,"byteLength":1779456},{"buffer":0,"byteOffset":36653132,"byteLength":444864},{"buffer":0,"byteOffset":37097996,"byteLength":1186304},{"buffer":0,"byteOffset":38284300,"byteLength":1779456}],"buffers":[{"byteLength":40063756,"uri":"koelreuteria_03.bin"}],"extras":{"species":"Koelreuteria elegans subsp. formosana","stage":"黃花期","units":"metre","axis":"Y-up; right-handed","origin":"ground at (0,0,0)","version":"2.0","provenance":"Artist-authored geometry with AI-generated albedo and estimated PBR maps, not a botanical scan","closeup":false,"quality":"web","master":"models/koelreuteria_03.glb","optimizer":"meshoptimizer 0.24, topology simplification; thin surface boundaries locked"}}