{"asset":{"version":"2.0","generator":"Rinan Botanical Closeup 2.0"},"extensionsUsed":["KHR_materials_ior","KHR_materials_specular"],"scene":0,"scenes":[{"nodes":[0,1,2,3,4]}],"nodes":[{"name":"bark","mesh":0},{"name":"rachis","mesh":1},{"name":"leaf","mesh":2},{"name":"leaf-back","mesh":3},{"name":"leaf-edge","mesh":4}],"meshes":[{"name":"bark","primitives":[{"attributes":{"POSITION":0,"NORMAL":1,"COLOR_0":2,"TEXCOORD_0":3},"indices":4,"material":0}]},{"name":"rachis","primitives":[{"attributes":{"POSITION":5,"NORMAL":6,"COLOR_0":7,"TEXCOORD_0":8},"indices":9,"material":1}]},{"name":"leaf","primitives":[{"attributes":{"POSITION":10,"NORMAL":11,"COLOR_0":12,"TEXCOORD_0":13},"indices":14,"material":2}]},{"name":"leaf-back","primitives":[{"attributes":{"POSITION":15,"NORMAL":16,"COLOR_0":17,"TEXCOORD_0":18},"indices":19,"material":3}]},{"name":"leaf-edge","primitives":[{"attributes":{"POSITION":20,"NORMAL":21,"COLOR_0":22,"TEXCOORD_0":23},"indices":24,"material":4}]}],"materials":[{"name":"bark","doubleSided":true,"pbrMetallicRoughness":{"baseColorFactor":[1,1,1,1],"metallicFactor":0,"roughnessFactor":1,"baseColorTexture":{"index":0},"metallicRoughnessTexture":{"index":1}},"extensions":{"KHR_materials_ior":{"ior":1.43},"KHR_materials_specular":{"specularFactor":0.3}},"normalTexture":{"index":2,"scale":0.45}},{"name":"rachis","doubleSided":true,"pbrMetallicRoughness":{"baseColorFactor":[1,1,1,1],"metallicFactor":0,"roughnessFactor":0.58},"extensions":{"KHR_materials_ior":{"ior":1.43},"KHR_materials_specular":{"specularFactor":0.3}}},{"name":"leaf","doubleSided":false,"pbrMetallicRoughness":{"baseColorFactor":[1,1,1,1],"metallicFactor":0,"roughnessFactor":1,"baseColorTexture":{"index":3},"metallicRoughnessTexture":{"index":4}},"extensions":{"KHR_materials_ior":{"ior":1.43},"KHR_materials_specular":{"specularFactor":0.3}},"normalTexture":{"index":5,"scale":0.3},"extras":{"thin_leaf_diffuse_translucency":0.28,"render_note":"Blender scene uses thin-sheet diffuse transmission; portable GLB has front/back PBR materials."}},{"name":"leaf-back","doubleSided":false,"pbrMetallicRoughness":{"baseColorFactor":[1,1,1,1],"metallicFactor":0,"roughnessFactor":1,"baseColorTexture":{"index":6},"metallicRoughnessTexture":{"index":4}},"extensions":{"KHR_materials_ior":{"ior":1.43},"KHR_materials_specular":{"specularFactor":0.3}},"normalTexture":{"index":5,"scale":0.3},"extras":{"thin_leaf_diffuse_translucency":0.28,"render_note":"Blender scene uses thin-sheet diffuse transmission; portable GLB has front/back PBR materials."}},{"name":"leaf-edge","doubleSided":true,"pbrMetallicRoughness":{"baseColorFactor":[1,1,1,1],"metallicFactor":0,"roughnessFactor":0.58},"extensions":{"KHR_materials_ior":{"ior":1.43},"KHR_materials_specular":{"specularFactor":0.3}}}],"accessors":[{"bufferView":0,"componentType":5126,"count":1821,"type":"VEC3","min":[-0.693619966506958,-0.003690741490572691,-1.0006080865859985],"max":[0.8978956341743469,1.4164175987243652,0.7570368647575378]},{"bufferView":1,"componentType":5126,"count":1821,"type":"VEC3"},{"bufferView":2,"componentType":5121,"count":1821,"type":"VEC3","normalized":true},{"bufferView":3,"componentType":5126,"count":1821,"type":"VEC2"},{"componentType":5125,"type":"SCALAR","bufferView":4,"count":10074},{"bufferView":5,"componentType":5126,"count":3603,"type":"VEC3","min":[-0.9771362543106079,0.6811935901641846,-1.2181583642959595],"max":[1.2452858686447144,1.4905272722244263,1.01712167263031]},{"bufferView":6,"componentType":5126,"count":3603,"type":"VEC3"},{"bufferView":7,"componentType":5121,"count":3603,"type":"VEC3","normalized":true},{"bufferView":8,"componentType":5126,"count":3603,"type":"VEC2"},{"componentType":5125,"type":"SCALAR","bufferView":9,"count":12738},{"bufferView":10,"componentType":5126,"count":188160,"type":"VEC3","min":[-0.9910062551498413,0.6859226822853088,-1.2187223434448242],"max":[1.238189458847046,1.4568452835083008,1.0592999458312988]},{"bufferView":11,"componentType":5126,"count":188160,"type":"VEC3"},{"bufferView":12,"componentType":5121,"count":188160,"type":"VEC3","normalized":true},{"bufferView":13,"componentType":5126,"count":188160,"type":"VEC2"},{"componentType":5125,"type":"SCALAR","bufferView":14,"count":818496},{"bufferView":15,"componentType":5126,"count":188160,"type":"VEC3","min":[-0.9909993410110474,0.6858328580856323,-1.218716025352478],"max":[1.238181710243225,1.4567559957504272,1.0592910051345825]},{"bufferView":16,"componentType":5126,"count":188160,"type":"VEC3"},{"bufferView":17,"componentType":5121,"count":188160,"type":"VEC3","normalized":true},{"bufferView":18,"componentType":5126,"count":188160,"type":"VEC2"},{"componentType":5125,"type":"SCALAR","bufferView":19,"count":818496},{"bufferView":20,"componentType":5126,"count":60211,"type":"VEC3","min":[-0.9910062551498413,0.6858328580856323,-1.2187223434448242],"max":[1.238189458847046,1.4568452835083008,1.0592999458312988]},{"bufferView":21,"componentType":5126,"count":60211,"type":"VEC3"},{"bufferView":22,"componentType":5121,"count":60211,"type":"VEC3","normalized":true},{"bufferView":23,"componentType":5126,"count":60211,"type":"VEC2"},{"componentType":5125,"type":"SCALAR","bufferView":24,"count":180633}],"images":[{"mimeType":"image/jpeg","name":"bark_albedo.jpg","uri":"../textures/bark_albedo.jpg"},{"mimeType":"image/png","name":"bark_orm.png","uri":"../textures/bark_orm.png"},{"mimeType":"image/png","name":"bark_normal.png","uri":"../textures/bark_normal.png"},{"mimeType":"image/jpeg","name":"koelreuteria_albedo.jpg","uri":"../textures/koelreuteria_albedo.jpg"},{"mimeType":"image/png","name":"koelreuteria_orm.png","uri":"../textures/koelreuteria_orm.png"},{"mimeType":"image/png","name":"koelreuteria_normal.png","uri":"../textures/koelreuteria_normal.png"},{"mimeType":"image/jpeg","name":"koelreuteria_back.jpg","uri":"../textures/koelreuteria_back.jpg"}],"textures":[{"source":0,"sampler":0},{"source":1,"sampler":0},{"source":2,"sampler":0},{"source":3,"sampler":0},{"source":4,"sampler":0},{"source":5,"sampler":0},{"source":6,"sampler":0}],"samplers":[{"magFilter":9729,"minFilter":9987,"wrapS":10497,"wrapT":10497}],"bufferViews":[{"buffer":0,"byteOffset":0,"byteLength":21852},{"buffer":0,"byteOffset":21852,"byteLength":21852},{"buffer":0,"byteOffset":43704,"byteLength":5463},{"buffer":0,"byteOffset":49168,"byteLength":14568},{"buffer":0,"byteOffset":63736,"byteLength":40296},{"buffer":0,"byteOffset":104032,"byteLength":43236},{"buffer":0,"byteOffset":147268,"byteLength":43236},{"buffer":0,"byteOffset":190504,"byteLength":10809},{"buffer":0,"byteOffset":201316,"byteLength":28824},{"buffer":0,"byteOffset":230140,"byteLength":50952},{"buffer":0,"byteOffset":281092,"byteLength":2257920},{"buffer":0,"byteOffset":2539012,"byteLength":2257920},{"buffer":0,"byteOffset":4796932,"byteLength":564480},{"buffer":0,"byteOffset":5361412,"byteLength":1505280},{"buffer":0,"byteOffset":6866692,"byteLength":3273984},{"buffer":0,"byteOffset":10140676,"byteLength":2257920},{"buffer":0,"byteOffset":12398596,"byteLength":2257920},{"buffer":0,"byteOffset":14656516,"byteLength":564480},{"buffer":0,"byteOffset":15220996,"byteLength":1505280},{"buffer":0,"byteOffset":16726276,"byteLength":3273984},{"buffer":0,"byteOffset":20000260,"byteLength":722532},{"buffer":0,"byteOffset":20722792,"byteLength":722532},{"buffer":0,"byteOffset":21445324,"byteLength":180633},{"buffer":0,"byteOffset":21625960,"byteLength":481688},{"buffer":0,"byteOffset":22107648,"byteLength":722532}],"buffers":[{"byteLength":22830180,"uri":"koelreuteria_02.bin"}],"extras":{"species":"Koelreuteria elegans subsp. formosana","stage":"展葉幼樹","units":"metre","axis":"Y-up; right-handed","origin":"ground at (0,0,0)","version":"2.0","provenance":"Artist-authored geometry with AI-generated albedo and estimated PBR maps, not a botanical scan","closeup":false,"quality":"web","master":"models/koelreuteria_02.glb","optimizer":"meshoptimizer 0.24, topology simplification; thin surface boundaries locked"}}