{"asset":{"version":"2.0","generator":"Rinan Botanical Closeup 2.0"},"extensionsUsed":["KHR_materials_ior","KHR_materials_specular"],"scene":0,"scenes":[{"nodes":[0,1,2,3,4]}],"nodes":[{"name":"bark","mesh":0},{"name":"rachis","mesh":1},{"name":"leaf","mesh":2},{"name":"leaf-back","mesh":3},{"name":"leaf-edge","mesh":4}],"meshes":[{"name":"bark","primitives":[{"attributes":{"POSITION":0,"NORMAL":1,"COLOR_0":2,"TEXCOORD_0":3},"indices":4,"material":0}]},{"name":"rachis","primitives":[{"attributes":{"POSITION":5,"NORMAL":6,"COLOR_0":7,"TEXCOORD_0":8},"indices":9,"material":1}]},{"name":"leaf","primitives":[{"attributes":{"POSITION":10,"NORMAL":11,"COLOR_0":12,"TEXCOORD_0":13},"indices":14,"material":2}]},{"name":"leaf-back","primitives":[{"attributes":{"POSITION":15,"NORMAL":16,"COLOR_0":17,"TEXCOORD_0":18},"indices":19,"material":3}]},{"name":"leaf-edge","primitives":[{"attributes":{"POSITION":20,"NORMAL":21,"COLOR_0":22,"TEXCOORD_0":23},"indices":24,"material":4}]}],"materials":[{"name":"bark","doubleSided":true,"pbrMetallicRoughness":{"baseColorFactor":[1,1,1,1],"metallicFactor":0,"roughnessFactor":1,"baseColorTexture":{"index":0},"metallicRoughnessTexture":{"index":1}},"extensions":{"KHR_materials_ior":{"ior":1.43},"KHR_materials_specular":{"specularFactor":0.3}},"normalTexture":{"index":2,"scale":0.45}},{"name":"rachis","doubleSided":true,"pbrMetallicRoughness":{"baseColorFactor":[1,1,1,1],"metallicFactor":0,"roughnessFactor":0.58},"extensions":{"KHR_materials_ior":{"ior":1.43},"KHR_materials_specular":{"specularFactor":0.3}}},{"name":"leaf","doubleSided":false,"pbrMetallicRoughness":{"baseColorFactor":[1,1,1,1],"metallicFactor":0,"roughnessFactor":1,"baseColorTexture":{"index":3},"metallicRoughnessTexture":{"index":4}},"extensions":{"KHR_materials_ior":{"ior":1.43},"KHR_materials_specular":{"specularFactor":0.3}},"normalTexture":{"index":5,"scale":0.3},"extras":{"thin_leaf_diffuse_translucency":0.28,"render_note":"Blender scene uses thin-sheet diffuse transmission; portable GLB has front/back PBR materials."}},{"name":"leaf-back","doubleSided":false,"pbrMetallicRoughness":{"baseColorFactor":[1,1,1,1],"metallicFactor":0,"roughnessFactor":1,"baseColorTexture":{"index":6},"metallicRoughnessTexture":{"index":4}},"extensions":{"KHR_materials_ior":{"ior":1.43},"KHR_materials_specular":{"specularFactor":0.3}},"normalTexture":{"index":5,"scale":0.3},"extras":{"thin_leaf_diffuse_translucency":0.28,"render_note":"Blender scene uses thin-sheet diffuse transmission; portable GLB has front/back PBR materials."}},{"name":"leaf-edge","doubleSided":true,"pbrMetallicRoughness":{"baseColorFactor":[1,1,1,1],"metallicFactor":0,"roughnessFactor":0.58},"extensions":{"KHR_materials_ior":{"ior":1.43},"KHR_materials_specular":{"specularFactor":0.3}}}],"accessors":[{"bufferView":0,"componentType":5126,"count":194,"type":"VEC3","min":[-0.09975627064704895,-0.000738148286473006,-0.13180583715438843],"max":[0.13383975625038147,0.2879263460636139,0.1072007492184639]},{"bufferView":1,"componentType":5126,"count":194,"type":"VEC3"},{"bufferView":2,"componentType":5121,"count":194,"type":"VEC3","normalized":true},{"bufferView":3,"componentType":5126,"count":194,"type":"VEC2"},{"componentType":5125,"type":"SCALAR","bufferView":4,"count":1104},{"bufferView":5,"componentType":5126,"count":326,"type":"VEC3","min":[-0.1401709020137787,0.09208032488822937,-0.25796565413475037],"max":[0.2231956124305725,0.34163805842399597,0.2324802428483963]},{"bufferView":6,"componentType":5126,"count":326,"type":"VEC3"},{"bufferView":7,"componentType":5121,"count":326,"type":"VEC3","normalized":true},{"bufferView":8,"componentType":5126,"count":326,"type":"VEC2"},{"componentType":5125,"type":"SCALAR","bufferView":9,"count":1212},{"bufferView":10,"componentType":5126,"count":17920,"type":"VEC3","min":[-0.15590126812458038,0.08717387914657593,-0.2501486837863922],"max":[0.24062253534793854,0.32135453820228577,0.21424441039562225]},{"bufferView":11,"componentType":5126,"count":17920,"type":"VEC3"},{"bufferView":12,"componentType":5121,"count":17920,"type":"VEC3","normalized":true},{"bufferView":13,"componentType":5126,"count":17920,"type":"VEC2"},{"componentType":5125,"type":"SCALAR","bufferView":14,"count":77952},{"bufferView":15,"componentType":5126,"count":17920,"type":"VEC3","min":[-0.15588021278381348,0.08708520233631134,-0.2501599192619324],"max":[0.24061448872089386,0.32126694917678833,0.2142506241798401]},{"bufferView":16,"componentType":5126,"count":17920,"type":"VEC3"},{"bufferView":17,"componentType":5121,"count":17920,"type":"VEC3","normalized":true},{"bufferView":18,"componentType":5126,"count":17920,"type":"VEC2"},{"componentType":5125,"type":"SCALAR","bufferView":19,"count":77952},{"bufferView":20,"componentType":5126,"count":5734,"type":"VEC3","min":[-0.15590126812458038,0.08708520233631134,-0.2501599192619324],"max":[0.24062253534793854,0.3213220536708832,0.2142506241798401]},{"bufferView":21,"componentType":5126,"count":5734,"type":"VEC3"},{"bufferView":22,"componentType":5121,"count":5734,"type":"VEC3","normalized":true},{"bufferView":23,"componentType":5126,"count":5734,"type":"VEC2"},{"componentType":5125,"type":"SCALAR","bufferView":24,"count":17202}],"images":[{"mimeType":"image/jpeg","name":"bark_albedo.jpg","uri":"../textures/bark_albedo.jpg"},{"mimeType":"image/png","name":"bark_orm.png","uri":"../textures/bark_orm.png"},{"mimeType":"image/png","name":"bark_normal.png","uri":"../textures/bark_normal.png"},{"mimeType":"image/jpeg","name":"koelreuteria_albedo.jpg","uri":"../textures/koelreuteria_albedo.jpg"},{"mimeType":"image/png","name":"koelreuteria_orm.png","uri":"../textures/koelreuteria_orm.png"},{"mimeType":"image/png","name":"koelreuteria_normal.png","uri":"../textures/koelreuteria_normal.png"},{"mimeType":"image/jpeg","name":"koelreuteria_back.jpg","uri":"../textures/koelreuteria_back.jpg"}],"textures":[{"source":0,"sampler":0},{"source":1,"sampler":0},{"source":2,"sampler":0},{"source":3,"sampler":0},{"source":4,"sampler":0},{"source":5,"sampler":0},{"source":6,"sampler":0}],"samplers":[{"magFilter":9729,"minFilter":9987,"wrapS":10497,"wrapT":10497}],"bufferViews":[{"buffer":0,"byteOffset":0,"byteLength":2328},{"buffer":0,"byteOffset":2328,"byteLength":2328},{"buffer":0,"byteOffset":4656,"byteLength":582},{"buffer":0,"byteOffset":5240,"byteLength":1552},{"buffer":0,"byteOffset":6792,"byteLength":4416},{"buffer":0,"byteOffset":11208,"byteLength":3912},{"buffer":0,"byteOffset":15120,"byteLength":3912},{"buffer":0,"byteOffset":19032,"byteLength":978},{"buffer":0,"byteOffset":20012,"byteLength":2608},{"buffer":0,"byteOffset":22620,"byteLength":4848},{"buffer":0,"byteOffset":27468,"byteLength":215040},{"buffer":0,"byteOffset":242508,"byteLength":215040},{"buffer":0,"byteOffset":457548,"byteLength":53760},{"buffer":0,"byteOffset":511308,"byteLength":143360},{"buffer":0,"byteOffset":654668,"byteLength":311808},{"buffer":0,"byteOffset":966476,"byteLength":215040},{"buffer":0,"byteOffset":1181516,"byteLength":215040},{"buffer":0,"byteOffset":1396556,"byteLength":53760},{"buffer":0,"byteOffset":1450316,"byteLength":143360},{"buffer":0,"byteOffset":1593676,"byteLength":311808},{"buffer":0,"byteOffset":1905484,"byteLength":68808},{"buffer":0,"byteOffset":1974292,"byteLength":68808},{"buffer":0,"byteOffset":2043100,"byteLength":17202},{"buffer":0,"byteOffset":2060304,"byteLength":45872},{"buffer":0,"byteOffset":2106176,"byteLength":68808}],"buffers":[{"byteLength":2174984,"uri":"koelreuteria_01.bin"}],"extras":{"species":"Koelreuteria elegans subsp. formosana","stage":"幼苗","units":"metre","axis":"Y-up; right-handed","origin":"ground at (0,0,0)","version":"2.0","provenance":"Artist-authored geometry with AI-generated albedo and estimated PBR maps, not a botanical scan","closeup":false,"quality":"web","master":"models/koelreuteria_01.glb","optimizer":"meshoptimizer 0.24, topology simplification; thin surface boundaries locked"}}