{"asset":{"version":"2.0","generator":"Rinan Botanical Closeup 2.0"},"extensionsUsed":["KHR_materials_ior","KHR_materials_specular"],"scene":0,"scenes":[{"nodes":[0,1,2,3,4]}],"nodes":[{"name":"stem","mesh":0},{"name":"grass-leaf","mesh":1},{"name":"nodes","mesh":2},{"name":"rachis","mesh":3},{"name":"grain","mesh":4}],"meshes":[{"name":"stem","primitives":[{"attributes":{"POSITION":0,"NORMAL":1,"COLOR_0":2,"TEXCOORD_0":3},"indices":4,"material":0}]},{"name":"grass-leaf","primitives":[{"attributes":{"POSITION":5,"NORMAL":6,"COLOR_0":7,"TEXCOORD_0":8},"indices":9,"material":1}]},{"name":"nodes","primitives":[{"attributes":{"POSITION":10,"NORMAL":11,"COLOR_0":12,"TEXCOORD_0":13},"indices":14,"material":2}]},{"name":"rachis","primitives":[{"attributes":{"POSITION":15,"NORMAL":16,"COLOR_0":17,"TEXCOORD_0":18},"indices":19,"material":3}]},{"name":"grain","primitives":[{"attributes":{"POSITION":20,"NORMAL":21,"COLOR_0":22,"TEXCOORD_0":23},"indices":24,"material":4}]}],"materials":[{"name":"stem","doubleSided":true,"pbrMetallicRoughness":{"baseColorFactor":[1,1,1,1],"metallicFactor":0,"roughnessFactor":1,"baseColorTexture":{"index":0},"metallicRoughnessTexture":{"index":1}},"extensions":{"KHR_materials_ior":{"ior":1.43},"KHR_materials_specular":{"specularFactor":0.3}},"normalTexture":{"index":2,"scale":0.3}},{"name":"grass-leaf","doubleSided":true,"pbrMetallicRoughness":{"baseColorFactor":[1,1,1,1],"metallicFactor":0,"roughnessFactor":1,"baseColorTexture":{"index":3},"metallicRoughnessTexture":{"index":4}},"extensions":{"KHR_materials_ior":{"ior":1.43},"KHR_materials_specular":{"specularFactor":0.3}},"normalTexture":{"index":5,"scale":0.3},"extras":{"thin_leaf_diffuse_translucency":0.28,"render_note":"Blender scene uses thin-sheet diffuse transmission; portable GLB has front/back PBR materials."}},{"name":"nodes","doubleSided":true,"pbrMetallicRoughness":{"baseColorFactor":[1,1,1,1],"metallicFactor":0,"roughnessFactor":0.58},"extensions":{"KHR_materials_ior":{"ior":1.43},"KHR_materials_specular":{"specularFactor":0.3}}},{"name":"rachis","doubleSided":true,"pbrMetallicRoughness":{"baseColorFactor":[1,1,1,1],"metallicFactor":0,"roughnessFactor":0.58},"extensions":{"KHR_materials_ior":{"ior":1.43},"KHR_materials_specular":{"specularFactor":0.3}}},{"name":"grain","doubleSided":true,"pbrMetallicRoughness":{"baseColorFactor":[1,1,1,1],"metallicFactor":0,"roughnessFactor":1,"baseColorTexture":{"index":6},"metallicRoughnessTexture":{"index":7}},"extensions":{"KHR_materials_ior":{"ior":1.43},"KHR_materials_specular":{"specularFactor":0.3}},"normalTexture":{"index":8,"scale":0.3}}],"accessors":[{"bufferView":0,"componentType":5126,"count":375,"type":"VEC3","min":[-0.12468105554580688,-0.0002985093160532415,-0.11347965151071548],"max":[0.10696564614772797,1.0478880405426025,0.11818479001522064]},{"bufferView":1,"componentType":5126,"count":375,"type":"VEC3"},{"bufferView":2,"componentType":5121,"count":375,"type":"VEC3","normalized":true},{"bufferView":3,"componentType":5126,"count":375,"type":"VEC2"},{"componentType":5125,"type":"SCALAR","bufferView":4,"count":2094},{"bufferView":5,"componentType":5126,"count":5797,"type":"VEC3","min":[-0.5144309997558594,0.08840858936309814,-0.4931957721710205],"max":[0.540931224822998,0.8944821357727051,0.5167956948280334]},{"bufferView":6,"componentType":5126,"count":5797,"type":"VEC3"},{"bufferView":7,"componentType":5121,"count":5797,"type":"VEC3","normalized":true},{"bufferView":8,"componentType":5126,"count":5797,"type":"VEC2"},{"componentType":5125,"type":"SCALAR","bufferView":9,"count":25158},{"bufferView":10,"componentType":5126,"count":575,"type":"VEC3","min":[-0.0867677554488182,0.08935536444187164,-0.08227469027042389],"max":[0.06560753285884857,0.6149364709854126,0.08358689397573471]},{"bufferView":11,"componentType":5126,"count":575,"type":"VEC3"},{"bufferView":12,"componentType":5121,"count":575,"type":"VEC3","normalized":true},{"bufferView":13,"componentType":5126,"count":575,"type":"VEC2"},{"componentType":5125,"type":"SCALAR","bufferView":14,"count":2826},{"bufferView":15,"componentType":5126,"count":2717,"type":"VEC3","min":[-0.33464083075523376,0.6778303384780884,-0.3216010630130768],"max":[0.3249107003211975,1.1347395181655884,0.3027772009372711]},{"bufferView":16,"componentType":5126,"count":2717,"type":"VEC3"},{"bufferView":17,"componentType":5121,"count":2717,"type":"VEC3","normalized":true},{"bufferView":18,"componentType":5126,"count":2717,"type":"VEC2"},{"componentType":5125,"type":"SCALAR","bufferView":19,"count":12708},{"bufferView":20,"componentType":5126,"count":46465,"type":"VEC3","min":[-0.3397853970527649,0.6659159064292908,-0.32682913541793823],"max":[0.32915198802948,1.135568380355835,0.30693215131759644]},{"bufferView":21,"componentType":5126,"count":46465,"type":"VEC3"},{"bufferView":22,"componentType":5121,"count":46465,"type":"VEC3","normalized":true},{"bufferView":23,"componentType":5126,"count":46465,"type":"VEC2"},{"componentType":5125,"type":"SCALAR","bufferView":24,"count":184503}],"images":[{"mimeType":"image/png","name":"petiole_albedo.png","uri":"../textures/petiole_albedo.png"},{"mimeType":"image/png","name":"petiole_orm.png","uri":"../textures/petiole_orm.png"},{"mimeType":"image/png","name":"petiole_normal.png","uri":"../textures/petiole_normal.png"},{"mimeType":"image/png","name":"grass_albedo.png","uri":"../textures/grass_albedo.png"},{"mimeType":"image/png","name":"grass_orm.png","uri":"../textures/grass_orm.png"},{"mimeType":"image/png","name":"grass_normal.png","uri":"../textures/grass_normal.png"},{"mimeType":"image/png","name":"grain_albedo.png","uri":"../textures/grain_albedo.png"},{"mimeType":"image/png","name":"grain_orm.png","uri":"../textures/grain_orm.png"},{"mimeType":"image/png","name":"grain_normal.png","uri":"../textures/grain_normal.png"}],"textures":[{"source":0,"sampler":0},{"source":1,"sampler":0},{"source":2,"sampler":0},{"source":3,"sampler":0},{"source":4,"sampler":0},{"source":5,"sampler":0},{"source":6,"sampler":0},{"source":7,"sampler":0},{"source":8,"sampler":0}],"samplers":[{"magFilter":9729,"minFilter":9987,"wrapS":10497,"wrapT":10497}],"bufferViews":[{"buffer":0,"byteOffset":0,"byteLength":4500},{"buffer":0,"byteOffset":4500,"byteLength":4500},{"buffer":0,"byteOffset":9000,"byteLength":1125},{"buffer":0,"byteOffset":10128,"byteLength":3000},{"buffer":0,"byteOffset":13128,"byteLength":8376},{"buffer":0,"byteOffset":21504,"byteLength":69564},{"buffer":0,"byteOffset":91068,"byteLength":69564},{"buffer":0,"byteOffset":160632,"byteLength":17391},{"buffer":0,"byteOffset":178024,"byteLength":46376},{"buffer":0,"byteOffset":224400,"byteLength":100632},{"buffer":0,"byteOffset":325032,"byteLength":6900},{"buffer":0,"byteOffset":331932,"byteLength":6900},{"buffer":0,"byteOffset":338832,"byteLength":1725},{"buffer":0,"byteOffset":340560,"byteLength":4600},{"buffer":0,"byteOffset":345160,"byteLength":11304},{"buffer":0,"byteOffset":356464,"byteLength":32604},{"buffer":0,"byteOffset":389068,"byteLength":32604},{"buffer":0,"byteOffset":421672,"byteLength":8151},{"buffer":0,"byteOffset":429824,"byteLength":21736},{"buffer":0,"byteOffset":451560,"byteLength":50832},{"buffer":0,"byteOffset":502392,"byteLength":557580},{"buffer":0,"byteOffset":1059972,"byteLength":557580},{"buffer":0,"byteOffset":1617552,"byteLength":139395},{"buffer":0,"byteOffset":1756948,"byteLength":371720},{"buffer":0,"byteOffset":2128668,"byteLength":738012}],"buffers":[{"byteLength":2866680,"uri":"rice_05.bin"}],"extras":{"species":"Oryza sativa","stage":"黃熟","units":"metre","axis":"Y-up; right-handed","origin":"ground at (0,0,0)","version":"2.0","provenance":"Artist-authored geometry with AI-generated albedo and estimated PBR maps, not a botanical scan","closeup":false,"quality":"web","master":"models/rice_05.glb","optimizer":"meshoptimizer 0.24, topology simplification; thin surface boundaries locked"}}