{"asset":{"version":"2.0","generator":"Rinan Botanical Closeup 2.0"},"extensionsUsed":["KHR_materials_ior","KHR_materials_specular"],"scene":0,"scenes":[{"nodes":[0,1,2]}],"nodes":[{"name":"stem","mesh":0},{"name":"grass-leaf","mesh":1},{"name":"nodes","mesh":2}],"meshes":[{"name":"stem","primitives":[{"attributes":{"POSITION":0,"NORMAL":1,"COLOR_0":2,"TEXCOORD_0":3},"indices":4,"material":0}]},{"name":"grass-leaf","primitives":[{"attributes":{"POSITION":5,"NORMAL":6,"COLOR_0":7,"TEXCOORD_0":8},"indices":9,"material":1}]},{"name":"nodes","primitives":[{"attributes":{"POSITION":10,"NORMAL":11,"COLOR_0":12,"TEXCOORD_0":13},"indices":14,"material":2}]}],"materials":[{"name":"stem","doubleSided":true,"pbrMetallicRoughness":{"baseColorFactor":[1,1,1,1],"metallicFactor":0,"roughnessFactor":1,"baseColorTexture":{"index":0},"metallicRoughnessTexture":{"index":1}},"extensions":{"KHR_materials_ior":{"ior":1.43},"KHR_materials_specular":{"specularFactor":0.3}},"normalTexture":{"index":2,"scale":0.3}},{"name":"grass-leaf","doubleSided":true,"pbrMetallicRoughness":{"baseColorFactor":[1,1,1,1],"metallicFactor":0,"roughnessFactor":1,"baseColorTexture":{"index":3},"metallicRoughnessTexture":{"index":4}},"extensions":{"KHR_materials_ior":{"ior":1.43},"KHR_materials_specular":{"specularFactor":0.3}},"normalTexture":{"index":5,"scale":0.3},"extras":{"thin_leaf_diffuse_translucency":0.28,"render_note":"Blender scene uses thin-sheet diffuse transmission; portable GLB has front/back PBR materials."}},{"name":"nodes","doubleSided":true,"pbrMetallicRoughness":{"baseColorFactor":[1,1,1,1],"metallicFactor":0,"roughnessFactor":0.58},"extensions":{"KHR_materials_ior":{"ior":1.43},"KHR_materials_specular":{"specularFactor":0.3}}}],"accessors":[{"bufferView":0,"componentType":5126,"count":259,"type":"VEC3","min":[-0.06991854310035706,-0.00029763858765363693,-0.0709136500954628],"max":[0.09597194194793701,0.512071967124939,0.07801781594753265]},{"bufferView":1,"componentType":5126,"count":259,"type":"VEC3"},{"bufferView":2,"componentType":5121,"count":259,"type":"VEC3","normalized":true},{"bufferView":3,"componentType":5126,"count":259,"type":"VEC2"},{"componentType":5125,"type":"SCALAR","bufferView":4,"count":1446},{"bufferView":5,"componentType":5126,"count":4993,"type":"VEC3","min":[-0.23581033945083618,0.05361320450901985,-0.2710539400577545],"max":[0.2842870056629181,0.5324721932411194,0.2588227689266205]},{"bufferView":6,"componentType":5126,"count":4993,"type":"VEC3"},{"bufferView":7,"componentType":5121,"count":4993,"type":"VEC3","normalized":true},{"bufferView":8,"componentType":5126,"count":4993,"type":"VEC2"},{"componentType":5125,"type":"SCALAR","bufferView":9,"count":21768},{"bufferView":10,"componentType":5126,"count":653,"type":"VEC3","min":[-0.060730818659067154,0.04761320725083351,-0.0631880834698677],"max":[0.08614451438188553,0.3808388113975525,0.07008607685565948]},{"bufferView":11,"componentType":5126,"count":653,"type":"VEC3"},{"bufferView":12,"componentType":5121,"count":653,"type":"VEC3","normalized":true},{"bufferView":13,"componentType":5126,"count":653,"type":"VEC2"},{"componentType":5125,"type":"SCALAR","bufferView":14,"count":3378}],"images":[{"mimeType":"image/png","name":"petiole_albedo.png","uri":"../textures/petiole_albedo.png"},{"mimeType":"image/png","name":"petiole_orm.png","uri":"../textures/petiole_orm.png"},{"mimeType":"image/png","name":"petiole_normal.png","uri":"../textures/petiole_normal.png"},{"mimeType":"image/png","name":"grass_albedo.png","uri":"../textures/grass_albedo.png"},{"mimeType":"image/png","name":"grass_orm.png","uri":"../textures/grass_orm.png"},{"mimeType":"image/png","name":"grass_normal.png","uri":"../textures/grass_normal.png"}],"textures":[{"source":0,"sampler":0},{"source":1,"sampler":0},{"source":2,"sampler":0},{"source":3,"sampler":0},{"source":4,"sampler":0},{"source":5,"sampler":0}],"samplers":[{"magFilter":9729,"minFilter":9987,"wrapS":10497,"wrapT":10497}],"bufferViews":[{"buffer":0,"byteOffset":0,"byteLength":3108},{"buffer":0,"byteOffset":3108,"byteLength":3108},{"buffer":0,"byteOffset":6216,"byteLength":777},{"buffer":0,"byteOffset":6996,"byteLength":2072},{"buffer":0,"byteOffset":9068,"byteLength":5784},{"buffer":0,"byteOffset":14852,"byteLength":59916},{"buffer":0,"byteOffset":74768,"byteLength":59916},{"buffer":0,"byteOffset":134684,"byteLength":14979},{"buffer":0,"byteOffset":149664,"byteLength":39944},{"buffer":0,"byteOffset":189608,"byteLength":87072},{"buffer":0,"byteOffset":276680,"byteLength":7836},{"buffer":0,"byteOffset":284516,"byteLength":7836},{"buffer":0,"byteOffset":292352,"byteLength":1959},{"buffer":0,"byteOffset":294312,"byteLength":5224},{"buffer":0,"byteOffset":299536,"byteLength":13512}],"buffers":[{"byteLength":313048,"uri":"rice_02.bin"}],"extras":{"species":"Oryza sativa","stage":"分蘗","units":"metre","axis":"Y-up; right-handed","origin":"ground at (0,0,0)","version":"2.0","provenance":"Artist-authored geometry with AI-generated albedo and estimated PBR maps, not a botanical scan","closeup":false,"quality":"web","master":"models/rice_02.glb","optimizer":"meshoptimizer 0.24, topology simplification; thin surface boundaries locked"}}