{"asset":{"version":"2.0","generator":"Rinan Botanical Closeup 2.0"},"extensionsUsed":["KHR_materials_ior","KHR_materials_specular"],"scene":0,"scenes":[{"nodes":[0,1,2]}],"nodes":[{"name":"stem","mesh":0},{"name":"grass-leaf","mesh":1},{"name":"nodes","mesh":2}],"meshes":[{"name":"stem","primitives":[{"attributes":{"POSITION":0,"NORMAL":1,"COLOR_0":2,"TEXCOORD_0":3},"indices":4,"material":0}]},{"name":"grass-leaf","primitives":[{"attributes":{"POSITION":5,"NORMAL":6,"COLOR_0":7,"TEXCOORD_0":8},"indices":9,"material":1}]},{"name":"nodes","primitives":[{"attributes":{"POSITION":10,"NORMAL":11,"COLOR_0":12,"TEXCOORD_0":13},"indices":14,"material":2}]}],"materials":[{"name":"stem","doubleSided":true,"pbrMetallicRoughness":{"baseColorFactor":[1,1,1,1],"metallicFactor":0,"roughnessFactor":1,"baseColorTexture":{"index":0},"metallicRoughnessTexture":{"index":1}},"extensions":{"KHR_materials_ior":{"ior":1.43},"KHR_materials_specular":{"specularFactor":0.3}},"normalTexture":{"index":2,"scale":0.3}},{"name":"grass-leaf","doubleSided":true,"pbrMetallicRoughness":{"baseColorFactor":[1,1,1,1],"metallicFactor":0,"roughnessFactor":1,"baseColorTexture":{"index":3},"metallicRoughnessTexture":{"index":4}},"extensions":{"KHR_materials_ior":{"ior":1.43},"KHR_materials_specular":{"specularFactor":0.3}},"normalTexture":{"index":5,"scale":0.3},"extras":{"thin_leaf_diffuse_translucency":0.28,"render_note":"Blender scene uses thin-sheet diffuse transmission; portable GLB has front/back PBR materials."}},{"name":"nodes","doubleSided":true,"pbrMetallicRoughness":{"baseColorFactor":[1,1,1,1],"metallicFactor":0,"roughnessFactor":0.58},"extensions":{"KHR_materials_ior":{"ior":1.43},"KHR_materials_specular":{"specularFactor":0.3}}}],"accessors":[{"bufferView":0,"componentType":5126,"count":172,"type":"VEC3","min":[-0.01980280876159668,-0.00015914089453872293,0.003364261705428362],"max":[0.03316924721002579,0.200089231133461,0.02435125783085823]},{"bufferView":1,"componentType":5126,"count":172,"type":"VEC3"},{"bufferView":2,"componentType":5121,"count":172,"type":"VEC3","normalized":true},{"bufferView":3,"componentType":5126,"count":172,"type":"VEC2"},{"componentType":5125,"type":"SCALAR","bufferView":4,"count":1008},{"bufferView":5,"componentType":5126,"count":1806,"type":"VEC3","min":[-0.07748101651668549,0.02391171082854271,-0.04770396649837494],"max":[0.10228472203016281,0.14537176489830017,0.07393236458301544]},{"bufferView":6,"componentType":5126,"count":1806,"type":"VEC3"},{"bufferView":7,"componentType":5121,"count":1806,"type":"VEC3","normalized":true},{"bufferView":8,"componentType":5126,"count":1806,"type":"VEC2"},{"componentType":5125,"type":"SCALAR","bufferView":9,"count":9072},{"bufferView":10,"componentType":5126,"count":156,"type":"VEC3","min":[-0.014098009094595909,0.01791170984506607,0.0023617541883140802],"max":[0.02462869882583618,0.08801024407148361,0.01904832199215889]},{"bufferView":11,"componentType":5126,"count":156,"type":"VEC3"},{"bufferView":12,"componentType":5121,"count":156,"type":"VEC3","normalized":true},{"bufferView":13,"componentType":5126,"count":156,"type":"VEC2"},{"componentType":5125,"type":"SCALAR","bufferView":14,"count":864}],"images":[{"mimeType":"image/png","name":"petiole_albedo.png","uri":"../textures/petiole_albedo.png"},{"mimeType":"image/png","name":"petiole_orm.png","uri":"../textures/petiole_orm.png"},{"mimeType":"image/png","name":"petiole_normal.png","uri":"../textures/petiole_normal.png"},{"mimeType":"image/png","name":"grass_albedo.png","uri":"../textures/grass_albedo.png"},{"mimeType":"image/png","name":"grass_orm.png","uri":"../textures/grass_orm.png"},{"mimeType":"image/png","name":"grass_normal.png","uri":"../textures/grass_normal.png"}],"textures":[{"source":0,"sampler":0},{"source":1,"sampler":0},{"source":2,"sampler":0},{"source":3,"sampler":0},{"source":4,"sampler":0},{"source":5,"sampler":0}],"samplers":[{"magFilter":9729,"minFilter":9987,"wrapS":10497,"wrapT":10497}],"bufferViews":[{"buffer":0,"byteOffset":0,"byteLength":2064},{"buffer":0,"byteOffset":2064,"byteLength":2064},{"buffer":0,"byteOffset":4128,"byteLength":516},{"buffer":0,"byteOffset":4644,"byteLength":1376},{"buffer":0,"byteOffset":6020,"byteLength":4032},{"buffer":0,"byteOffset":10052,"byteLength":21672},{"buffer":0,"byteOffset":31724,"byteLength":21672},{"buffer":0,"byteOffset":53396,"byteLength":5418},{"buffer":0,"byteOffset":58816,"byteLength":14448},{"buffer":0,"byteOffset":73264,"byteLength":36288},{"buffer":0,"byteOffset":109552,"byteLength":1872},{"buffer":0,"byteOffset":111424,"byteLength":1872},{"buffer":0,"byteOffset":113296,"byteLength":468},{"buffer":0,"byteOffset":113764,"byteLength":1248},{"buffer":0,"byteOffset":115012,"byteLength":3456}],"buffers":[{"byteLength":118468,"uri":"rice_01.bin"}],"extras":{"species":"Oryza sativa","stage":"秧苗","units":"metre","axis":"Y-up; right-handed","origin":"ground at (0,0,0)","version":"2.0","provenance":"Artist-authored geometry with AI-generated albedo and estimated PBR maps, not a botanical scan","closeup":false,"quality":"web","master":"models/rice_01.glb","optimizer":"meshoptimizer 0.24, topology simplification; thin surface boundaries locked"}}