{"asset":{"version":"2.0","generator":"Rinan Botanical Closeup 2.0"},"extensionsUsed":["KHR_materials_ior","KHR_materials_specular"],"scene":0,"scenes":[{"nodes":[0,1,2,3,4,5]}],"nodes":[{"name":"stem","mesh":0},{"name":"grass-leaf","mesh":1},{"name":"nodes","mesh":2},{"name":"rachis","mesh":3},{"name":"grain","mesh":4},{"name":"anthers","mesh":5}],"meshes":[{"name":"stem","primitives":[{"attributes":{"POSITION":0,"NORMAL":1,"COLOR_0":2,"TEXCOORD_0":3},"indices":4,"material":0}]},{"name":"grass-leaf","primitives":[{"attributes":{"POSITION":5,"NORMAL":6,"COLOR_0":7,"TEXCOORD_0":8},"indices":9,"material":1}]},{"name":"nodes","primitives":[{"attributes":{"POSITION":10,"NORMAL":11,"COLOR_0":12,"TEXCOORD_0":13},"indices":14,"material":2}]},{"name":"rachis","primitives":[{"attributes":{"POSITION":15,"NORMAL":16,"COLOR_0":17,"TEXCOORD_0":18},"indices":19,"material":3}]},{"name":"grain","primitives":[{"attributes":{"POSITION":20,"NORMAL":21,"COLOR_0":22,"TEXCOORD_0":23},"indices":24,"material":4}]},{"name":"anthers","primitives":[{"attributes":{"POSITION":25,"NORMAL":26,"COLOR_0":27,"TEXCOORD_0":28},"indices":29,"material":5}]}],"materials":[{"name":"stem","doubleSided":true,"pbrMetallicRoughness":{"baseColorFactor":[1,1,1,1],"metallicFactor":0,"roughnessFactor":1,"baseColorTexture":{"index":0},"metallicRoughnessTexture":{"index":1}},"extensions":{"KHR_materials_ior":{"ior":1.43},"KHR_materials_specular":{"specularFactor":0.3}},"normalTexture":{"index":2,"scale":0.3}},{"name":"grass-leaf","doubleSided":true,"pbrMetallicRoughness":{"baseColorFactor":[1,1,1,1],"metallicFactor":0,"roughnessFactor":1,"baseColorTexture":{"index":3},"metallicRoughnessTexture":{"index":4}},"extensions":{"KHR_materials_ior":{"ior":1.43},"KHR_materials_specular":{"specularFactor":0.3}},"normalTexture":{"index":5,"scale":0.3},"extras":{"thin_leaf_diffuse_translucency":0.28,"render_note":"Blender scene uses thin-sheet diffuse transmission; portable GLB has front/back PBR materials."}},{"name":"nodes","doubleSided":true,"pbrMetallicRoughness":{"baseColorFactor":[1,1,1,1],"metallicFactor":0,"roughnessFactor":0.58},"extensions":{"KHR_materials_ior":{"ior":1.43},"KHR_materials_specular":{"specularFactor":0.3}}},{"name":"rachis","doubleSided":true,"pbrMetallicRoughness":{"baseColorFactor":[1,1,1,1],"metallicFactor":0,"roughnessFactor":0.58},"extensions":{"KHR_materials_ior":{"ior":1.43},"KHR_materials_specular":{"specularFactor":0.3}}},{"name":"grain","doubleSided":true,"pbrMetallicRoughness":{"baseColorFactor":[1,1,1,1],"metallicFactor":0,"roughnessFactor":1,"baseColorTexture":{"index":6},"metallicRoughnessTexture":{"index":7}},"extensions":{"KHR_materials_ior":{"ior":1.43},"KHR_materials_specular":{"specularFactor":0.3}},"normalTexture":{"index":8,"scale":0.3}},{"name":"anthers","doubleSided":true,"pbrMetallicRoughness":{"baseColorFactor":[1,1,1,1],"metallicFactor":0,"roughnessFactor":0.58},"extensions":{"KHR_materials_ior":{"ior":1.43},"KHR_materials_specular":{"specularFactor":0.3}}}],"accessors":[{"bufferView":0,"componentType":5126,"count":375,"type":"VEC3","min":[-0.11125302314758301,-0.0002976733958348632,-0.12980888783931732],"max":[0.10149019211530685,0.9629409909248352,0.14438408613204956]},{"bufferView":1,"componentType":5126,"count":375,"type":"VEC3"},{"bufferView":2,"componentType":5121,"count":375,"type":"VEC3","normalized":true},{"bufferView":3,"componentType":5126,"count":375,"type":"VEC2"},{"componentType":5125,"type":"SCALAR","bufferView":4,"count":2094},{"bufferView":5,"componentType":5126,"count":7134,"type":"VEC3","min":[-0.47794026136398315,0.08487462252378464,-0.48118141293525696],"max":[0.46314775943756104,0.9870064854621887,0.5008512735366821]},{"bufferView":6,"componentType":5126,"count":7134,"type":"VEC3"},{"bufferView":7,"componentType":5121,"count":7134,"type":"VEC3","normalized":true},{"bufferView":8,"componentType":5126,"count":7134,"type":"VEC2"},{"componentType":5125,"type":"SCALAR","bufferView":9,"count":31449},{"bufferView":10,"componentType":5126,"count":629,"type":"VEC3","min":[-0.09587450325489044,0.0788746252655983,-0.1116136983036995],"max":[0.08460643142461777,0.7144787311553955,0.12223700433969498]},{"bufferView":11,"componentType":5126,"count":629,"type":"VEC3"},{"bufferView":12,"componentType":5121,"count":629,"type":"VEC3","normalized":true},{"bufferView":13,"componentType":5126,"count":629,"type":"VEC2"},{"componentType":5125,"type":"SCALAR","bufferView":14,"count":2994},{"bufferView":15,"componentType":5126,"count":2680,"type":"VEC3","min":[-0.3045199513435364,0.691034197807312,-0.30122125148773193],"max":[0.3146728277206421,1.0641924142837524,0.3580315113067627]},{"bufferView":16,"componentType":5126,"count":2680,"type":"VEC3"},{"bufferView":17,"componentType":5121,"count":2680,"type":"VEC3","normalized":true},{"bufferView":18,"componentType":5126,"count":2680,"type":"VEC2"},{"componentType":5125,"type":"SCALAR","bufferView":19,"count":12492},{"bufferView":20,"componentType":5126,"count":46536,"type":"VEC3","min":[-0.3071782886981964,0.6837126612663269,-0.30366945266723633],"max":[0.32220879197120667,1.063511848449707,0.3653308153152466]},{"bufferView":21,"componentType":5126,"count":46536,"type":"VEC3"},{"bufferView":22,"componentType":5121,"count":46536,"type":"VEC3","normalized":true},{"bufferView":23,"componentType":5126,"count":46536,"type":"VEC2"},{"componentType":5125,"type":"SCALAR","bufferView":24,"count":184503},{"bufferView":25,"componentType":5126,"count":11440,"type":"VEC3","min":[-0.3059038519859314,0.6847874522209167,-0.2992747128009796],"max":[0.3199455440044403,1.0600380897521973,0.36051660776138306]},{"bufferView":26,"componentType":5126,"count":11440,"type":"VEC3"},{"bufferView":27,"componentType":5121,"count":11440,"type":"VEC3","normalized":true},{"bufferView":28,"componentType":5126,"count":11440,"type":"VEC2"},{"componentType":5125,"type":"SCALAR","bufferView":29,"count":34320}],"images":[{"mimeType":"image/png","name":"petiole_albedo.png","uri":"../textures/petiole_albedo.png"},{"mimeType":"image/png","name":"petiole_orm.png","uri":"../textures/petiole_orm.png"},{"mimeType":"image/png","name":"petiole_normal.png","uri":"../textures/petiole_normal.png"},{"mimeType":"image/png","name":"grass_albedo.png","uri":"../textures/grass_albedo.png"},{"mimeType":"image/png","name":"grass_orm.png","uri":"../textures/grass_orm.png"},{"mimeType":"image/png","name":"grass_normal.png","uri":"../textures/grass_normal.png"},{"mimeType":"image/png","name":"grain_albedo.png","uri":"../textures/grain_albedo.png"},{"mimeType":"image/png","name":"grain_orm.png","uri":"../textures/grain_orm.png"},{"mimeType":"image/png","name":"grain_normal.png","uri":"../textures/grain_normal.png"}],"textures":[{"source":0,"sampler":0},{"source":1,"sampler":0},{"source":2,"sampler":0},{"source":3,"sampler":0},{"source":4,"sampler":0},{"source":5,"sampler":0},{"source":6,"sampler":0},{"source":7,"sampler":0},{"source":8,"sampler":0}],"samplers":[{"magFilter":9729,"minFilter":9987,"wrapS":10497,"wrapT":10497}],"bufferViews":[{"buffer":0,"byteOffset":0,"byteLength":4500},{"buffer":0,"byteOffset":4500,"byteLength":4500},{"buffer":0,"byteOffset":9000,"byteLength":1125},{"buffer":0,"byteOffset":10128,"byteLength":3000},{"buffer":0,"byteOffset":13128,"byteLength":8376},{"buffer":0,"byteOffset":21504,"byteLength":85608},{"buffer":0,"byteOffset":107112,"byteLength":85608},{"buffer":0,"byteOffset":192720,"byteLength":21402},{"buffer":0,"byteOffset":214124,"byteLength":57072},{"buffer":0,"byteOffset":271196,"byteLength":125796},{"buffer":0,"byteOffset":396992,"byteLength":7548},{"buffer":0,"byteOffset":404540,"byteLength":7548},{"buffer":0,"byteOffset":412088,"byteLength":1887},{"buffer":0,"byteOffset":413976,"byteLength":5032},{"buffer":0,"byteOffset":419008,"byteLength":11976},{"buffer":0,"byteOffset":430984,"byteLength":32160},{"buffer":0,"byteOffset":463144,"byteLength":32160},{"buffer":0,"byteOffset":495304,"byteLength":8040},{"buffer":0,"byteOffset":503344,"byteLength":21440},{"buffer":0,"byteOffset":524784,"byteLength":49968},{"buffer":0,"byteOffset":574752,"byteLength":558432},{"buffer":0,"byteOffset":1133184,"byteLength":558432},{"buffer":0,"byteOffset":1691616,"byteLength":139608},{"buffer":0,"byteOffset":1831224,"byteLength":372288},{"buffer":0,"byteOffset":2203512,"byteLength":738012},{"buffer":0,"byteOffset":2941524,"byteLength":137280},{"buffer":0,"byteOffset":3078804,"byteLength":137280},{"buffer":0,"byteOffset":3216084,"byteLength":34320},{"buffer":0,"byteOffset":3250404,"byteLength":91520},{"buffer":0,"byteOffset":3341924,"byteLength":137280}],"buffers":[{"byteLength":3479204,"uri":"rice_03.bin"}],"extras":{"species":"Oryza sativa","stage":"抽穗開花","units":"metre","axis":"Y-up; right-handed","origin":"ground at (0,0,0)","version":"2.0","provenance":"Artist-authored geometry with AI-generated albedo and estimated PBR maps, not a botanical scan","closeup":false,"quality":"web","master":"models/rice_03.glb","optimizer":"meshoptimizer 0.24, topology simplification; thin surface boundaries locked"}}