{"asset":{"version":"2.0","generator":"Rinan Botanical Closeup 2.0"},"extensionsUsed":["KHR_materials_ior","KHR_materials_specular"],"scene":0,"scenes":[{"nodes":[0,1,2,3,4]}],"nodes":[{"name":"stem","mesh":0},{"name":"grass-leaf","mesh":1},{"name":"rachis","mesh":2},{"name":"panicle","mesh":3},{"name":"silky-hairs","mesh":4}],"meshes":[{"name":"stem","primitives":[{"attributes":{"POSITION":0,"NORMAL":1,"COLOR_0":2,"TEXCOORD_0":3},"indices":4,"material":0}]},{"name":"grass-leaf","primitives":[{"attributes":{"POSITION":5,"NORMAL":6,"COLOR_0":7,"TEXCOORD_0":8},"indices":9,"material":1}]},{"name":"rachis","primitives":[{"attributes":{"POSITION":10,"NORMAL":11,"COLOR_0":12,"TEXCOORD_0":13},"indices":14,"material":2}]},{"name":"panicle","primitives":[{"attributes":{"POSITION":15,"NORMAL":16,"COLOR_0":17,"TEXCOORD_0":18},"indices":19,"material":3}]},{"name":"silky-hairs","primitives":[{"attributes":{"POSITION":20,"NORMAL":21,"COLOR_0":22,"TEXCOORD_0":23},"indices":24,"material":4}]}],"materials":[{"name":"stem","doubleSided":true,"pbrMetallicRoughness":{"baseColorFactor":[1,1,1,1],"metallicFactor":0,"roughnessFactor":1,"baseColorTexture":{"index":0},"metallicRoughnessTexture":{"index":1}},"extensions":{"KHR_materials_ior":{"ior":1.43},"KHR_materials_specular":{"specularFactor":0.3}},"normalTexture":{"index":2,"scale":0.3}},{"name":"grass-leaf","doubleSided":true,"pbrMetallicRoughness":{"baseColorFactor":[1,1,1,1],"metallicFactor":0,"roughnessFactor":1,"baseColorTexture":{"index":3},"metallicRoughnessTexture":{"index":4}},"extensions":{"KHR_materials_ior":{"ior":1.43},"KHR_materials_specular":{"specularFactor":0.3}},"normalTexture":{"index":5,"scale":0.3},"extras":{"thin_leaf_diffuse_translucency":0.28,"render_note":"Blender scene uses thin-sheet diffuse transmission; portable GLB has front/back PBR materials."}},{"name":"rachis","doubleSided":true,"pbrMetallicRoughness":{"baseColorFactor":[1,1,1,1],"metallicFactor":0,"roughnessFactor":0.58},"extensions":{"KHR_materials_ior":{"ior":1.43},"KHR_materials_specular":{"specularFactor":0.3}}},{"name":"panicle","doubleSided":true,"pbrMetallicRoughness":{"baseColorFactor":[1,1,1,1],"metallicFactor":0,"roughnessFactor":0.58},"extensions":{"KHR_materials_ior":{"ior":1.43},"KHR_materials_specular":{"specularFactor":0.3}}},{"name":"silky-hairs","doubleSided":true,"pbrMetallicRoughness":{"baseColorFactor":[1,1,1,1],"metallicFactor":0,"roughnessFactor":0.72},"extensions":{"KHR_materials_ior":{"ior":1.43},"KHR_materials_specular":{"specularFactor":0.3}}}],"accessors":[{"bufferView":0,"componentType":5126,"count":475,"type":"VEC3","min":[-0.2932562828063965,-0.00041682421579025686,-0.2858327627182007],"max":[0.23719720542430878,1.8350242376327515,0.17920798063278198]},{"bufferView":1,"componentType":5126,"count":475,"type":"VEC3"},{"bufferView":2,"componentType":5121,"count":475,"type":"VEC3","normalized":true},{"bufferView":3,"componentType":5126,"count":475,"type":"VEC2"},{"componentType":5125,"type":"SCALAR","bufferView":4,"count":2622},{"bufferView":5,"componentType":5126,"count":10243,"type":"VEC3","min":[-0.8117817044258118,0.041990529745817184,-0.7570752501487732],"max":[0.6463170051574707,1.469961166381836,0.6149530410766602]},{"bufferView":6,"componentType":5126,"count":10243,"type":"VEC3"},{"bufferView":7,"componentType":5121,"count":10243,"type":"VEC3","normalized":true},{"bufferView":8,"componentType":5126,"count":10243,"type":"VEC2"},{"componentType":5125,"type":"SCALAR","bufferView":9,"count":45963},{"bufferView":10,"componentType":5126,"count":129,"type":"VEC3","min":[-0.3231279253959656,1.1597497463226318,-0.31357237696647644],"max":[0.27265664935112,2.12899112701416,0.21578212082386017]},{"bufferView":11,"componentType":5126,"count":129,"type":"VEC3"},{"bufferView":12,"componentType":5121,"count":129,"type":"VEC3","normalized":true},{"bufferView":13,"componentType":5126,"count":129,"type":"VEC2"},{"componentType":5125,"type":"SCALAR","bufferView":14,"count":546},{"bufferView":15,"componentType":5126,"count":9726,"type":"VEC3","min":[-0.36110764741897583,1.1739999055862427,-0.35566994547843933],"max":[0.331513911485672,2.164677381515503,0.26421988010406494]},{"bufferView":16,"componentType":5126,"count":9726,"type":"VEC3"},{"bufferView":17,"componentType":5121,"count":9726,"type":"VEC3","normalized":true},{"bufferView":18,"componentType":5126,"count":9726,"type":"VEC2"},{"componentType":5125,"type":"SCALAR","bufferView":19,"count":34416},{"bufferView":20,"componentType":5126,"count":38505,"type":"VEC3","min":[-0.3651121258735657,1.1913343667984009,-0.3672134280204773],"max":[0.3309691846370697,2.1888387203216553,0.2811867594718933]},{"bufferView":21,"componentType":5126,"count":38505,"type":"VEC3"},{"bufferView":22,"componentType":5121,"count":38505,"type":"VEC3","normalized":true},{"bufferView":23,"componentType":5126,"count":38505,"type":"VEC2"},{"componentType":5125,"type":"SCALAR","bufferView":24,"count":136176}],"images":[{"mimeType":"image/png","name":"petiole_albedo.png","uri":"../textures/petiole_albedo.png"},{"mimeType":"image/png","name":"petiole_orm.png","uri":"../textures/petiole_orm.png"},{"mimeType":"image/png","name":"petiole_normal.png","uri":"../textures/petiole_normal.png"},{"mimeType":"image/png","name":"grass_albedo.png","uri":"../textures/grass_albedo.png"},{"mimeType":"image/png","name":"grass_orm.png","uri":"../textures/grass_orm.png"},{"mimeType":"image/png","name":"grass_normal.png","uri":"../textures/grass_normal.png"}],"textures":[{"source":0,"sampler":0},{"source":1,"sampler":0},{"source":2,"sampler":0},{"source":3,"sampler":0},{"source":4,"sampler":0},{"source":5,"sampler":0}],"samplers":[{"magFilter":9729,"minFilter":9987,"wrapS":10497,"wrapT":10497}],"bufferViews":[{"buffer":0,"byteOffset":0,"byteLength":5700},{"buffer":0,"byteOffset":5700,"byteLength":5700},{"buffer":0,"byteOffset":11400,"byteLength":1425},{"buffer":0,"byteOffset":12828,"byteLength":3800},{"buffer":0,"byteOffset":16628,"byteLength":10488},{"buffer":0,"byteOffset":27116,"byteLength":122916},{"buffer":0,"byteOffset":150032,"byteLength":122916},{"buffer":0,"byteOffset":272948,"byteLength":30729},{"buffer":0,"byteOffset":303680,"byteLength":81944},{"buffer":0,"byteOffset":385624,"byteLength":183852},{"buffer":0,"byteOffset":569476,"byteLength":1548},{"buffer":0,"byteOffset":571024,"byteLength":1548},{"buffer":0,"byteOffset":572572,"byteLength":387},{"buffer":0,"byteOffset":572960,"byteLength":1032},{"buffer":0,"byteOffset":573992,"byteLength":2184},{"buffer":0,"byteOffset":576176,"byteLength":116712},{"buffer":0,"byteOffset":692888,"byteLength":116712},{"buffer":0,"byteOffset":809600,"byteLength":29178},{"buffer":0,"byteOffset":838780,"byteLength":77808},{"buffer":0,"byteOffset":916588,"byteLength":137664},{"buffer":0,"byteOffset":1054252,"byteLength":462060},{"buffer":0,"byteOffset":1516312,"byteLength":462060},{"buffer":0,"byteOffset":1978372,"byteLength":115515},{"buffer":0,"byteOffset":2093888,"byteLength":308040},{"buffer":0,"byteOffset":2401928,"byteLength":544704}],"buffers":[{"byteLength":2946632,"uri":"saccharum_04.bin"}],"extras":{"species":"Saccharum spontaneum","stage":"銀白花序","units":"metre","axis":"Y-up; right-handed","origin":"ground at (0,0,0)","version":"2.0","provenance":"Artist-authored geometry with AI-generated albedo and estimated PBR maps, not a botanical scan","closeup":false,"quality":"web","master":"models/saccharum_04.glb","optimizer":"meshoptimizer 0.24, topology simplification; thin surface boundaries locked"}}