{"asset":{"version":"2.0","generator":"Rinan Botanical Closeup 2.0"},"extensionsUsed":["KHR_materials_ior","KHR_materials_specular"],"scene":0,"scenes":[{"nodes":[0,1]}],"nodes":[{"name":"stem","mesh":0},{"name":"grass-leaf","mesh":1}],"meshes":[{"name":"stem","primitives":[{"attributes":{"POSITION":0,"NORMAL":1,"COLOR_0":2,"TEXCOORD_0":3},"indices":4,"material":0}]},{"name":"grass-leaf","primitives":[{"attributes":{"POSITION":5,"NORMAL":6,"COLOR_0":7,"TEXCOORD_0":8},"indices":9,"material":1}]}],"materials":[{"name":"stem","doubleSided":true,"pbrMetallicRoughness":{"baseColorFactor":[1,1,1,1],"metallicFactor":0,"roughnessFactor":1,"baseColorTexture":{"index":0},"metallicRoughnessTexture":{"index":1}},"extensions":{"KHR_materials_ior":{"ior":1.43},"KHR_materials_specular":{"specularFactor":0.3}},"normalTexture":{"index":2,"scale":0.3}},{"name":"grass-leaf","doubleSided":true,"pbrMetallicRoughness":{"baseColorFactor":[1,1,1,1],"metallicFactor":0,"roughnessFactor":1,"baseColorTexture":{"index":3},"metallicRoughnessTexture":{"index":4}},"extensions":{"KHR_materials_ior":{"ior":1.43},"KHR_materials_specular":{"specularFactor":0.3}},"normalTexture":{"index":5,"scale":0.3},"extras":{"thin_leaf_diffuse_translucency":0.28,"render_note":"Blender scene uses thin-sheet diffuse transmission; portable GLB has front/back PBR materials."}}],"accessors":[{"bufferView":0,"componentType":5126,"count":296,"type":"VEC3","min":[-0.047140203416347504,-0.0004169915337115526,-0.062820203602314],"max":[0.034835003316402435,0.29686781764030457,0.03504149615764618]},{"bufferView":1,"componentType":5126,"count":296,"type":"VEC3"},{"bufferView":2,"componentType":5121,"count":296,"type":"VEC3","normalized":true},{"bufferView":3,"componentType":5126,"count":296,"type":"VEC2"},{"componentType":5125,"type":"SCALAR","bufferView":4,"count":1728},{"bufferView":5,"componentType":5126,"count":3612,"type":"VEC3","min":[-0.08512315154075623,0.0069523644633591175,-0.13888764381408691],"max":[0.09666621685028076,0.15410630404949188,0.06517571955919266]},{"bufferView":6,"componentType":5126,"count":3612,"type":"VEC3"},{"bufferView":7,"componentType":5121,"count":3612,"type":"VEC3","normalized":true},{"bufferView":8,"componentType":5126,"count":3612,"type":"VEC2"},{"componentType":5125,"type":"SCALAR","bufferView":9,"count":18144}],"images":[{"mimeType":"image/png","name":"petiole_albedo.png","uri":"../textures/petiole_albedo.png"},{"mimeType":"image/png","name":"petiole_orm.png","uri":"../textures/petiole_orm.png"},{"mimeType":"image/png","name":"petiole_normal.png","uri":"../textures/petiole_normal.png"},{"mimeType":"image/png","name":"grass_albedo.png","uri":"../textures/grass_albedo.png"},{"mimeType":"image/png","name":"grass_orm.png","uri":"../textures/grass_orm.png"},{"mimeType":"image/png","name":"grass_normal.png","uri":"../textures/grass_normal.png"}],"textures":[{"source":0,"sampler":0},{"source":1,"sampler":0},{"source":2,"sampler":0},{"source":3,"sampler":0},{"source":4,"sampler":0},{"source":5,"sampler":0}],"samplers":[{"magFilter":9729,"minFilter":9987,"wrapS":10497,"wrapT":10497}],"bufferViews":[{"buffer":0,"byteOffset":0,"byteLength":3552},{"buffer":0,"byteOffset":3552,"byteLength":3552},{"buffer":0,"byteOffset":7104,"byteLength":888},{"buffer":0,"byteOffset":7992,"byteLength":2368},{"buffer":0,"byteOffset":10360,"byteLength":6912},{"buffer":0,"byteOffset":17272,"byteLength":43344},{"buffer":0,"byteOffset":60616,"byteLength":43344},{"buffer":0,"byteOffset":103960,"byteLength":10836},{"buffer":0,"byteOffset":114796,"byteLength":28896},{"buffer":0,"byteOffset":143692,"byteLength":72576}],"buffers":[{"byteLength":216268,"uri":"saccharum_01.bin"}],"extras":{"species":"Saccharum spontaneum","stage":"萌芽","units":"metre","axis":"Y-up; right-handed","origin":"ground at (0,0,0)","version":"2.0","provenance":"Artist-authored geometry with AI-generated albedo and estimated PBR maps, not a botanical scan","closeup":false,"quality":"web","master":"models/saccharum_01.glb","optimizer":"meshoptimizer 0.24, topology simplification; thin surface boundaries locked"}}