{"asset":{"version":"2.0","generator":"Rinan Botanical Closeup 2.0"},"extensionsUsed":["KHR_materials_ior","KHR_materials_specular"],"scene":0,"scenes":[{"nodes":[0,1]}],"nodes":[{"name":"stem","mesh":0},{"name":"grass-leaf","mesh":1}],"meshes":[{"name":"stem","primitives":[{"attributes":{"POSITION":0,"NORMAL":1,"COLOR_0":2,"TEXCOORD_0":3},"indices":4,"material":0}]},{"name":"grass-leaf","primitives":[{"attributes":{"POSITION":5,"NORMAL":6,"COLOR_0":7,"TEXCOORD_0":8},"indices":9,"material":1}]}],"materials":[{"name":"stem","doubleSided":true,"pbrMetallicRoughness":{"baseColorFactor":[1,1,1,1],"metallicFactor":0,"roughnessFactor":1,"baseColorTexture":{"index":0},"metallicRoughnessTexture":{"index":1}},"extensions":{"KHR_materials_ior":{"ior":1.43},"KHR_materials_specular":{"specularFactor":0.3}},"normalTexture":{"index":2,"scale":0.3}},{"name":"grass-leaf","doubleSided":true,"pbrMetallicRoughness":{"baseColorFactor":[1,1,1,1],"metallicFactor":0,"roughnessFactor":1,"baseColorTexture":{"index":3},"metallicRoughnessTexture":{"index":4}},"extensions":{"KHR_materials_ior":{"ior":1.43},"KHR_materials_specular":{"specularFactor":0.3}},"normalTexture":{"index":5,"scale":0.3},"extras":{"thin_leaf_diffuse_translucency":0.28,"render_note":"Blender scene uses thin-sheet diffuse transmission; portable GLB has front/back PBR materials."}}],"accessors":[{"bufferView":0,"componentType":5126,"count":325,"type":"VEC3","min":[-0.20836664736270905,-0.0004112664610147476,-0.20477381348609924],"max":[0.17455048859119415,0.9043458104133606,0.16796725988388062]},{"bufferView":1,"componentType":5126,"count":325,"type":"VEC3"},{"bufferView":2,"componentType":5121,"count":325,"type":"VEC3","normalized":true},{"bufferView":3,"componentType":5126,"count":325,"type":"VEC2"},{"componentType":5125,"type":"SCALAR","bufferView":4,"count":1794},{"bufferView":5,"componentType":5126,"count":7077,"type":"VEC3","min":[-0.447371244430542,0.02109157294034958,-0.37947165966033936],"max":[0.4056697487831116,0.6958253383636475,0.3695085644721985]},{"bufferView":6,"componentType":5126,"count":7077,"type":"VEC3"},{"bufferView":7,"componentType":5121,"count":7077,"type":"VEC3","normalized":true},{"bufferView":8,"componentType":5126,"count":7077,"type":"VEC2"},{"componentType":5125,"type":"SCALAR","bufferView":9,"count":31449}],"images":[{"mimeType":"image/png","name":"petiole_albedo.png","uri":"../textures/petiole_albedo.png"},{"mimeType":"image/png","name":"petiole_orm.png","uri":"../textures/petiole_orm.png"},{"mimeType":"image/png","name":"petiole_normal.png","uri":"../textures/petiole_normal.png"},{"mimeType":"image/png","name":"grass_albedo.png","uri":"../textures/grass_albedo.png"},{"mimeType":"image/png","name":"grass_orm.png","uri":"../textures/grass_orm.png"},{"mimeType":"image/png","name":"grass_normal.png","uri":"../textures/grass_normal.png"}],"textures":[{"source":0,"sampler":0},{"source":1,"sampler":0},{"source":2,"sampler":0},{"source":3,"sampler":0},{"source":4,"sampler":0},{"source":5,"sampler":0}],"samplers":[{"magFilter":9729,"minFilter":9987,"wrapS":10497,"wrapT":10497}],"bufferViews":[{"buffer":0,"byteOffset":0,"byteLength":3900},{"buffer":0,"byteOffset":3900,"byteLength":3900},{"buffer":0,"byteOffset":7800,"byteLength":975},{"buffer":0,"byteOffset":8776,"byteLength":2600},{"buffer":0,"byteOffset":11376,"byteLength":7176},{"buffer":0,"byteOffset":18552,"byteLength":84924},{"buffer":0,"byteOffset":103476,"byteLength":84924},{"buffer":0,"byteOffset":188400,"byteLength":21231},{"buffer":0,"byteOffset":209632,"byteLength":56616},{"buffer":0,"byteOffset":266248,"byteLength":125796}],"buffers":[{"byteLength":392044,"uri":"saccharum_02.bin"}],"extras":{"species":"Saccharum spontaneum","stage":"成叢","units":"metre","axis":"Y-up; right-handed","origin":"ground at (0,0,0)","version":"2.0","provenance":"Artist-authored geometry with AI-generated albedo and estimated PBR maps, not a botanical scan","closeup":false,"quality":"web","master":"models/saccharum_02.glb","optimizer":"meshoptimizer 0.24, topology simplification; thin surface boundaries locked"}}