{"asset":{"version":"2.0","generator":"Rinan Botanical Closeup 2.0"},"extensionsUsed":["KHR_materials_ior","KHR_materials_specular"],"scene":0,"scenes":[{"nodes":[0,1,2,3,4]}],"nodes":[{"name":"stem","mesh":0},{"name":"grass-leaf","mesh":1},{"name":"rachis","mesh":2},{"name":"panicle","mesh":3},{"name":"silky-hairs","mesh":4}],"meshes":[{"name":"stem","primitives":[{"attributes":{"POSITION":0,"NORMAL":1,"COLOR_0":2,"TEXCOORD_0":3},"indices":4,"material":0}]},{"name":"grass-leaf","primitives":[{"attributes":{"POSITION":5,"NORMAL":6,"COLOR_0":7,"TEXCOORD_0":8},"indices":9,"material":1}]},{"name":"rachis","primitives":[{"attributes":{"POSITION":10,"NORMAL":11,"COLOR_0":12,"TEXCOORD_0":13},"indices":14,"material":2}]},{"name":"panicle","primitives":[{"attributes":{"POSITION":15,"NORMAL":16,"COLOR_0":17,"TEXCOORD_0":18},"indices":19,"material":3}]},{"name":"silky-hairs","primitives":[{"attributes":{"POSITION":20,"NORMAL":21,"COLOR_0":22,"TEXCOORD_0":23},"indices":24,"material":4}]}],"materials":[{"name":"stem","doubleSided":true,"pbrMetallicRoughness":{"baseColorFactor":[1,1,1,1],"metallicFactor":0,"roughnessFactor":1,"baseColorTexture":{"index":0},"metallicRoughnessTexture":{"index":1}},"extensions":{"KHR_materials_ior":{"ior":1.43},"KHR_materials_specular":{"specularFactor":0.3}},"normalTexture":{"index":2,"scale":0.3}},{"name":"grass-leaf","doubleSided":true,"pbrMetallicRoughness":{"baseColorFactor":[1,1,1,1],"metallicFactor":0,"roughnessFactor":1,"baseColorTexture":{"index":3},"metallicRoughnessTexture":{"index":4}},"extensions":{"KHR_materials_ior":{"ior":1.43},"KHR_materials_specular":{"specularFactor":0.3}},"normalTexture":{"index":5,"scale":0.3},"extras":{"thin_leaf_diffuse_translucency":0.28,"render_note":"Blender scene uses thin-sheet diffuse transmission; portable GLB has front/back PBR materials."}},{"name":"rachis","doubleSided":true,"pbrMetallicRoughness":{"baseColorFactor":[1,1,1,1],"metallicFactor":0,"roughnessFactor":0.58},"extensions":{"KHR_materials_ior":{"ior":1.43},"KHR_materials_specular":{"specularFactor":0.3}}},{"name":"panicle","doubleSided":true,"pbrMetallicRoughness":{"baseColorFactor":[1,1,1,1],"metallicFactor":0,"roughnessFactor":0.58},"extensions":{"KHR_materials_ior":{"ior":1.43},"KHR_materials_specular":{"specularFactor":0.3}}},{"name":"silky-hairs","doubleSided":true,"pbrMetallicRoughness":{"baseColorFactor":[1,1,1,1],"metallicFactor":0,"roughnessFactor":0.72},"extensions":{"KHR_materials_ior":{"ior":1.43},"KHR_materials_specular":{"specularFactor":0.3}}}],"accessors":[{"bufferView":0,"componentType":5126,"count":375,"type":"VEC3","min":[-0.16052298247814178,-0.00041676562977954745,-0.19974157214164734],"max":[0.3194141387939453,1.6935627460479736,0.23264454305171967]},{"bufferView":1,"componentType":5126,"count":375,"type":"VEC3"},{"bufferView":2,"componentType":5121,"count":375,"type":"VEC3","normalized":true},{"bufferView":3,"componentType":5126,"count":375,"type":"VEC2"},{"componentType":5125,"type":"SCALAR","bufferView":4,"count":2070},{"bufferView":5,"componentType":5126,"count":8102,"type":"VEC3","min":[-0.5390390753746033,-0.09679252654314041,-0.5044546127319336],"max":[0.7931839227676392,1.2855514287948608,0.5835632085800171]},{"bufferView":6,"componentType":5126,"count":8102,"type":"VEC3"},{"bufferView":7,"componentType":5121,"count":8102,"type":"VEC3","normalized":true},{"bufferView":8,"componentType":5126,"count":8102,"type":"VEC2"},{"componentType":5125,"type":"SCALAR","bufferView":9,"count":36285},{"bufferView":10,"componentType":5126,"count":102,"type":"VEC3","min":[-0.18470034003257751,1.1216046810150146,-0.2418697327375412],"max":[0.3633212447166443,2.0429108142852783,0.27492228150367737]},{"bufferView":11,"componentType":5126,"count":102,"type":"VEC3"},{"bufferView":12,"componentType":5121,"count":102,"type":"VEC3","normalized":true},{"bufferView":13,"componentType":5126,"count":102,"type":"VEC2"},{"componentType":5125,"type":"SCALAR","bufferView":14,"count":432},{"bufferView":15,"componentType":5126,"count":4023,"type":"VEC3","min":[-0.2343914955854416,1.1439279317855835,-0.29753217101097107],"max":[0.4122508764266968,2.0802409648895264,0.322257936000824]},{"bufferView":16,"componentType":5126,"count":4023,"type":"VEC3"},{"bufferView":17,"componentType":5121,"count":4023,"type":"VEC3","normalized":true},{"bufferView":18,"componentType":5126,"count":4023,"type":"VEC2"},{"componentType":5125,"type":"SCALAR","bufferView":19,"count":14238},{"bufferView":20,"componentType":5126,"count":8072,"type":"VEC3","min":[-0.24640321731567383,1.174367904663086,-0.2902977466583252],"max":[0.4152408242225647,2.0889079570770264,0.32009267807006836]},{"bufferView":21,"componentType":5126,"count":8072,"type":"VEC3"},{"bufferView":22,"componentType":5121,"count":8072,"type":"VEC3","normalized":true},{"bufferView":23,"componentType":5126,"count":8072,"type":"VEC2"},{"componentType":5125,"type":"SCALAR","bufferView":24,"count":28506}],"images":[{"mimeType":"image/png","name":"petiole_albedo.png","uri":"../textures/petiole_albedo.png"},{"mimeType":"image/png","name":"petiole_orm.png","uri":"../textures/petiole_orm.png"},{"mimeType":"image/png","name":"petiole_normal.png","uri":"../textures/petiole_normal.png"},{"mimeType":"image/png","name":"grass_albedo.png","uri":"../textures/grass_albedo.png"},{"mimeType":"image/png","name":"grass_orm.png","uri":"../textures/grass_orm.png"},{"mimeType":"image/png","name":"grass_normal.png","uri":"../textures/grass_normal.png"}],"textures":[{"source":0,"sampler":0},{"source":1,"sampler":0},{"source":2,"sampler":0},{"source":3,"sampler":0},{"source":4,"sampler":0},{"source":5,"sampler":0}],"samplers":[{"magFilter":9729,"minFilter":9987,"wrapS":10497,"wrapT":10497}],"bufferViews":[{"buffer":0,"byteOffset":0,"byteLength":4500},{"buffer":0,"byteOffset":4500,"byteLength":4500},{"buffer":0,"byteOffset":9000,"byteLength":1125},{"buffer":0,"byteOffset":10128,"byteLength":3000},{"buffer":0,"byteOffset":13128,"byteLength":8280},{"buffer":0,"byteOffset":21408,"byteLength":97224},{"buffer":0,"byteOffset":118632,"byteLength":97224},{"buffer":0,"byteOffset":215856,"byteLength":24306},{"buffer":0,"byteOffset":240164,"byteLength":64816},{"buffer":0,"byteOffset":304980,"byteLength":145140},{"buffer":0,"byteOffset":450120,"byteLength":1224},{"buffer":0,"byteOffset":451344,"byteLength":1224},{"buffer":0,"byteOffset":452568,"byteLength":306},{"buffer":0,"byteOffset":452876,"byteLength":816},{"buffer":0,"byteOffset":453692,"byteLength":1728},{"buffer":0,"byteOffset":455420,"byteLength":48276},{"buffer":0,"byteOffset":503696,"byteLength":48276},{"buffer":0,"byteOffset":551972,"byteLength":12069},{"buffer":0,"byteOffset":564044,"byteLength":32184},{"buffer":0,"byteOffset":596228,"byteLength":56952},{"buffer":0,"byteOffset":653180,"byteLength":96864},{"buffer":0,"byteOffset":750044,"byteLength":96864},{"buffer":0,"byteOffset":846908,"byteLength":24216},{"buffer":0,"byteOffset":871124,"byteLength":64576},{"buffer":0,"byteOffset":935700,"byteLength":114024}],"buffers":[{"byteLength":1049724,"uri":"saccharum_05.bin"}],"extras":{"species":"Saccharum spontaneum","stage":"枯穗期","units":"metre","axis":"Y-up; right-handed","origin":"ground at (0,0,0)","version":"2.0","provenance":"Artist-authored geometry with AI-generated albedo and estimated PBR maps, not a botanical scan","closeup":false,"quality":"web","master":"models/saccharum_05.glb","optimizer":"meshoptimizer 0.24, topology simplification; thin surface boundaries locked"}}