{"asset":{"version":"2.0","generator":"Rinan Botanical Closeup 2.0"},"extensionsUsed":["KHR_materials_ior","KHR_materials_specular"],"scene":0,"scenes":[{"nodes":[0,1,2,3,4]}],"nodes":[{"name":"petiole","mesh":0},{"name":"leaf","mesh":1},{"name":"leaf-back","mesh":2},{"name":"leaf-edge","mesh":3},{"name":"new-leaf","mesh":4}],"meshes":[{"name":"petiole","primitives":[{"attributes":{"POSITION":0,"NORMAL":1,"COLOR_0":2,"TEXCOORD_0":3},"indices":4,"material":0}]},{"name":"leaf","primitives":[{"attributes":{"POSITION":5,"NORMAL":6,"COLOR_0":7,"TEXCOORD_0":8},"indices":9,"material":1}]},{"name":"leaf-back","primitives":[{"attributes":{"POSITION":10,"NORMAL":11,"COLOR_0":12,"TEXCOORD_0":13},"indices":14,"material":2}]},{"name":"leaf-edge","primitives":[{"attributes":{"POSITION":15,"NORMAL":16,"COLOR_0":17,"TEXCOORD_0":18},"indices":19,"material":3}]},{"name":"new-leaf","primitives":[{"attributes":{"POSITION":20,"NORMAL":21,"COLOR_0":22,"TEXCOORD_0":23},"indices":24,"material":4}]}],"materials":[{"name":"petiole","doubleSided":true,"pbrMetallicRoughness":{"baseColorFactor":[1,1,1,1],"metallicFactor":0,"roughnessFactor":1,"baseColorTexture":{"index":0},"metallicRoughnessTexture":{"index":1}},"extensions":{"KHR_materials_ior":{"ior":1.43},"KHR_materials_specular":{"specularFactor":0.3}},"normalTexture":{"index":2,"scale":0.3}},{"name":"leaf","doubleSided":false,"pbrMetallicRoughness":{"baseColorFactor":[1,1,1,1],"metallicFactor":0,"roughnessFactor":1,"baseColorTexture":{"index":3},"metallicRoughnessTexture":{"index":4}},"extensions":{"KHR_materials_ior":{"ior":1.43},"KHR_materials_specular":{"specularFactor":0.3}},"normalTexture":{"index":5,"scale":0.3},"extras":{"thin_leaf_diffuse_translucency":0.28,"render_note":"Blender scene uses thin-sheet diffuse transmission; portable GLB has front/back PBR materials."}},{"name":"leaf-back","doubleSided":false,"pbrMetallicRoughness":{"baseColorFactor":[1,1,1,1],"metallicFactor":0,"roughnessFactor":1,"baseColorTexture":{"index":6},"metallicRoughnessTexture":{"index":4}},"extensions":{"KHR_materials_ior":{"ior":1.43},"KHR_materials_specular":{"specularFactor":0.3}},"normalTexture":{"index":5,"scale":0.3},"extras":{"thin_leaf_diffuse_translucency":0.28,"render_note":"Blender scene uses thin-sheet diffuse transmission; portable GLB has front/back PBR materials."}},{"name":"leaf-edge","doubleSided":true,"pbrMetallicRoughness":{"baseColorFactor":[1,1,1,1],"metallicFactor":0,"roughnessFactor":0.58},"extensions":{"KHR_materials_ior":{"ior":1.43},"KHR_materials_specular":{"specularFactor":0.3}}},{"name":"new-leaf","doubleSided":true,"pbrMetallicRoughness":{"baseColorFactor":[1,1,1,1],"metallicFactor":0,"roughnessFactor":1,"baseColorTexture":{"index":7},"metallicRoughnessTexture":{"index":8}},"extensions":{"KHR_materials_ior":{"ior":1.43},"KHR_materials_specular":{"specularFactor":0.3}},"normalTexture":{"index":9,"scale":0.3},"extras":{"thin_leaf_diffuse_translucency":0.28,"render_note":"Blender scene uses thin-sheet diffuse transmission; portable GLB has front/back PBR materials."}}],"accessors":[{"bufferView":0,"componentType":5126,"count":430,"type":"VEC3","min":[-0.15974900126457214,-0.0003707573632709682,-0.13473455607891083],"max":[0.11184121668338776,0.8881335258483887,0.21906696259975433]},{"bufferView":1,"componentType":5126,"count":430,"type":"VEC3"},{"bufferView":2,"componentType":5121,"count":430,"type":"VEC3","normalized":true},{"bufferView":3,"componentType":5126,"count":430,"type":"VEC2"},{"componentType":5125,"type":"SCALAR","bufferView":4,"count":2508},{"bufferView":5,"componentType":5126,"count":10532,"type":"VEC3","min":[-0.31284716725349426,0.29566746950149536,-0.300148606300354],"max":[0.2683018147945404,0.8629392981529236,0.5615506768226624]},{"bufferView":6,"componentType":5126,"count":10532,"type":"VEC3"},{"bufferView":7,"componentType":5121,"count":10532,"type":"VEC3","normalized":true},{"bufferView":8,"componentType":5126,"count":10532,"type":"VEC2"},{"componentType":5125,"type":"SCALAR","bufferView":9,"count":61242},{"bufferView":10,"componentType":5126,"count":10532,"type":"VEC3","min":[-0.3127317726612091,0.2955303192138672,-0.30005836486816406],"max":[0.2682279944419861,0.8627679944038391,0.5614954829216003]},{"bufferView":11,"componentType":5126,"count":10532,"type":"VEC3"},{"bufferView":12,"componentType":5121,"count":10532,"type":"VEC3","normalized":true},{"bufferView":13,"componentType":5126,"count":10532,"type":"VEC2"},{"componentType":5125,"type":"SCALAR","bufferView":14,"count":61242},{"bufferView":15,"componentType":5126,"count":409,"type":"VEC3","min":[-0.31284716725349426,0.2955303192138672,-0.300148606300354],"max":[0.2683018147945404,0.8629392981529236,0.5615506768226624]},{"bufferView":16,"componentType":5126,"count":409,"type":"VEC3"},{"bufferView":17,"componentType":5121,"count":409,"type":"VEC3","normalized":true},{"bufferView":18,"componentType":5126,"count":409,"type":"VEC2"},{"componentType":5125,"type":"SCALAR","bufferView":19,"count":1227},{"bufferView":20,"componentType":5126,"count":111,"type":"VEC3","min":[-0.004700710065662861,0.8881000280380249,3.526818090904271e-07],"max":[0.0341729111969471,1.093096137046814,0.19564759731292725]},{"bufferView":21,"componentType":5126,"count":111,"type":"VEC3"},{"bufferView":22,"componentType":5121,"count":111,"type":"VEC3","normalized":true},{"bufferView":23,"componentType":5126,"count":111,"type":"VEC2"},{"componentType":5125,"type":"SCALAR","bufferView":24,"count":483}],"images":[{"mimeType":"image/png","name":"petiole_albedo.png","uri":"../textures/petiole_albedo.png"},{"mimeType":"image/png","name":"petiole_orm.png","uri":"../textures/petiole_orm.png"},{"mimeType":"image/png","name":"petiole_normal.png","uri":"../textures/petiole_normal.png"},{"mimeType":"image/jpeg","name":"taro_albedo.jpg","uri":"../textures/taro_albedo.jpg"},{"mimeType":"image/png","name":"taro_orm.png","uri":"../textures/taro_orm.png"},{"mimeType":"image/png","name":"taro_normal.png","uri":"../textures/taro_normal.png"},{"mimeType":"image/jpeg","name":"taro_back.jpg","uri":"../textures/taro_back.jpg"},{"mimeType":"image/png","name":"grass_albedo.png","uri":"../textures/grass_albedo.png"},{"mimeType":"image/png","name":"grass_orm.png","uri":"../textures/grass_orm.png"},{"mimeType":"image/png","name":"grass_normal.png","uri":"../textures/grass_normal.png"}],"textures":[{"source":0,"sampler":0},{"source":1,"sampler":0},{"source":2,"sampler":0},{"source":3,"sampler":0},{"source":4,"sampler":0},{"source":5,"sampler":0},{"source":6,"sampler":0},{"source":7,"sampler":0},{"source":8,"sampler":0},{"source":9,"sampler":0}],"samplers":[{"magFilter":9729,"minFilter":9987,"wrapS":10497,"wrapT":10497}],"bufferViews":[{"buffer":0,"byteOffset":0,"byteLength":5160},{"buffer":0,"byteOffset":5160,"byteLength":5160},{"buffer":0,"byteOffset":10320,"byteLength":1290},{"buffer":0,"byteOffset":11612,"byteLength":3440},{"buffer":0,"byteOffset":15052,"byteLength":10032},{"buffer":0,"byteOffset":25084,"byteLength":126384},{"buffer":0,"byteOffset":151468,"byteLength":126384},{"buffer":0,"byteOffset":277852,"byteLength":31596},{"buffer":0,"byteOffset":309448,"byteLength":84256},{"buffer":0,"byteOffset":393704,"byteLength":244968},{"buffer":0,"byteOffset":638672,"byteLength":126384},{"buffer":0,"byteOffset":765056,"byteLength":126384},{"buffer":0,"byteOffset":891440,"byteLength":31596},{"buffer":0,"byteOffset":923036,"byteLength":84256},{"buffer":0,"byteOffset":1007292,"byteLength":244968},{"buffer":0,"byteOffset":1252260,"byteLength":4908},{"buffer":0,"byteOffset":1257168,"byteLength":4908},{"buffer":0,"byteOffset":1262076,"byteLength":1227},{"buffer":0,"byteOffset":1263304,"byteLength":3272},{"buffer":0,"byteOffset":1266576,"byteLength":4908},{"buffer":0,"byteOffset":1271484,"byteLength":1332},{"buffer":0,"byteOffset":1272816,"byteLength":1332},{"buffer":0,"byteOffset":1274148,"byteLength":333},{"buffer":0,"byteOffset":1274484,"byteLength":888},{"buffer":0,"byteOffset":1275372,"byteLength":1932}],"buffers":[{"byteLength":1277304,"uri":"taro_05.bin"}],"extras":{"species":"Colocasia esculenta","stage":"老葉退化","units":"metre","axis":"Y-up; right-handed","origin":"ground at (0,0,0)","version":"2.0","provenance":"Artist-authored geometry with AI-generated albedo and estimated PBR maps, not a botanical scan","closeup":false,"quality":"web","master":"models/taro_05.glb","optimizer":"meshoptimizer 0.24, topology simplification; thin surface boundaries locked"}}