{"asset":{"version":"2.0","generator":"Rinan Botanical Closeup 2.0"},"extensionsUsed":["KHR_materials_ior","KHR_materials_specular"],"scene":0,"scenes":[{"nodes":[0,1,2,3,4]}],"nodes":[{"name":"petiole","mesh":0},{"name":"leaf","mesh":1},{"name":"leaf-back","mesh":2},{"name":"leaf-edge","mesh":3},{"name":"new-leaf","mesh":4}],"meshes":[{"name":"petiole","primitives":[{"attributes":{"POSITION":0,"NORMAL":1,"COLOR_0":2,"TEXCOORD_0":3},"indices":4,"material":0}]},{"name":"leaf","primitives":[{"attributes":{"POSITION":5,"NORMAL":6,"COLOR_0":7,"TEXCOORD_0":8},"indices":9,"material":1}]},{"name":"leaf-back","primitives":[{"attributes":{"POSITION":10,"NORMAL":11,"COLOR_0":12,"TEXCOORD_0":13},"indices":14,"material":2}]},{"name":"leaf-edge","primitives":[{"attributes":{"POSITION":15,"NORMAL":16,"COLOR_0":17,"TEXCOORD_0":18},"indices":19,"material":3}]},{"name":"new-leaf","primitives":[{"attributes":{"POSITION":20,"NORMAL":21,"COLOR_0":22,"TEXCOORD_0":23},"indices":24,"material":4}]}],"materials":[{"name":"petiole","doubleSided":true,"pbrMetallicRoughness":{"baseColorFactor":[1,1,1,1],"metallicFactor":0,"roughnessFactor":1,"baseColorTexture":{"index":0},"metallicRoughnessTexture":{"index":1}},"extensions":{"KHR_materials_ior":{"ior":1.43},"KHR_materials_specular":{"specularFactor":0.3}},"normalTexture":{"index":2,"scale":0.3}},{"name":"leaf","doubleSided":false,"pbrMetallicRoughness":{"baseColorFactor":[1,1,1,1],"metallicFactor":0,"roughnessFactor":1,"baseColorTexture":{"index":3},"metallicRoughnessTexture":{"index":4}},"extensions":{"KHR_materials_ior":{"ior":1.43},"KHR_materials_specular":{"specularFactor":0.3}},"normalTexture":{"index":5,"scale":0.3},"extras":{"thin_leaf_diffuse_translucency":0.28,"render_note":"Blender scene uses thin-sheet diffuse transmission; portable GLB has front/back PBR materials."}},{"name":"leaf-back","doubleSided":false,"pbrMetallicRoughness":{"baseColorFactor":[1,1,1,1],"metallicFactor":0,"roughnessFactor":1,"baseColorTexture":{"index":6},"metallicRoughnessTexture":{"index":4}},"extensions":{"KHR_materials_ior":{"ior":1.43},"KHR_materials_specular":{"specularFactor":0.3}},"normalTexture":{"index":5,"scale":0.3},"extras":{"thin_leaf_diffuse_translucency":0.28,"render_note":"Blender scene uses thin-sheet diffuse transmission; portable GLB has front/back PBR materials."}},{"name":"leaf-edge","doubleSided":true,"pbrMetallicRoughness":{"baseColorFactor":[1,1,1,1],"metallicFactor":0,"roughnessFactor":0.58},"extensions":{"KHR_materials_ior":{"ior":1.43},"KHR_materials_specular":{"specularFactor":0.3}}},{"name":"new-leaf","doubleSided":true,"pbrMetallicRoughness":{"baseColorFactor":[1,1,1,1],"metallicFactor":0,"roughnessFactor":1,"baseColorTexture":{"index":7},"metallicRoughnessTexture":{"index":8}},"extensions":{"KHR_materials_ior":{"ior":1.43},"KHR_materials_specular":{"specularFactor":0.3}},"normalTexture":{"index":9,"scale":0.3},"extras":{"thin_leaf_diffuse_translucency":0.28,"render_note":"Blender scene uses thin-sheet diffuse transmission; portable GLB has front/back PBR materials."}}],"accessors":[{"bufferView":0,"componentType":5126,"count":588,"type":"VEC3","min":[-0.21107697486877441,-0.00047032974543981254,-0.20879009366035461],"max":[0.2641761302947998,1.0347956418991089,0.25450563430786133]},{"bufferView":1,"componentType":5126,"count":588,"type":"VEC3"},{"bufferView":2,"componentType":5121,"count":588,"type":"VEC3","normalized":true},{"bufferView":3,"componentType":5126,"count":588,"type":"VEC2"},{"componentType":5125,"type":"SCALAR","bufferView":4,"count":3432},{"bufferView":5,"componentType":5126,"count":14746,"type":"VEC3","min":[-0.4652005434036255,0.518368124961853,-0.49898064136505127],"max":[0.6107638478279114,1.124122977256775,0.5380774140357971]},{"bufferView":6,"componentType":5126,"count":14746,"type":"VEC3"},{"bufferView":7,"componentType":5121,"count":14746,"type":"VEC3","normalized":true},{"bufferView":8,"componentType":5126,"count":14746,"type":"VEC2"},{"componentType":5125,"type":"SCALAR","bufferView":9,"count":85746},{"bufferView":10,"componentType":5126,"count":14746,"type":"VEC3","min":[-0.465139240026474,0.5182197093963623,-0.4989002048969269],"max":[0.6106802225112915,1.1239759922027588,0.5379734039306641]},{"bufferView":11,"componentType":5126,"count":14746,"type":"VEC3"},{"bufferView":12,"componentType":5121,"count":14746,"type":"VEC3","normalized":true},{"bufferView":13,"componentType":5126,"count":14746,"type":"VEC2"},{"componentType":5125,"type":"SCALAR","bufferView":14,"count":85746},{"bufferView":15,"componentType":5126,"count":573,"type":"VEC3","min":[-0.4650770127773285,0.5182197093963623,-0.4981789290904999],"max":[0.6107638478279114,1.1240447759628296,0.5380774140357971]},{"bufferView":16,"componentType":5126,"count":573,"type":"VEC3"},{"bufferView":17,"componentType":5121,"count":573,"type":"VEC3","normalized":true},{"bufferView":18,"componentType":5126,"count":573,"type":"VEC2"},{"componentType":5125,"type":"SCALAR","bufferView":19,"count":1719},{"bufferView":20,"componentType":5126,"count":112,"type":"VEC3","min":[-0.005248405504971743,0.9951000213623047,-3.9517360050922434e-07],"max":[0.038290128111839294,1.2247945070266724,0.21921959519386292]},{"bufferView":21,"componentType":5126,"count":112,"type":"VEC3"},{"bufferView":22,"componentType":5121,"count":112,"type":"VEC3","normalized":true},{"bufferView":23,"componentType":5126,"count":112,"type":"VEC2"},{"componentType":5125,"type":"SCALAR","bufferView":24,"count":480}],"images":[{"mimeType":"image/png","name":"petiole_albedo.png","uri":"../textures/petiole_albedo.png"},{"mimeType":"image/png","name":"petiole_orm.png","uri":"../textures/petiole_orm.png"},{"mimeType":"image/png","name":"petiole_normal.png","uri":"../textures/petiole_normal.png"},{"mimeType":"image/jpeg","name":"taro_albedo.jpg","uri":"../textures/taro_albedo.jpg"},{"mimeType":"image/png","name":"taro_orm.png","uri":"../textures/taro_orm.png"},{"mimeType":"image/png","name":"taro_normal.png","uri":"../textures/taro_normal.png"},{"mimeType":"image/jpeg","name":"taro_back.jpg","uri":"../textures/taro_back.jpg"},{"mimeType":"image/png","name":"grass_albedo.png","uri":"../textures/grass_albedo.png"},{"mimeType":"image/png","name":"grass_orm.png","uri":"../textures/grass_orm.png"},{"mimeType":"image/png","name":"grass_normal.png","uri":"../textures/grass_normal.png"}],"textures":[{"source":0,"sampler":0},{"source":1,"sampler":0},{"source":2,"sampler":0},{"source":3,"sampler":0},{"source":4,"sampler":0},{"source":5,"sampler":0},{"source":6,"sampler":0},{"source":7,"sampler":0},{"source":8,"sampler":0},{"source":9,"sampler":0}],"samplers":[{"magFilter":9729,"minFilter":9987,"wrapS":10497,"wrapT":10497}],"bufferViews":[{"buffer":0,"byteOffset":0,"byteLength":7056},{"buffer":0,"byteOffset":7056,"byteLength":7056},{"buffer":0,"byteOffset":14112,"byteLength":1764},{"buffer":0,"byteOffset":15876,"byteLength":4704},{"buffer":0,"byteOffset":20580,"byteLength":13728},{"buffer":0,"byteOffset":34308,"byteLength":176952},{"buffer":0,"byteOffset":211260,"byteLength":176952},{"buffer":0,"byteOffset":388212,"byteLength":44238},{"buffer":0,"byteOffset":432452,"byteLength":117968},{"buffer":0,"byteOffset":550420,"byteLength":342984},{"buffer":0,"byteOffset":893404,"byteLength":176952},{"buffer":0,"byteOffset":1070356,"byteLength":176952},{"buffer":0,"byteOffset":1247308,"byteLength":44238},{"buffer":0,"byteOffset":1291548,"byteLength":117968},{"buffer":0,"byteOffset":1409516,"byteLength":342984},{"buffer":0,"byteOffset":1752500,"byteLength":6876},{"buffer":0,"byteOffset":1759376,"byteLength":6876},{"buffer":0,"byteOffset":1766252,"byteLength":1719},{"buffer":0,"byteOffset":1767972,"byteLength":4584},{"buffer":0,"byteOffset":1772556,"byteLength":6876},{"buffer":0,"byteOffset":1779432,"byteLength":1344},{"buffer":0,"byteOffset":1780776,"byteLength":1344},{"buffer":0,"byteOffset":1782120,"byteLength":336},{"buffer":0,"byteOffset":1782456,"byteLength":896},{"buffer":0,"byteOffset":1783352,"byteLength":1920}],"buffers":[{"byteLength":1785272,"uri":"taro_03.bin"}],"extras":{"species":"Colocasia esculenta","stage":"旺盛生長","units":"metre","axis":"Y-up; right-handed","origin":"ground at (0,0,0)","version":"2.0","provenance":"Artist-authored geometry with AI-generated albedo and estimated PBR maps, not a botanical scan","closeup":false,"quality":"web","master":"models/taro_03.glb","optimizer":"meshoptimizer 0.24, topology simplification; thin surface boundaries locked"}}