{"asset":{"version":"2.0","generator":"Rinan Botanical Closeup 2.0"},"extensionsUsed":["KHR_materials_ior","KHR_materials_specular"],"scene":0,"scenes":[{"nodes":[0,1,2,3,4]}],"nodes":[{"name":"petiole","mesh":0},{"name":"leaf","mesh":1},{"name":"leaf-back","mesh":2},{"name":"leaf-edge","mesh":3},{"name":"new-leaf","mesh":4}],"meshes":[{"name":"petiole","primitives":[{"attributes":{"POSITION":0,"NORMAL":1,"COLOR_0":2,"TEXCOORD_0":3},"indices":4,"material":0}]},{"name":"leaf","primitives":[{"attributes":{"POSITION":5,"NORMAL":6,"COLOR_0":7,"TEXCOORD_0":8},"indices":9,"material":1}]},{"name":"leaf-back","primitives":[{"attributes":{"POSITION":10,"NORMAL":11,"COLOR_0":12,"TEXCOORD_0":13},"indices":14,"material":2}]},{"name":"leaf-edge","primitives":[{"attributes":{"POSITION":15,"NORMAL":16,"COLOR_0":17,"TEXCOORD_0":18},"indices":19,"material":3}]},{"name":"new-leaf","primitives":[{"attributes":{"POSITION":20,"NORMAL":21,"COLOR_0":22,"TEXCOORD_0":23},"indices":24,"material":4}]}],"materials":[{"name":"petiole","doubleSided":true,"pbrMetallicRoughness":{"baseColorFactor":[1,1,1,1],"metallicFactor":0,"roughnessFactor":1,"baseColorTexture":{"index":0},"metallicRoughnessTexture":{"index":1}},"extensions":{"KHR_materials_ior":{"ior":1.43},"KHR_materials_specular":{"specularFactor":0.3}},"normalTexture":{"index":2,"scale":0.3}},{"name":"leaf","doubleSided":false,"pbrMetallicRoughness":{"baseColorFactor":[1,1,1,1],"metallicFactor":0,"roughnessFactor":1,"baseColorTexture":{"index":3},"metallicRoughnessTexture":{"index":4}},"extensions":{"KHR_materials_ior":{"ior":1.43},"KHR_materials_specular":{"specularFactor":0.3}},"normalTexture":{"index":5,"scale":0.3},"extras":{"thin_leaf_diffuse_translucency":0.28,"render_note":"Blender scene uses thin-sheet diffuse transmission; portable GLB has front/back PBR materials."}},{"name":"leaf-back","doubleSided":false,"pbrMetallicRoughness":{"baseColorFactor":[1,1,1,1],"metallicFactor":0,"roughnessFactor":1,"baseColorTexture":{"index":6},"metallicRoughnessTexture":{"index":4}},"extensions":{"KHR_materials_ior":{"ior":1.43},"KHR_materials_specular":{"specularFactor":0.3}},"normalTexture":{"index":5,"scale":0.3},"extras":{"thin_leaf_diffuse_translucency":0.28,"render_note":"Blender scene uses thin-sheet diffuse transmission; portable GLB has front/back PBR materials."}},{"name":"leaf-edge","doubleSided":true,"pbrMetallicRoughness":{"baseColorFactor":[1,1,1,1],"metallicFactor":0,"roughnessFactor":0.58},"extensions":{"KHR_materials_ior":{"ior":1.43},"KHR_materials_specular":{"specularFactor":0.3}}},{"name":"new-leaf","doubleSided":true,"pbrMetallicRoughness":{"baseColorFactor":[1,1,1,1],"metallicFactor":0,"roughnessFactor":1,"baseColorTexture":{"index":7},"metallicRoughnessTexture":{"index":8}},"extensions":{"KHR_materials_ior":{"ior":1.43},"KHR_materials_specular":{"specularFactor":0.3}},"normalTexture":{"index":9,"scale":0.3},"extras":{"thin_leaf_diffuse_translucency":0.28,"render_note":"Blender scene uses thin-sheet diffuse transmission; portable GLB has front/back PBR materials."}}],"accessors":[{"bufferView":0,"componentType":5126,"count":194,"type":"VEC3","min":[-0.05963870882987976,-0.0003609422128647566,-0.003599999938160181],"max":[0.04071356728672981,0.22884567081928253,0.028982380405068398]},{"bufferView":1,"componentType":5126,"count":194,"type":"VEC3"},{"bufferView":2,"componentType":5121,"count":194,"type":"VEC3","normalized":true},{"bufferView":3,"componentType":5126,"count":194,"type":"VEC2"},{"componentType":5125,"type":"SCALAR","bufferView":4,"count":1128},{"bufferView":5,"componentType":5126,"count":4213,"type":"VEC3","min":[-0.15260010957717896,0.12732990086078644,-0.059227362275123596],"max":[0.0901135578751564,0.24087850749492645,0.07602982968091965]},{"bufferView":6,"componentType":5126,"count":4213,"type":"VEC3"},{"bufferView":7,"componentType":5121,"count":4213,"type":"VEC3","normalized":true},{"bufferView":8,"componentType":5126,"count":4213,"type":"VEC2"},{"componentType":5125,"type":"SCALAR","bufferView":9,"count":24498},{"bufferView":10,"componentType":5126,"count":4213,"type":"VEC3","min":[-0.152533158659935,0.1271674484014511,-0.05923697352409363],"max":[0.09004957973957062,0.24071168899536133,0.07602021843194962]},{"bufferView":11,"componentType":5126,"count":4213,"type":"VEC3"},{"bufferView":12,"componentType":5121,"count":4213,"type":"VEC3","normalized":true},{"bufferView":13,"componentType":5126,"count":4213,"type":"VEC2"},{"componentType":5125,"type":"SCALAR","bufferView":14,"count":24498},{"bufferView":15,"componentType":5126,"count":163,"type":"VEC3","min":[-0.15260010957717896,0.1271674484014511,-0.05923697352409363],"max":[0.0901135578751564,0.24082906544208527,0.07602982968091965]},{"bufferView":16,"componentType":5126,"count":163,"type":"VEC3"},{"bufferView":17,"componentType":5121,"count":163,"type":"VEC3","normalized":true},{"bufferView":18,"componentType":5126,"count":163,"type":"VEC2"},{"componentType":5125,"type":"SCALAR","bufferView":19,"count":489},{"bufferView":20,"componentType":5126,"count":110,"type":"VEC3","min":[-0.0011286893859505653,0.21400000154972076,-5.665571478630227e-08],"max":[0.008234435692429543,0.26339665055274963,0.047143999487161636]},{"bufferView":21,"componentType":5126,"count":110,"type":"VEC3"},{"bufferView":22,"componentType":5121,"count":110,"type":"VEC3","normalized":true},{"bufferView":23,"componentType":5126,"count":110,"type":"VEC2"},{"componentType":5125,"type":"SCALAR","bufferView":24,"count":480}],"images":[{"mimeType":"image/png","name":"petiole_albedo.png","uri":"../textures/petiole_albedo.png"},{"mimeType":"image/png","name":"petiole_orm.png","uri":"../textures/petiole_orm.png"},{"mimeType":"image/png","name":"petiole_normal.png","uri":"../textures/petiole_normal.png"},{"mimeType":"image/jpeg","name":"taro_albedo.jpg","uri":"../textures/taro_albedo.jpg"},{"mimeType":"image/png","name":"taro_orm.png","uri":"../textures/taro_orm.png"},{"mimeType":"image/png","name":"taro_normal.png","uri":"../textures/taro_normal.png"},{"mimeType":"image/jpeg","name":"taro_back.jpg","uri":"../textures/taro_back.jpg"},{"mimeType":"image/png","name":"grass_albedo.png","uri":"../textures/grass_albedo.png"},{"mimeType":"image/png","name":"grass_orm.png","uri":"../textures/grass_orm.png"},{"mimeType":"image/png","name":"grass_normal.png","uri":"../textures/grass_normal.png"}],"textures":[{"source":0,"sampler":0},{"source":1,"sampler":0},{"source":2,"sampler":0},{"source":3,"sampler":0},{"source":4,"sampler":0},{"source":5,"sampler":0},{"source":6,"sampler":0},{"source":7,"sampler":0},{"source":8,"sampler":0},{"source":9,"sampler":0}],"samplers":[{"magFilter":9729,"minFilter":9987,"wrapS":10497,"wrapT":10497}],"bufferViews":[{"buffer":0,"byteOffset":0,"byteLength":2328},{"buffer":0,"byteOffset":2328,"byteLength":2328},{"buffer":0,"byteOffset":4656,"byteLength":582},{"buffer":0,"byteOffset":5240,"byteLength":1552},{"buffer":0,"byteOffset":6792,"byteLength":4512},{"buffer":0,"byteOffset":11304,"byteLength":50556},{"buffer":0,"byteOffset":61860,"byteLength":50556},{"buffer":0,"byteOffset":112416,"byteLength":12639},{"buffer":0,"byteOffset":125056,"byteLength":33704},{"buffer":0,"byteOffset":158760,"byteLength":97992},{"buffer":0,"byteOffset":256752,"byteLength":50556},{"buffer":0,"byteOffset":307308,"byteLength":50556},{"buffer":0,"byteOffset":357864,"byteLength":12639},{"buffer":0,"byteOffset":370504,"byteLength":33704},{"buffer":0,"byteOffset":404208,"byteLength":97992},{"buffer":0,"byteOffset":502200,"byteLength":1956},{"buffer":0,"byteOffset":504156,"byteLength":1956},{"buffer":0,"byteOffset":506112,"byteLength":489},{"buffer":0,"byteOffset":506604,"byteLength":1304},{"buffer":0,"byteOffset":507908,"byteLength":1956},{"buffer":0,"byteOffset":509864,"byteLength":1320},{"buffer":0,"byteOffset":511184,"byteLength":1320},{"buffer":0,"byteOffset":512504,"byteLength":330},{"buffer":0,"byteOffset":512836,"byteLength":880},{"buffer":0,"byteOffset":513716,"byteLength":1920}],"buffers":[{"byteLength":515636,"uri":"taro_01.bin"}],"extras":{"species":"Colocasia esculenta","stage":"新芽","units":"metre","axis":"Y-up; right-handed","origin":"ground at (0,0,0)","version":"2.0","provenance":"Artist-authored geometry with AI-generated albedo and estimated PBR maps, not a botanical scan","closeup":false,"quality":"web","master":"models/taro_01.glb","optimizer":"meshoptimizer 0.24, topology simplification; thin surface boundaries locked"}}