{"asset":{"version":"2.0","generator":"Rinan Botanical Closeup 2.0"},"extensionsUsed":["KHR_materials_ior","KHR_materials_specular"],"scene":0,"scenes":[{"nodes":[0,1,2,3,4]}],"nodes":[{"name":"petiole","mesh":0},{"name":"leaf","mesh":1},{"name":"leaf-back","mesh":2},{"name":"leaf-edge","mesh":3},{"name":"new-leaf","mesh":4}],"meshes":[{"name":"petiole","primitives":[{"attributes":{"POSITION":0,"NORMAL":1,"COLOR_0":2,"TEXCOORD_0":3},"indices":4,"material":0}]},{"name":"leaf","primitives":[{"attributes":{"POSITION":5,"NORMAL":6,"COLOR_0":7,"TEXCOORD_0":8},"indices":9,"material":1}]},{"name":"leaf-back","primitives":[{"attributes":{"POSITION":10,"NORMAL":11,"COLOR_0":12,"TEXCOORD_0":13},"indices":14,"material":2}]},{"name":"leaf-edge","primitives":[{"attributes":{"POSITION":15,"NORMAL":16,"COLOR_0":17,"TEXCOORD_0":18},"indices":19,"material":3}]},{"name":"new-leaf","primitives":[{"attributes":{"POSITION":20,"NORMAL":21,"COLOR_0":22,"TEXCOORD_0":23},"indices":24,"material":4}]}],"materials":[{"name":"petiole","doubleSided":true,"pbrMetallicRoughness":{"baseColorFactor":[1,1,1,1],"metallicFactor":0,"roughnessFactor":1,"baseColorTexture":{"index":0},"metallicRoughnessTexture":{"index":1}},"extensions":{"KHR_materials_ior":{"ior":1.43},"KHR_materials_specular":{"specularFactor":0.3}},"normalTexture":{"index":2,"scale":0.3}},{"name":"leaf","doubleSided":false,"pbrMetallicRoughness":{"baseColorFactor":[1,1,1,1],"metallicFactor":0,"roughnessFactor":1,"baseColorTexture":{"index":3},"metallicRoughnessTexture":{"index":4}},"extensions":{"KHR_materials_ior":{"ior":1.43},"KHR_materials_specular":{"specularFactor":0.3}},"normalTexture":{"index":5,"scale":0.3},"extras":{"thin_leaf_diffuse_translucency":0.28,"render_note":"Blender scene uses thin-sheet diffuse transmission; portable GLB has front/back PBR materials."}},{"name":"leaf-back","doubleSided":false,"pbrMetallicRoughness":{"baseColorFactor":[1,1,1,1],"metallicFactor":0,"roughnessFactor":1,"baseColorTexture":{"index":6},"metallicRoughnessTexture":{"index":4}},"extensions":{"KHR_materials_ior":{"ior":1.43},"KHR_materials_specular":{"specularFactor":0.3}},"normalTexture":{"index":5,"scale":0.3},"extras":{"thin_leaf_diffuse_translucency":0.28,"render_note":"Blender scene uses thin-sheet diffuse transmission; portable GLB has front/back PBR materials."}},{"name":"leaf-edge","doubleSided":true,"pbrMetallicRoughness":{"baseColorFactor":[1,1,1,1],"metallicFactor":0,"roughnessFactor":0.58},"extensions":{"KHR_materials_ior":{"ior":1.43},"KHR_materials_specular":{"specularFactor":0.3}}},{"name":"new-leaf","doubleSided":true,"pbrMetallicRoughness":{"baseColorFactor":[1,1,1,1],"metallicFactor":0,"roughnessFactor":1,"baseColorTexture":{"index":7},"metallicRoughnessTexture":{"index":8}},"extensions":{"KHR_materials_ior":{"ior":1.43},"KHR_materials_specular":{"specularFactor":0.3}},"normalTexture":{"index":9,"scale":0.3},"extras":{"thin_leaf_diffuse_translucency":0.28,"render_note":"Blender scene uses thin-sheet diffuse transmission; portable GLB has front/back PBR materials."}}],"accessors":[{"bufferView":0,"componentType":5126,"count":351,"type":"VEC3","min":[-0.11234104633331299,-0.0003624980163294822,-0.06942661851644516],"max":[0.08169529587030411,0.5136335492134094,0.1337684690952301]},{"bufferView":1,"componentType":5126,"count":351,"type":"VEC3"},{"bufferView":2,"componentType":5121,"count":351,"type":"VEC3","normalized":true},{"bufferView":3,"componentType":5126,"count":351,"type":"VEC2"},{"componentType":5125,"type":"SCALAR","bufferView":4,"count":2046},{"bufferView":5,"componentType":5126,"count":8426,"type":"VEC3","min":[-0.29031044244766235,0.2632472515106201,-0.17498792707920074],"max":[0.18923217058181763,0.573208749294281,0.2982311546802521]},{"bufferView":6,"componentType":5126,"count":8426,"type":"VEC3"},{"bufferView":7,"componentType":5121,"count":8426,"type":"VEC3","normalized":true},{"bufferView":8,"componentType":5126,"count":8426,"type":"VEC2"},{"componentType":5125,"type":"SCALAR","bufferView":9,"count":48996},{"bufferView":10,"componentType":5126,"count":8426,"type":"VEC3","min":[-0.2902444005012512,0.2630881667137146,-0.17492276430130005],"max":[0.18915514647960663,0.5730679631233215,0.2981191575527191]},{"bufferView":11,"componentType":5126,"count":8426,"type":"VEC3"},{"bufferView":12,"componentType":5121,"count":8426,"type":"VEC3","normalized":true},{"bufferView":13,"componentType":5126,"count":8426,"type":"VEC2"},{"componentType":5125,"type":"SCALAR","bufferView":14,"count":48996},{"bufferView":15,"componentType":5126,"count":327,"type":"VEC3","min":[-0.29031044244766235,0.2630881667137146,-0.17483843863010406],"max":[0.1889556497335434,0.573208749294281,0.2982311546802521]},{"bufferView":16,"componentType":5126,"count":327,"type":"VEC3"},{"bufferView":17,"componentType":5121,"count":327,"type":"VEC3","normalized":true},{"bufferView":18,"componentType":5126,"count":327,"type":"VEC2"},{"componentType":5125,"type":"SCALAR","bufferView":19,"count":981},{"bufferView":20,"componentType":5126,"count":111,"type":"VEC3","min":[-0.0027088546194136143,0.5135999917984009,-2.0396056754634628e-07],"max":[0.019762646406888962,0.6321519613265991,0.11314559727907181]},{"bufferView":21,"componentType":5126,"count":111,"type":"VEC3"},{"bufferView":22,"componentType":5121,"count":111,"type":"VEC3","normalized":true},{"bufferView":23,"componentType":5126,"count":111,"type":"VEC2"},{"componentType":5125,"type":"SCALAR","bufferView":24,"count":480}],"images":[{"mimeType":"image/png","name":"petiole_albedo.png","uri":"../textures/petiole_albedo.png"},{"mimeType":"image/png","name":"petiole_orm.png","uri":"../textures/petiole_orm.png"},{"mimeType":"image/png","name":"petiole_normal.png","uri":"../textures/petiole_normal.png"},{"mimeType":"image/jpeg","name":"taro_albedo.jpg","uri":"../textures/taro_albedo.jpg"},{"mimeType":"image/png","name":"taro_orm.png","uri":"../textures/taro_orm.png"},{"mimeType":"image/png","name":"taro_normal.png","uri":"../textures/taro_normal.png"},{"mimeType":"image/jpeg","name":"taro_back.jpg","uri":"../textures/taro_back.jpg"},{"mimeType":"image/png","name":"grass_albedo.png","uri":"../textures/grass_albedo.png"},{"mimeType":"image/png","name":"grass_orm.png","uri":"../textures/grass_orm.png"},{"mimeType":"image/png","name":"grass_normal.png","uri":"../textures/grass_normal.png"}],"textures":[{"source":0,"sampler":0},{"source":1,"sampler":0},{"source":2,"sampler":0},{"source":3,"sampler":0},{"source":4,"sampler":0},{"source":5,"sampler":0},{"source":6,"sampler":0},{"source":7,"sampler":0},{"source":8,"sampler":0},{"source":9,"sampler":0}],"samplers":[{"magFilter":9729,"minFilter":9987,"wrapS":10497,"wrapT":10497}],"bufferViews":[{"buffer":0,"byteOffset":0,"byteLength":4212},{"buffer":0,"byteOffset":4212,"byteLength":4212},{"buffer":0,"byteOffset":8424,"byteLength":1053},{"buffer":0,"byteOffset":9480,"byteLength":2808},{"buffer":0,"byteOffset":12288,"byteLength":8184},{"buffer":0,"byteOffset":20472,"byteLength":101112},{"buffer":0,"byteOffset":121584,"byteLength":101112},{"buffer":0,"byteOffset":222696,"byteLength":25278},{"buffer":0,"byteOffset":247976,"byteLength":67408},{"buffer":0,"byteOffset":315384,"byteLength":195984},{"buffer":0,"byteOffset":511368,"byteLength":101112},{"buffer":0,"byteOffset":612480,"byteLength":101112},{"buffer":0,"byteOffset":713592,"byteLength":25278},{"buffer":0,"byteOffset":738872,"byteLength":67408},{"buffer":0,"byteOffset":806280,"byteLength":195984},{"buffer":0,"byteOffset":1002264,"byteLength":3924},{"buffer":0,"byteOffset":1006188,"byteLength":3924},{"buffer":0,"byteOffset":1010112,"byteLength":981},{"buffer":0,"byteOffset":1011096,"byteLength":2616},{"buffer":0,"byteOffset":1013712,"byteLength":3924},{"buffer":0,"byteOffset":1017636,"byteLength":1332},{"buffer":0,"byteOffset":1018968,"byteLength":1332},{"buffer":0,"byteOffset":1020300,"byteLength":333},{"buffer":0,"byteOffset":1020636,"byteLength":888},{"buffer":0,"byteOffset":1021524,"byteLength":1920}],"buffers":[{"byteLength":1023444,"uri":"taro_02.bin"}],"extras":{"species":"Colocasia esculenta","stage":"展葉","units":"metre","axis":"Y-up; right-handed","origin":"ground at (0,0,0)","version":"2.0","provenance":"Artist-authored geometry with AI-generated albedo and estimated PBR maps, not a botanical scan","closeup":false,"quality":"web","master":"models/taro_02.glb","optimizer":"meshoptimizer 0.24, topology simplification; thin surface boundaries locked"}}